ISO-10303-21;
HEADER;
FILE_DESCRIPTION (( 'STEP AP214' ),
    '1' );
FILE_NAME ('lower_shell.STEP',
    '2026-08-31T04:57:02',
    ( '' ),
    ( '' ),
    'SwSTEP 2.0',
    'SolidWorks 2026',
    '' );
FILE_SCHEMA (( 'AUTOMOTIVE_DESIGN' ));
ENDSEC;

DATA;
#1 = ORIENTED_EDGE ( 'NONE', *, *, #283, .T. ) ;
#2 = DIRECTION ( 'NONE',  ( -1.000000000000000000, 0.000000000000000000, 7.888609052210119806E-31 ) ) ;
#3 = DIRECTION ( 'NONE',  ( 0.7071067811865480168, 1.385375698838400322E-16, -0.7071067811865470176 ) ) ;
#4 = ADVANCED_FACE ( 'NONE', ( #1003 ), #1237, .T. ) ;
#5 = DIRECTION ( 'NONE',  ( 2.493926145408064843E-31, -1.000000000000000000, -2.049642507000289605E-16 ) ) ;
#6 = ORIENTED_EDGE ( 'NONE', *, *, #327, .T. ) ;
#7 = EDGE_CURVE ( 'NONE', #341, #73, #676, .T. ) ;
#8 = VERTEX_POINT ( 'NONE', #1335 ) ;
#9 = CARTESIAN_POINT ( 'NONE',  ( 2.000000059604649660, 67.50000000000000000, -50.00625122375110010 ) ) ;
#10 = CARTESIAN_POINT ( 'NONE',  ( 36.29667966274204360, -46.27508152002117470, 0.000000000000000000 ) ) ;
#11 = DIRECTION ( 'NONE',  ( -0.7071067811865470176, 1.449316115708099850E-16, -0.7071067811865480168 ) ) ;
#12 = CARTESIAN_POINT ( 'NONE',  ( 19.15395952452867689, -46.27508152002117470, 19.15395952452870176 ) ) ;
#13 = EDGE_CURVE ( 'NONE', #364, #698, #474, .T. ) ;
#14 = ORIENTED_EDGE ( 'NONE', *, *, #652, .F. ) ;
#15 = ADVANCED_BREP_SHAPE_REPRESENTATION ( 'lower_shell', ( #94, #1243 ), #1291 ) ;
#16 = LINE ( 'NONE', #89, #509 ) ;
#17 = AXIS2_PLACEMENT_3D ( 'NONE', #166, #513, #383 ) ;
#18 = CARTESIAN_POINT ( 'NONE',  ( 0.1920809509425960016, 67.49999999999998579, 17.49999999999999645 ) ) ;
#19 = VECTOR ( 'NONE', #291, 1000.000000000000000 ) ;
#20 = CARTESIAN_POINT ( 'NONE',  ( -1.878986860922870150, 87.50000000000000000, 22.50000000000000000 ) ) ;
#21 = ORIENTED_EDGE ( 'NONE', *, *, #1353, .T. ) ;
#22 = PRODUCT_DEFINITION ( 'UNKNOWN', '', #234, #453 ) ;
#23 = ORIENTED_EDGE ( 'NONE', *, *, #967, .T. ) ;
#24 = CARTESIAN_POINT ( 'NONE',  ( -3.000000044703459601, 77.50000000000000000, 9.307919004353930603 ) ) ;
#25 = FACE_OUTER_BOUND ( 'NONE', #1230, .T. ) ;
#26 = CARTESIAN_POINT ( 'NONE',  ( 29.00046957425429994, 87.50000000000000000, -49.99952881642030178 ) ) ;
#27 = DIRECTION ( 'NONE',  ( 0.000000000000000000, -1.000000000000000000, 0.000000000000000000 ) ) ;
#28 = ORIENTED_EDGE ( 'NONE', *, *, #1076, .F. ) ;
#29 = ORIENTED_EDGE ( 'NONE', *, *, #937, .F. ) ;
#30 = FACE_OUTER_BOUND ( 'NONE', #349, .T. ) ;
#31 = EDGE_CURVE ( 'NONE', #1201, #511, #492, .T. ) ;
#32 = CARTESIAN_POINT ( 'NONE',  ( 36.29667966274204360, -46.27508152002117470, -44.49999999999998579 ) ) ;
#33 = DIRECTION ( 'NONE',  ( -5.794482252784831864E-16, 0.000000000000000000, -1.000000000000000000 ) ) ;
#34 = CARTESIAN_POINT ( 'NONE',  ( -5.300001309253877579, -46.27508152002117470, -1.954661202832178504E-07 ) ) ;
#35 = ORIENTED_EDGE ( 'NONE', *, *, #140, .F. ) ;
#36 = DIRECTION ( 'NONE',  ( 0.000000000000000000, 0.000000000000000000, 1.000000000000000000 ) ) ;
#37 = CARTESIAN_POINT ( 'NONE',  ( 34.00000043213349699, 77.50000000000000000, 16.37898642878939981 ) ) ;
#38 = CARTESIAN_POINT ( 'NONE',  ( -10.29999966807629974, 67.50000000000000000, -44.50000625979500057 ) ) ;
#39 = ADVANCED_FACE ( 'NONE', ( #54 ), #571, .T. ) ;
#40 = DIRECTION ( 'NONE',  ( -1.947804704249429930E-31, -1.000000000000000000, -2.049642507000294781E-16 ) ) ;
#41 = VECTOR ( 'NONE', #620, 1000.000000000000114 ) ;
#42 = ORIENTED_EDGE ( 'NONE', *, *, #1120, .T. ) ;
#43 = AXIS2_PLACEMENT_3D ( 'NONE', #447, #27, #647 ) ;
#44 = ORIENTED_EDGE ( 'NONE', *, *, #900, .T. ) ;
#45 = LINE ( 'NONE', #476, #491 ) ;
#46 = DIRECTION ( 'NONE',  ( 0.000000000000000000, 1.000000000000000000, 0.000000000000000000 ) ) ;
#47 = DIRECTION ( 'NONE',  ( 3.727088734919889908E-16, 0.000000000000000000, -1.000000000000000000 ) ) ;
#48 = DIRECTION ( 'NONE',  ( -1.000000000000000000, 2.049642507000289605E-16, 0.000000000000000000 ) ) ;
#49 = EDGE_CURVE ( 'NONE', #668, #698, #481, .T. ) ;
#50 = ORIENTED_EDGE ( 'NONE', *, *, #1363, .T. ) ;
#51 = EDGE_LOOP ( 'NONE', ( #402, #790, #1, #348 ) ) ;
#52 = DIRECTION ( 'NONE',  ( 0.000000000000000000, 1.000000000000000000, 0.000000000000000000 ) ) ;
#53 = CARTESIAN_POINT ( 'NONE',  ( 20.99999953061340108, 67.50000000000000000, -52.99999886006120420 ) ) ;
#54 = FACE_OUTER_BOUND ( 'NONE', #1048, .T. ) ;
#55 = EDGE_CURVE ( 'NONE', #628, #1268, #899, .T. ) ;
#56 = ORIENTED_EDGE ( 'NONE', *, *, #1199, .F. ) ;
#57 = EDGE_LOOP ( 'NONE', ( #944, #1366, #80, #304 ) ) ;
#58 = CARTESIAN_POINT ( 'NONE',  ( 29.00046957425420047, -46.27508152002117470, -44.49999999999999289 ) ) ;
#59 = AXIS2_PLACEMENT_3D ( 'NONE', #340, #867, #979 ) ;
#60 = VECTOR ( 'NONE', #896, 1000.000000000000000 ) ;
#61 = ORIENTED_EDGE ( 'NONE', *, *, #96, .F. ) ;
#62 = AXIS2_PLACEMENT_3D ( 'NONE', #65, #1077, #121 ) ;
#63 = CIRCLE ( 'NONE', #175, 4.500000000000000000 ) ;
#64 = ORIENTED_EDGE ( 'NONE', *, *, #583, .F. ) ;
#65 = CARTESIAN_POINT ( 'NONE',  ( 20.99999953061340108, -46.27508152002117470, -49.99952881642030178 ) ) ;
#66 = DIRECTION ( 'NONE',  ( 0.000000000000000000, 1.000000000000000000, 0.000000000000000000 ) ) ;
#67 = ORIENTED_EDGE ( 'NONE', *, *, #900, .F. ) ;
#68 = DIRECTION ( 'NONE',  ( 0.000000000000000000, -1.000000000000000000, 0.000000000000000000 ) ) ;
#69 = EDGE_CURVE ( 'NONE', #648, #752, #1344, .T. ) ;
#70 = ORIENTED_EDGE ( 'NONE', *, *, #413, .F. ) ;
#71 = CARTESIAN_POINT ( 'NONE',  ( -10.30000130925389357, -46.27508152002117470, -3.798680749478134312E-07 ) ) ;
#72 = CARTESIAN_POINT ( 'NONE',  ( 29.00000043213350054, 67.49999999999998579, 9.307918616923938515 ) ) ;
#73 = VERTEX_POINT ( 'NONE', #890 ) ;
#74 = DIRECTION ( 'NONE',  ( -1.000000000000000000, -1.606111199752450005E-31, 0.000000000000000000 ) ) ;
#75 = ORIENTED_EDGE ( 'NONE', *, *, #393, .T. ) ;
#76 = CARTESIAN_POINT ( 'NONE',  ( -0.9794919243112131246, 77.50000000000000000, 2.000000000000000000 ) ) ;
#77 = EDGE_CURVE ( 'NONE', #265, #1017, #356, .T. ) ;
#78 = CARTESIAN_POINT ( 'NONE',  ( 24.00046957425429994, 67.50000000000000000, -49.99952881642030889 ) ) ;
#79 = AXIS2_PLACEMENT_3D ( 'NONE', #1185, #527, #437 ) ;
#80 = ORIENTED_EDGE ( 'NONE', *, *, #642, .T. ) ;
#81 = CIRCLE ( 'NONE', #1337, 8.000470043640850903 ) ;
#82 = VECTOR ( 'NONE', #168, 1000.000000000000000 ) ;
#83 = ORIENTED_EDGE ( 'NONE', *, *, #458, .T. ) ;
#84 = DIRECTION ( 'NONE',  ( 3.688039093805997352E-08, 0.000000000000000000, -0.9999999999999993339 ) ) ;
#85 = CARTESIAN_POINT ( 'NONE',  ( 27.30923938676749785, 87.50000000000000000, -39.50000000000000000 ) ) ;
#86 = ORIENTED_EDGE ( 'NONE', *, *, #267, .F. ) ;
#87 = EDGE_CURVE ( 'NONE', #1350, #415, #381, .T. ) ;
#88 = EDGE_LOOP ( 'NONE', ( #1252, #412, #532, #1194 ) ) ;
#89 = CARTESIAN_POINT ( 'NONE',  ( -1.878986860922871260, 67.49999999999998579, 22.50000000000000000 ) ) ;
#90 = EDGE_LOOP ( 'NONE', ( #1362, #1369, #909, #941 ) ) ;
#91 = PLANE ( 'NONE',  #897 ) ;
#92 = FACE_OUTER_BOUND ( 'NONE', #969, .T. ) ;
#93 = ORIENTED_EDGE ( 'NONE', *, *, #1118, .T. ) ;
#94 = MANIFOLD_SOLID_BREP ( 'Stock-penetrolyzer_actuator_frame-1', #193 ) ;
#95 = VERTEX_POINT ( 'NONE', #1368 ) ;
#96 = EDGE_CURVE ( 'NONE', #1085, #511, #158, .T. ) ;
#97 = LINE ( 'NONE', #215, #329 ) ;
#98 = LINE ( 'NONE', #1171, #392 ) ;
#99 = EDGE_LOOP ( 'NONE', ( #1039, #310, #531, #922 ) ) ;
#100 = DIRECTION ( 'NONE',  ( 0.7071067811865480168, -1.385375698838397857E-16, 0.7071067811865470176 ) ) ;
#101 = DIRECTION ( 'NONE',  ( 0.000000000000000000, 0.000000000000000000, -1.000000000000000000 ) ) ;
#102 = ORIENTED_EDGE ( 'NONE', *, *, #393, .F. ) ;
#103 = CARTESIAN_POINT ( 'NONE',  ( 29.00046957425420047, 87.50000000000000000, -44.50000000000000000 ) ) ;
#104 = VECTOR ( 'NONE', #2, 1000.000000000000000 ) ;
#105 = ORIENTED_EDGE ( 'NONE', *, *, #434, .F. ) ;
#106 = VECTOR ( 'NONE', #111, 1000.000000000000000 ) ;
#107 = VECTOR ( 'NONE', #1371, 1000.000000000000000 ) ;
#108 = EDGE_CURVE ( 'NONE', #688, #1260, #1130, .T. ) ;
#109 = FACE_OUTER_BOUND ( 'NONE', #1359, .T. ) ;
#110 = VECTOR ( 'NONE', #245, 1000.000000000000000 ) ;
#111 = DIRECTION ( 'NONE',  ( -0.7071067811865480168, 0.000000000000000000, -0.7071067811865470176 ) ) ;
#112 = VERTEX_POINT ( 'NONE', #604 ) ;
#113 = EDGE_LOOP ( 'NONE', ( #1061, #335, #734, #501, #70, #1183, #983, #616, #1035, #384, #1155, #598, #638, #567, #298, #204, #14, #774, #190, #1195, #625, #1319, #61 ) ) ;
#114 = DIRECTION ( 'NONE',  ( 0.000000000000000000, 0.000000000000000000, 1.000000000000000000 ) ) ;
#115 = LINE ( 'NONE', #751, #866 ) ;
#116 = EDGE_CURVE ( 'NONE', #1303, #1326, #387, .T. ) ;
#117 = LINE ( 'NONE', #454, #561 ) ;
#118 = ORIENTED_EDGE ( 'NONE', *, *, #292, .T. ) ;
#119 = LINE ( 'NONE', #414, #1133 ) ;
#120 = APPLICATION_PROTOCOL_DEFINITION ( 'draft international standard', 'automotive_design', 1998, #939 ) ;
#121 = DIRECTION ( 'NONE',  ( 0.000000000000000000, 0.000000000000000000, -1.000000000000000000 ) ) ;
#122 = CARTESIAN_POINT ( 'NONE',  ( -5.299999852478398665, -46.27508152002117470, -39.50000118980551633 ) ) ;
#123 = EDGE_CURVE ( 'NONE', #1123, #429, #288, .T. ) ;
#124 = VERTEX_POINT ( 'NONE', #1053 ) ;
#125 = CARTESIAN_POINT ( 'NONE',  ( 4.993750666299909824, 67.50000000000000000, -57.99999886006119709 ) ) ;
#126 = DIRECTION ( 'NONE',  ( 0.000000000000000000, -1.000000000000000000, 0.000000000000000000 ) ) ;
#127 = CARTESIAN_POINT ( 'NONE',  ( -2.999919049057420128, -46.27508152002117470, 9.307999999999999829 ) ) ;
#128 = AXIS2_PLACEMENT_3D ( 'NONE', #1306, #580, #904 ) ;
#129 = DIRECTION ( 'NONE',  ( 0.000000000000000000, -1.000000000000000000, 0.000000000000000000 ) ) ;
#130 = VECTOR ( 'NONE', #779, 1000.000000000000000 ) ;
#131 = ORIENTED_EDGE ( 'NONE', *, *, #427, .F. ) ;
#132 = EDGE_CURVE ( 'NONE', #364, #1073, #282, .T. ) ;
#133 = ORIENTED_EDGE ( 'NONE', *, *, #1348, .F. ) ;
#134 = DIRECTION ( 'NONE',  ( 0.7071067811865470176, 1.449316115708101576E-16, -0.7071067811865480168 ) ) ;
#135 = CARTESIAN_POINT ( 'NONE',  ( 4.993750666299909824, 87.50000000000000000, -57.99999886006119709 ) ) ;
#136 = DIRECTION ( 'NONE',  ( 0.000000000000000000, -1.000000000000000000, -2.049642507000289605E-16 ) ) ;
#137 = ORIENTED_EDGE ( 'NONE', *, *, #330, .T. ) ;
#138 = VERTEX_POINT ( 'NONE', #724 ) ;
#139 = DIRECTION ( 'NONE',  ( -0.9999999999994859667, 0.000000000000000000, -1.013997426771979827E-06 ) ) ;
#140 = EDGE_CURVE ( 'NONE', #408, #227, #1144, .T. ) ;
#141 = LINE ( 'NONE', #793, #692 ) ;
#142 = LINE ( 'NONE', #269, #333 ) ;
#143 = SURFACE_SIDE_STYLE ('',( #246 ) ) ;
#144 = VERTEX_POINT ( 'NONE', #838 ) ;
#145 = DIRECTION ( 'NONE',  ( -1.606111199752450005E-31, 1.000000000000000000, 1.959217102279369698E-16 ) ) ;
#146 = PLANE ( 'NONE',  #128 ) ;
#147 = CARTESIAN_POINT ( 'NONE',  ( -5.300042857127182927, 67.50000000000000000, 3.258109548864111638 ) ) ;
#148 = EDGE_CURVE ( 'NONE', #930, #124, #498, .T. ) ;
#149 = DIRECTION ( 'NONE',  ( 1.606111199752450005E-31, -1.000000000000000000, -1.959217102279369698E-16 ) ) ;
#150 = VECTOR ( 'NONE', #258, 1000.000000000000000 ) ;
#151 =( NAMED_UNIT ( * ) PLANE_ANGLE_UNIT ( ) SI_UNIT ( $, .RADIAN. ) );
#152 = AXIS2_PLACEMENT_3D ( 'NONE', #1301, #1294, #876 ) ;
#153 = ORIENTED_EDGE ( 'NONE', *, *, #480, .T. ) ;
#154 = CARTESIAN_POINT ( 'NONE',  ( -1.878986860922877256, -46.27508152002117470, 22.50000000000000711 ) ) ;
#155 = LINE ( 'NONE', #266, #421 ) ;
#156 = DIRECTION ( 'NONE',  ( -0.9897433186107844616, 0.000000000000000000, 0.1428571428571610846 ) ) ;
#157 = ADVANCED_FACE ( 'NONE', ( #410 ), #1242, .T. ) ;
#158 = LINE ( 'NONE', #612, #651 ) ;
#159 = ORIENTED_EDGE ( 'NONE', *, *, #7, .F. ) ;
#160 = ORIENTED_EDGE ( 'NONE', *, *, #695, .T. ) ;
#161 = LINE ( 'NONE', #906, #1093 ) ;
#162 = EDGE_CURVE ( 'NONE', #752, #1054, #731, .T. ) ;
#163 = ORIENTED_EDGE ( 'NONE', *, *, #1177, .T. ) ;
#164 = EDGE_CURVE ( 'NONE', #682, #744, #951, .T. ) ;
#165 = ORIENTED_EDGE ( 'NONE', *, *, #397, .F. ) ;
#166 = CARTESIAN_POINT ( 'NONE',  ( 20.99999953061340108, 77.50000000000000000, -49.99952881642030178 ) ) ;
#167 = VERTEX_POINT ( 'NONE', #504 ) ;
#168 = DIRECTION ( 'NONE',  ( 0.000000000000000000, -1.000000000000000000, -2.049642507000289605E-16 ) ) ;
#169 = DIRECTION ( 'NONE',  ( -1.013997425894570161E-06, -2.049642506999241899E-16, 0.9999999999994859667 ) ) ;
#170 = AXIS2_PLACEMENT_3D ( 'NONE', #299, #764, #430 ) ;
#171 = VECTOR ( 'NONE', #325, 1000.000000000000000 ) ;
#172 = ORIENTED_EDGE ( 'NONE', *, *, #541, .T. ) ;
#173 = AXIS2_PLACEMENT_3D ( 'NONE', #1324, #361, #1119 ) ;
#174 = ADVANCED_FACE ( 'NONE', ( #303 ), #1038, .T. ) ;
#175 = AXIS2_PLACEMENT_3D ( 'NONE', #205, #529, #957 ) ;
#176 = CARTESIAN_POINT ( 'NONE',  ( 4.993750666299919594, 67.50000000000000000, -50.00624825336440438 ) ) ;
#177 = ORIENTED_EDGE ( 'NONE', *, *, #162, .T. ) ;
#178 = PLANE ( 'NONE',  #1296 ) ;
#179 = ORIENTED_EDGE ( 'NONE', *, *, #257, .F. ) ;
#180 = EDGE_CURVE ( 'NONE', #411, #1169, #737, .T. ) ;
#181 = CARTESIAN_POINT ( 'NONE',  ( 27.87898686092290035, 67.49999999999998579, 22.50000000000000000 ) ) ;
#182 = ORIENTED_EDGE ( 'NONE', *, *, #1177, .F. ) ;
#183 = DIRECTION ( 'NONE',  ( 0.7071067811865480168, -1.385375698838397857E-16, 0.7071067811865470176 ) ) ;
#184 = CARTESIAN_POINT ( 'NONE',  ( 29.00046957425429994, 67.50000000000000000, -49.99952881642030178 ) ) ;
#185 = ORIENTED_EDGE ( 'NONE', *, *, #77, .T. ) ;
#186 = VERTEX_POINT ( 'NONE', #929 ) ;
#187 = DIRECTION ( 'NONE',  ( 0.000000000000000000, -1.000000000000000000, 0.000000000000000000 ) ) ;
#188 = DIRECTION ( 'NONE',  ( -0.7071067811865470176, 0.000000000000000000, 0.7071067811865480168 ) ) ;
#189 = ORIENTED_EDGE ( 'NONE', *, *, #1332, .T. ) ;
#190 = ORIENTED_EDGE ( 'NONE', *, *, #556, .F. ) ;
#191 = VECTOR ( 'NONE', #1209, 1000.000000000000000 ) ;
#192 = DIRECTION ( 'NONE',  ( -2.556434596176347380E-15, 0.000000000000000000, 1.000000000000000000 ) ) ;
#193 = CLOSED_SHELL ( 'NONE', ( #157, #798, #853, #357, #386, #1281, #946, #39, #835, #407, #615, #772, #702, #461, #736, #549, #1340, #861, #992, #4, #378, #1064, #765, #223, #1142, #1220, #1016, #1029, #1287, #928, #1084, #574, #526, #337, #586, #1253, #174, #747, #1289, #370, #1046 ) ) ;
#194 = SHAPE_DEFINITION_REPRESENTATION ( #903, #15 ) ;
#195 = CIRCLE ( 'NONE', #605, 2.993750606696737648 ) ;
#196 = ORIENTED_EDGE ( 'NONE', *, *, #1010, .F. ) ;
#197 = DIRECTION ( 'NONE',  ( -2.049642507000289605E-16, -1.000000000000000000, 0.000000000000000000 ) ) ;
#198 = DIRECTION ( 'NONE',  ( 0.000000000000000000, -1.000000000000000000, -2.049642507000289605E-16 ) ) ;
#199 = EDGE_CURVE ( 'NONE', #210, #1054, #1352, .T. ) ;
#200 = ORIENTED_EDGE ( 'NONE', *, *, #583, .T. ) ;
#201 = ORIENTED_EDGE ( 'NONE', *, *, #1010, .T. ) ;
#202 = LINE ( 'NONE', #750, #933 ) ;
#203 = DIRECTION ( 'NONE',  ( 0.000000000000000000, -1.000000000000000000, -2.049642507000289605E-16 ) ) ;
#204 = ORIENTED_EDGE ( 'NONE', *, *, #55, .F. ) ;
#205 = CARTESIAN_POINT ( 'NONE',  ( 26.97949192431119769, -46.27508152002117470, 2.000000000000000000 ) ) ;
#206 = DIRECTION ( 'NONE',  ( -1.000000000000000000, 0.000000000000000000, 0.000000000000000000 ) ) ;
#207 = ORIENTED_EDGE ( 'NONE', *, *, #666, .T. ) ;
#208 = CARTESIAN_POINT ( 'NONE',  ( -10.30004606364517805, -46.27508152002117470, 3.837735164696272960 ) ) ;
#209 = DIRECTION ( 'NONE',  ( 0.7071067811865470176, 1.449316115708101576E-16, -0.7071067811865480168 ) ) ;
#210 = VERTEX_POINT ( 'NONE', #78 ) ;
#211 = DIRECTION ( 'NONE',  ( -0.7071067811865480168, 0.000000000000000000, 0.7071067811865470176 ) ) ;
#212 = DIRECTION ( 'NONE',  ( -0.000000000000000000, 1.000000000000000000, -0.000000000000000000 ) ) ;
#213 = VERTEX_POINT ( 'NONE', #624 ) ;
#214 = ORIENTED_EDGE ( 'NONE', *, *, #870, .T. ) ;
#215 = CARTESIAN_POINT ( 'NONE',  ( 2.000000059604639002, -46.27508152002117470, 6.028599619816087634E-17 ) ) ;
#216 = EDGE_CURVE ( 'NONE', #1145, #488, #1295, .T. ) ;
#217 = AXIS2_PLACEMENT_3D ( 'NONE', #777, #467, #46 ) ;
#218 = LINE ( 'NONE', #1271, #1208 ) ;
#219 = CARTESIAN_POINT ( 'NONE',  ( 28.99991904905738593, 67.49999999999998579, 14.30799999999999983 ) ) ;
#220 = VERTEX_POINT ( 'NONE', #936 ) ;
#221 = CARTESIAN_POINT ( 'NONE',  ( 28.99991904905739659, -46.27508152002117470, 9.307999999999994500 ) ) ;
#222 =( NAMED_UNIT ( * ) PLANE_ANGLE_UNIT ( ) SI_UNIT ( $, .RADIAN. ) );
#223 = ADVANCED_FACE ( 'NONE', ( #92 ), #516, .T. ) ;
#224 = CARTESIAN_POINT ( 'NONE',  ( 21.65395952452867334, -46.27508152002117470, 21.65395952452870532 ) ) ;
#225 = EDGE_CURVE ( 'NONE', #419, #613, #670, .T. ) ;
#226 = CARTESIAN_POINT ( 'NONE',  ( -10.29999986576284954, -46.27508152002117470, -39.13979815003389717 ) ) ;
#227 = VERTEX_POINT ( 'NONE', #1174 ) ;
#228 = CYLINDRICAL_SURFACE ( 'NONE', #915, 8.000470043640850903 ) ;
#229 = CARTESIAN_POINT ( 'NONE',  ( 36.29667966274204360, 67.50000000000000000, 3.854727108453919637 ) ) ;
#230 = LINE ( 'NONE', #1070, #171 ) ;
#231 = EDGE_CURVE ( 'NONE', #1091, #1047, #1167, .T. ) ;
#232 = EDGE_LOOP ( 'NONE', ( #64, #406, #729, #1152 ) ) ;
#233 = ORIENTED_EDGE ( 'NONE', *, *, #1000, .T. ) ;
#234 = PRODUCT_DEFINITION_FORMATION_WITH_SPECIFIED_SOURCE ( 'ANY', '', #1110, .NOT_KNOWN. ) ;
#235 = LINE ( 'NONE', #343, #581 ) ;
#236 = CARTESIAN_POINT ( 'NONE',  ( 2.000000059604639890, 67.50000000000000000, -40.79828314055790628 ) ) ;
#237 = VECTOR ( 'NONE', #1060, 1000.000000000000114 ) ;
#238 = AXIS2_PLACEMENT_3D ( 'NONE', #1008, #366, #345 ) ;
#239 = CARTESIAN_POINT ( 'NONE',  ( -2.999919049057417908, -46.27508152002117470, 14.30799999999999805 ) ) ;
#240 = EDGE_CURVE ( 'NONE', #782, #1310, #1188, .T. ) ;
#241 = ORIENTED_EDGE ( 'NONE', *, *, #312, .T. ) ;
#242 = ORIENTED_EDGE ( 'NONE', *, *, #123, .T. ) ;
#243 = DIRECTION ( 'NONE',  ( 0.000000000000000000, -1.000000000000000000, -2.049642507000289605E-16 ) ) ;
#244 = DIRECTION ( 'NONE',  ( 0.000000000000000000, -1.000000000000000000, -2.049642507000289605E-16 ) ) ;
#245 = DIRECTION ( 'NONE',  ( -1.000000000000000000, -1.606111199752451538E-31, 7.888609052210119806E-31 ) ) ;
#246 = SURFACE_STYLE_FILL_AREA ( #814 ) ;
#247 = EDGE_CURVE ( 'NONE', #812, #1354, #914, .T. ) ;
#248 = EDGE_LOOP ( 'NONE', ( #418, #857, #839, #405 ) ) ;
#249 = LINE ( 'NONE', #684, #560 ) ;
#250 = EDGE_CURVE ( 'NONE', #287, #1126, #746, .T. ) ;
#251 = DIRECTION ( 'NONE',  ( 8.673617379884037444E-16, 0.000000000000000000, 1.000000000000000000 ) ) ;
#252 = LINE ( 'NONE', #905, #847 ) ;
#253 = CARTESIAN_POINT ( 'NONE',  ( -10.29999966807631040, -46.27508152002117470, -44.50000625979501478 ) ) ;
#254 = DIRECTION ( 'NONE',  ( -9.690049268019630847E-15, 0.000000000000000000, 1.000000000000000000 ) ) ;
#255 = ORIENTED_EDGE ( 'NONE', *, *, #709, .F. ) ;
#256 = FACE_OUTER_BOUND ( 'NONE', #271, .T. ) ;
#257 = EDGE_CURVE ( 'NONE', #1342, #744, #1356, .T. ) ;
#258 = DIRECTION ( 'NONE',  ( 9.252072345184710225E-32, -1.000000000000000000, -2.049642507000289605E-16 ) ) ;
#259 = CARTESIAN_POINT ( 'NONE',  ( -3.000000044703459601, 67.49999999999998579, 9.307919004353927050 ) ) ;
#260 = DIRECTION ( 'NONE',  ( 0.000000000000000000, -1.000000000000000000, 0.000000000000000000 ) ) ;
#261 = AXIS2_PLACEMENT_3D ( 'NONE', #1370, #316, #436 ) ;
#262 = ORIENTED_EDGE ( 'NONE', *, *, #856, .F. ) ;
#263 = AXIS2_PLACEMENT_3D ( 'NONE', #320, #1273, #101 ) ;
#264 = VECTOR ( 'NONE', #735, 1000.000000000000000 ) ;
#265 = VERTEX_POINT ( 'NONE', #542 ) ;
#266 = CARTESIAN_POINT ( 'NONE',  ( -10.30004479095754988, -46.27508152002117470, -1.044421891367245627E-05 ) ) ;
#267 = EDGE_CURVE ( 'NONE', #138, #1091, #754, .T. ) ;
#268 = ORIENTED_EDGE ( 'NONE', *, *, #634, .T. ) ;
#269 = CARTESIAN_POINT ( 'NONE',  ( 2.000000059604649660, 87.50000000000000000, -50.00625122375109299 ) ) ;
#270 = CARTESIAN_POINT ( 'NONE',  ( 0.1920809509425960016, 67.49999999999998579, 17.49999999999999645 ) ) ;
#271 = EDGE_LOOP ( 'NONE', ( #1231, #644, #953, #545 ) ) ;
#272 = DIRECTION ( 'NONE',  ( -5.548947959195800427E-16, 0.000000000000000000, -1.000000000000000000 ) ) ;
#273 = LINE ( 'NONE', #515, #493 ) ;
#274 = CARTESIAN_POINT ( 'NONE',  ( 34.00000043213349699, 87.50000000000000000, 16.37898642878939981 ) ) ;
#275 = CARTESIAN_POINT ( 'NONE',  ( -2.999999940394989739, 67.50000000000000000, -44.49999885761410212 ) ) ;
#276 = EDGE_CURVE ( 'NONE', #1128, #138, #1280, .T. ) ;
#277 = ORIENTED_EDGE ( 'NONE', *, *, #887, .T. ) ;
#278 = FACE_OUTER_BOUND ( 'NONE', #279, .T. ) ;
#279 = EDGE_LOOP ( 'NONE', ( #1137, #757, #657, #976, #201, #42, #163, #185, #487, #241, #207, #1099, #505, #566, #952, #539, #1172 ) ) ;
#280 = DIRECTION ( 'NONE',  ( 0.000000000000000000, -1.000000000000000000, 0.000000000000000000 ) ) ;
#281 = VECTOR ( 'NONE', #1088, 1000.000000000000000 ) ;
#282 = LINE ( 'NONE', #1258, #1381 ) ;
#283 = EDGE_CURVE ( 'NONE', #1268, #301, #230, .T. ) ;
#284 = VECTOR ( 'NONE', #703, 1000.000000000000000 ) ;
#285 = ORIENTED_EDGE ( 'NONE', *, *, #518, .T. ) ;
#286 = VECTOR ( 'NONE', #295, 1000.000000000000000 ) ;
#287 = VERTEX_POINT ( 'NONE', #219 ) ;
#288 = LINE ( 'NONE', #832, #846 ) ;
#289 = ORIENTED_EDGE ( 'NONE', *, *, #346, .T. ) ;
#290 = EDGE_CURVE ( 'NONE', #314, #95, #1286, .T. ) ;
#291 = DIRECTION ( 'NONE',  ( 0.000000000000000000, 0.000000000000000000, -1.000000000000000000 ) ) ;
#292 = EDGE_CURVE ( 'NONE', #1175, #998, #550, .T. ) ;
#293 = CARTESIAN_POINT ( 'NONE',  ( 31.29667966274205071, 67.49999999999998579, 3.500000000000016875 ) ) ;
#294 = ORIENTED_EDGE ( 'NONE', *, *, #967, .F. ) ;
#295 = DIRECTION ( 'NONE',  ( 0.000000000000000000, -1.000000000000000000, 0.000000000000000000 ) ) ;
#296 = CARTESIAN_POINT ( 'NONE',  ( -1.309513680005120140, 77.50000000000000000, -39.49999714346280655 ) ) ;
#297 = ORIENTED_EDGE ( 'NONE', *, *, #49, .T. ) ;
#298 = ORIENTED_EDGE ( 'NONE', *, *, #685, .F. ) ;
#299 = CARTESIAN_POINT ( 'NONE',  ( 31.29999869018799785, 77.50000000000000000, -39.50000000000000000 ) ) ;
#300 = EDGE_CURVE ( 'NONE', #892, #816, #760, .T. ) ;
#301 = VERTEX_POINT ( 'NONE', #439 ) ;
#302 = DIRECTION ( 'NONE',  ( 1.013997426771979827E-06, 0.000000000000000000, -0.9999999999994859667 ) ) ;
#303 = FACE_OUTER_BOUND ( 'NONE', #932, .T. ) ;
#304 = ORIENTED_EDGE ( 'NONE', *, *, #887, .F. ) ;
#305 = VECTOR ( 'NONE', #710, 1000.000000000000000 ) ;
#306 = VECTOR ( 'NONE', #244, 1000.000000000000000 ) ;
#307 = CARTESIAN_POINT ( 'NONE',  ( 29.00000043213350054, 87.50000000000000000, 6.020888629372611156 ) ) ;
#308 = AXIS2_PLACEMENT_3D ( 'NONE', #701, #675, #156 ) ;
#309 = VECTOR ( 'NONE', #311, 1000.000000000000000 ) ;
#310 = ORIENTED_EDGE ( 'NONE', *, *, #1199, .T. ) ;
#311 = DIRECTION ( 'NONE',  ( 0.7071067811865480168, 0.000000000000000000, 0.7071067811865470176 ) ) ;
#312 = EDGE_CURVE ( 'NONE', #587, #840, #375, .T. ) ;
#313 = DIRECTION ( 'NONE',  ( -1.000000000000000000, -1.606111199752451538E-31, 7.888609052210119806E-31 ) ) ;
#314 = VERTEX_POINT ( 'NONE', #334 ) ;
#315 = ORIENTED_EDGE ( 'NONE', *, *, #1168, .F. ) ;
#316 = DIRECTION ( 'NONE',  ( 1.000000000000000000, 2.049642507000289605E-16, 0.000000000000000000 ) ) ;
#317 = CARTESIAN_POINT ( 'NONE',  ( 0.1920809509425960016, 87.50000000000000000, 17.50000000000000000 ) ) ;
#318 = EDGE_LOOP ( 'NONE', ( #56, #1062, #50, #494, #105, #262, #619, #382, #322, #834, #67, #815, #506, #1176, #714, #761, #1018 ) ) ;
#319 = CARTESIAN_POINT ( 'NONE',  ( 36.29667966274204360, -46.27508152002117470, 3.854727108453919637 ) ) ;
#320 = CARTESIAN_POINT ( 'NONE',  ( 4.993750666299919594, -46.27508152002117470, -50.00624825336440438 ) ) ;
#321 = EDGE_CURVE ( 'NONE', #341, #1085, #665, .T. ) ;
#322 = ORIENTED_EDGE ( 'NONE', *, *, #593, .F. ) ;
#323 = CARTESIAN_POINT ( 'NONE',  ( 28.99991904905740014, -46.27508152002117470, 14.30799999999999983 ) ) ;
#324 = CARTESIAN_POINT ( 'NONE',  ( 24.00046957425420047, 67.50000000000000000, -40.79785669972180528 ) ) ;
#325 = DIRECTION ( 'NONE',  ( 0.000000000000000000, -1.000000000000000000, -2.049642507000289605E-16 ) ) ;
#326 = ORIENTED_EDGE ( 'NONE', *, *, #1315, .F. ) ;
#327 = EDGE_CURVE ( 'NONE', #1114, #1091, #433, .T. ) ;
#328 = DIRECTION ( 'NONE',  ( -2.049642507000289605E-16, -1.000000000000000000, 0.000000000000000000 ) ) ;
#329 = VECTOR ( 'NONE', #1283, 1000.000000000000000 ) ;
#330 = EDGE_CURVE ( 'NONE', #314, #930, #1181, .T. ) ;
#331 = VECTOR ( 'NONE', #313, 1000.000000000000000 ) ;
#332 = CARTESIAN_POINT ( 'NONE',  ( -3.000000044703459601, 67.49999999999998579, 14.30791900435389863 ) ) ;
#333 = VECTOR ( 'NONE', #576, 1000.000000000000000 ) ;
#334 = CARTESIAN_POINT ( 'NONE',  ( 31.29667966274210400, 67.50000000000000000, -39.50000000000000000 ) ) ;
#335 = ORIENTED_EDGE ( 'NONE', *, *, #726, .F. ) ;
#336 = PLANE ( 'NONE',  #891 ) ;
#337 = ADVANCED_FACE ( 'NONE', ( #656 ), #854, .F. ) ;
#338 = CARTESIAN_POINT ( 'NONE',  ( 25.80791904905739997, 67.49999999999998579, 17.49999999999999645 ) ) ;
#339 = UNCERTAINTY_MEASURE_WITH_UNIT (LENGTH_MEASURE( 1.000000000000000082E-05 ), #809, 'distance_accuracy_value', 'NONE');
#340 = CARTESIAN_POINT ( 'NONE',  ( -0.9794919243112131246, 67.49999999999998579, 2.000000000000000000 ) ) ;
#341 = VERTEX_POINT ( 'NONE', #1078 ) ;
#342 = ORIENTED_EDGE ( 'NONE', *, *, #756, .T. ) ;
#343 = CARTESIAN_POINT ( 'NONE',  ( 34.00000043213349699, -46.27508152002117470, 0.000000000000000000 ) ) ;
#344 = CARTESIAN_POINT ( 'NONE',  ( -10.29999986576284954, -46.27508152002117470, -39.13979815003389717 ) ) ;
#345 = DIRECTION ( 'NONE',  ( 0.000000000000000000, -1.000000000000000000, 0.000000000000000000 ) ) ;
#346 = EDGE_CURVE ( 'NONE', #73, #1145, #117, .T. ) ;
#347 = CARTESIAN_POINT ( 'NONE',  ( 20.99999953061340108, 77.50000000000000000, -52.99999886006120420 ) ) ;
#348 = ORIENTED_EDGE ( 'NONE', *, *, #1261, .F. ) ;
#349 = EDGE_LOOP ( 'NONE', ( #1040, #388, #390, #557 ) ) ;
#350 = LINE ( 'NONE', #1013, #981 ) ;
#351 = VECTOR ( 'NONE', #849, 1000.000000000000000 ) ;
#352 = PLANE ( 'NONE',  #1225 ) ;
#353 = VECTOR ( 'NONE', #1089, 1000.000000000000000 ) ;
#354 = LINE ( 'NONE', #253, #1205 ) ;
#355 = VECTOR ( 'NONE', #1187, 1000.000000000000114 ) ;
#356 = LINE ( 'NONE', #1224, #510 ) ;
#357 = ADVANCED_FACE ( 'NONE', ( #988 ), #768, .F. ) ;
#358 = ORIENTED_EDGE ( 'NONE', *, *, #148, .F. ) ;
#359 = PLANE ( 'NONE',  #650 ) ;
#360 = FACE_OUTER_BOUND ( 'NONE', #572, .T. ) ;
#361 = DIRECTION ( 'NONE',  ( 0.000000000000000000, 0.000000000000000000, 1.000000000000000000 ) ) ;
#362 = DIRECTION ( 'NONE',  ( -7.888609052210119806E-31, 0.000000000000000000, -1.000000000000000000 ) ) ;
#363 = EDGE_CURVE ( 'NONE', #8, #210, #559, .T. ) ;
#364 = VERTEX_POINT ( 'NONE', #239 ) ;
#365 = CARTESIAN_POINT ( 'NONE',  ( 29.00046957425429994, 77.50000000000000000, -49.99952881642030178 ) ) ;
#366 = DIRECTION ( 'NONE',  ( 1.216761526407840019E-15, 0.000000000000000000, -1.000000000000000000 ) ) ;
#367 = FACE_OUTER_BOUND ( 'NONE', #57, .T. ) ;
#368 = CARTESIAN_POINT ( 'NONE',  ( 24.00046957425420047, 87.50000000000000000, -40.79785669972180528 ) ) ;
#369 = ORIENTED_EDGE ( 'NONE', *, *, #180, .T. ) ;
#370 = ADVANCED_FACE ( 'NONE', ( #1009 ), #800, .T. ) ;
#371 = CARTESIAN_POINT ( 'NONE',  ( -2.999999940394240117, 67.50000000000000000, -50.00625469643669874 ) ) ;
#372 = CARTESIAN_POINT ( 'NONE',  ( 34.00000043213349699, 67.49999999999998579, 16.37898642878939981 ) ) ;
#373 = CIRCLE ( 'NONE', #1270, 9.500000000000000000 ) ;
#374 = PRESENTATION_STYLE_ASSIGNMENT (( #795 ) ) ;
#375 = CIRCLE ( 'NONE', #263, 7.993750606696749195 ) ;
#376 = VECTOR ( 'NONE', #183, 1000.000000000000000 ) ;
#377 = VERTEX_POINT ( 'NONE', #372 ) ;
#378 = ADVANCED_FACE ( 'NONE', ( #1210 ), #1308, .F. ) ;
#379 = ORIENTED_EDGE ( 'NONE', *, *, #283, .F. ) ;
#380 = CARTESIAN_POINT ( 'NONE',  ( 20.99999953061340108, 67.50000000000000000, -49.99952881642030178 ) ) ;
#381 = LINE ( 'NONE', #1325, #470 ) ;
#382 = ORIENTED_EDGE ( 'NONE', *, *, #541, .F. ) ;
#383 = DIRECTION ( 'NONE',  ( 1.000000000000000000, 0.000000000000000000, 9.250409173207264408E-15 ) ) ;
#384 = ORIENTED_EDGE ( 'NONE', *, *, #1305, .F. ) ;
#385 = LINE ( 'NONE', #1052, #82 ) ;
#386 = ADVANCED_FACE ( 'NONE', ( #367 ), #881, .T. ) ;
#387 = LINE ( 'NONE', #184, #1023 ) ;
#388 = ORIENTED_EDGE ( 'NONE', *, *, #116, .T. ) ;
#389 = CARTESIAN_POINT ( 'NONE',  ( 29.00000043213350054, -46.27508152002117470, 9.307918616923929633 ) ) ;
#390 = ORIENTED_EDGE ( 'NONE', *, *, #921, .T. ) ;
#391 = CARTESIAN_POINT ( 'NONE',  ( -2.999999940394234343, -46.27508152002117470, -50.00625469643669874 ) ) ;
#392 = VECTOR ( 'NONE', #1065, 1000.000000000000000 ) ;
#393 = EDGE_CURVE ( 'NONE', #1148, #630, #1329, .T. ) ;
#394 = CARTESIAN_POINT ( 'NONE',  ( 24.00046957425429994, 87.50000000000000000, -49.99952881642030178 ) ) ;
#395 = VECTOR ( 'NONE', #1115, 1000.000000000000000 ) ;
#396 = VECTOR ( 'NONE', #523, 1000.000000000000000 ) ;
#397 = EDGE_CURVE ( 'NONE', #812, #220, #1198, .T. ) ;
#398 = EDGE_LOOP ( 'NONE', ( #855, #1262, #1275, #1297 ) ) ;
#399 = VECTOR ( 'NONE', #681, 1000.000000000000000 ) ;
#400 = LINE ( 'NONE', #1254, #19 ) ;
#401 = DIRECTION ( 'NONE',  ( 0.000000000000000000, -0.000000000000000000, -1.000000000000000000 ) ) ;
#402 = ORIENTED_EDGE ( 'NONE', *, *, #1353, .F. ) ;
#403 = LINE ( 'NONE', #723, #264 ) ;
#404 =( NAMED_UNIT ( * ) SI_UNIT ( $, .STERADIAN. ) SOLID_ANGLE_UNIT ( ) );
#405 = ORIENTED_EDGE ( 'NONE', *, *, #312, .F. ) ;
#406 = ORIENTED_EDGE ( 'NONE', *, *, #434, .T. ) ;
#407 = ADVANCED_FACE ( 'NONE', ( #570 ), #787, .T. ) ;
#408 = VERTEX_POINT ( 'NONE', #1229 ) ;
#409 = DIRECTION ( 'NONE',  ( 0.000000000000000000, 0.000000000000000000, -1.000000000000000000 ) ) ;
#410 = FACE_OUTER_BOUND ( 'NONE', #821, .T. ) ;
#411 = VERTEX_POINT ( 'NONE', #911 ) ;
#412 = ORIENTED_EDGE ( 'NONE', *, *, #654, .T. ) ;
#413 = EDGE_CURVE ( 'NONE', #8, #595, #1015, .T. ) ;
#414 = CARTESIAN_POINT ( 'NONE',  ( 36.29667966274204360, 67.50000000000000000, -0.000000000000000000 ) ) ;
#415 = VERTEX_POINT ( 'NONE', #58 ) ;
#416 = LINE ( 'NONE', #338, #674 ) ;
#417 = DIRECTION ( 'NONE',  ( -9.690049268019630847E-15, -1.959217102279369698E-16, 1.000000000000000000 ) ) ;
#418 = ORIENTED_EDGE ( 'NONE', *, *, #538, .F. ) ;
#419 = VERTEX_POINT ( 'NONE', #471 ) ;
#420 = VECTOR ( 'NONE', #5, 1000.000000000000000 ) ;
#421 = VECTOR ( 'NONE', #880, 1000.000000000000114 ) ;
#422 = AXIS2_PLACEMENT_3D ( 'NONE', #347, #1334, #136 ) ;
#423 = DIRECTION ( 'NONE',  ( 0.000000000000000000, -1.000000000000000000, -2.049642507000289605E-16 ) ) ;
#424 = AXIS2_PLACEMENT_3D ( 'NONE', #426, #1285, #1382 ) ;
#425 = ORIENTED_EDGE ( 'NONE', *, *, #1192, .T. ) ;
#426 = CARTESIAN_POINT ( 'NONE',  ( 26.97949192431119769, 77.50000000000000000, 2.000000000000000000 ) ) ;
#427 = EDGE_CURVE ( 'NONE', #1385, #95, #888, .T. ) ;
#428 = DIRECTION ( 'NONE',  ( -1.013997426771979615E-06, 0.000000000000000000, 0.9999999999994858557 ) ) ;
#429 = VERTEX_POINT ( 'NONE', #687 ) ;
#430 = DIRECTION ( 'NONE',  ( 0.000000000000000000, -1.000000000000000000, -2.049642507000289605E-16 ) ) ;
#431 = CARTESIAN_POINT ( 'NONE',  ( 29.00046957425420047, 67.50000000000000000, -44.50000000000000000 ) ) ;
#432 = CARTESIAN_POINT ( 'NONE',  ( -1.361444568978859904, 67.50000000000000000, -44.49972745446660127 ) ) ;
#433 = LINE ( 'NONE', #20, #717 ) ;
#434 = EDGE_CURVE ( 'NONE', #213, #812, #794, .T. ) ;
#435 = ORIENTED_EDGE ( 'NONE', *, *, #292, .F. ) ;
#436 = DIRECTION ( 'NONE',  ( -2.049642507000289605E-16, 1.000000000000000000, 0.000000000000000000 ) ) ;
#437 = DIRECTION ( 'NONE',  ( 0.000000000000000000, 0.000000000000000000, -1.000000000000000000 ) ) ;
#438 = DIRECTION ( 'NONE',  ( -0.7071067811865480168, 0.000000000000000000, 0.7071067811865470176 ) ) ;
#439 = CARTESIAN_POINT ( 'NONE',  ( 25.80791904905739642, -46.27508152002117470, 17.49999999999999289 ) ) ;
#440 = ORIENTED_EDGE ( 'NONE', *, *, #231, .F. ) ;
#441 = EDGE_CURVE ( 'NONE', #980, #186, #142, .T. ) ;
#442 = CARTESIAN_POINT ( 'NONE',  ( 24.00046957425420047, 77.50000000000000000, -40.79785669972180528 ) ) ;
#443 = AXIS2_PLACEMENT_3D ( 'NONE', #1074, #1184, #636 ) ;
#444 = VECTOR ( 'NONE', #924, 1000.000000000000000 ) ;
#445 = LINE ( 'NONE', #332, #786 ) ;
#446 = AXIS2_PLACEMENT_3D ( 'NONE', #497, #923, #409 ) ;
#447 = CARTESIAN_POINT ( 'NONE',  ( 26.97949192431119769, -46.27508152002117470, 2.000000000000000000 ) ) ;
#448 = ORIENTED_EDGE ( 'NONE', *, *, #1379, .T. ) ;
#449 = EDGE_LOOP ( 'NONE', ( #1245, #137, #517, #294 ) ) ;
#450 = PLANE ( 'NONE',  #1113 ) ;
#451 = EDGE_CURVE ( 'NONE', #265, #144, #354, .T. ) ;
#452 = CARTESIAN_POINT ( 'NONE',  ( 2.000000059604639890, 67.50000000000000000, -50.00625122375109299 ) ) ;
#453 = PRODUCT_DEFINITION_CONTEXT ( 'detailed design', #939, 'design' ) ;
#454 = CARTESIAN_POINT ( 'NONE',  ( -5.300039553407034809, -46.27508152002117470, -5.374226468947208167E-06 ) ) ;
#455 = ORIENTED_EDGE ( 'NONE', *, *, #1168, .T. ) ;
#456 = ORIENTED_EDGE ( 'NONE', *, *, #908, .F. ) ;
#457 = DIRECTION ( 'NONE',  ( 0.000000000000000000, -1.000000000000000000, 0.000000000000000000 ) ) ;
#458 = EDGE_CURVE ( 'NONE', #1342, #1385, #161, .T. ) ;
#459 = CARTESIAN_POINT ( 'NONE',  ( 29.00000043213350054, 67.49999999999998579, 6.020888629372606715 ) ) ;
#460 = LINE ( 'NONE', #26, #191 ) ;
#461 = ADVANCED_FACE ( 'NONE', ( #898 ), #1111, .T. ) ;
#462 = DIRECTION ( 'NONE',  ( -1.216761526407840216E-15, 0.000000000000000000, 1.000000000000000000 ) ) ;
#463 = DIRECTION ( 'NONE',  ( 0.000000000000000000, -1.000000000000000000, 0.000000000000000000 ) ) ;
#464 = DIRECTION ( 'NONE',  ( 0.000000000000000000, -1.000000000000000000, -2.049642507000289605E-16 ) ) ;
#465 = ORIENTED_EDGE ( 'NONE', *, *, #140, .T. ) ;
#466 = CARTESIAN_POINT ( 'NONE',  ( -0.9794919243112131246, -46.27508152002117470, 2.000000000000000000 ) ) ;
#467 = DIRECTION ( 'NONE',  ( 1.000000000000000000, 0.000000000000000000, 0.000000000000000000 ) ) ;
#468 = AXIS2_PLACEMENT_3D ( 'NONE', #37, #885, #126 ) ;
#469 = DIRECTION ( 'NONE',  ( -1.000000000000000000, 0.000000000000000000, 0.000000000000000000 ) ) ;
#470 = VECTOR ( 'NONE', #254, 1000.000000000000000 ) ;
#471 = CARTESIAN_POINT ( 'NONE',  ( 36.29667966274204360, -46.27508152002117470, 3.854727108453919637 ) ) ;
#472 = AXIS2_PLACEMENT_3D ( 'NONE', #1149, #601, #1036 ) ;
#473 = EDGE_CURVE ( 'NONE', #980, #595, #195, .T. ) ;
#474 = LINE ( 'NONE', #1112, #284 ) ;
#475 = ORIENTED_EDGE ( 'NONE', *, *, #993, .T. ) ;
#476 = CARTESIAN_POINT ( 'NONE',  ( 25.80791904905739997, 67.49999999999998579, 12.49999999999999822 ) ) ;
#477 = FACE_OUTER_BOUND ( 'NONE', #1282, .T. ) ;
#478 = LINE ( 'NONE', #135, #1024 ) ;
#479 = CARTESIAN_POINT ( 'NONE',  ( 4.993750666299909824, 67.50000000000000000, -50.00624825336440438 ) ) ;
#480 = EDGE_CURVE ( 'NONE', #816, #641, #1343, .T. ) ;
#481 = LINE ( 'NONE', #997, #807 ) ;
#482 = ORIENTED_EDGE ( 'NONE', *, *, #870, .F. ) ;
#483 = FACE_OUTER_BOUND ( 'NONE', #755, .T. ) ;
#484 = DIRECTION ( 'NONE',  ( -1.000000000000000000, 0.000000000000000000, -3.727088734919889908E-16 ) ) ;
#485 = CARTESIAN_POINT ( 'NONE',  ( -8.000000044703460489, 67.49999999999998579, 11.37898681621939900 ) ) ;
#486 = DIRECTION ( 'NONE',  ( 1.013997426771979827E-06, 1.959217102278362422E-16, -0.9999999999994858557 ) ) ;
#487 = ORIENTED_EDGE ( 'NONE', *, *, #607, .T. ) ;
#488 = VERTEX_POINT ( 'NONE', #1138 ) ;
#489 = CARTESIAN_POINT ( 'NONE',  ( -2.999999940405907228, -46.27508152002117470, -7.364513447230794656E-13 ) ) ;
#490 = VECTOR ( 'NONE', #486, 1000.000000000000000 ) ;
#491 = VECTOR ( 'NONE', #999, 1000.000000000000000 ) ;
#492 = LINE ( 'NONE', #1317, #490 ) ;
#493 = VECTOR ( 'NONE', #708, 1000.000000000000000 ) ;
#494 = ORIENTED_EDGE ( 'NONE', *, *, #247, .F. ) ;
#495 = EDGE_CURVE ( 'NONE', #167, #186, #512, .T. ) ;
#496 = ORIENTED_EDGE ( 'NONE', *, *, #199, .F. ) ;
#497 = CARTESIAN_POINT ( 'NONE',  ( 4.993750666299909824, -46.27508152002117470, -50.00624825336440438 ) ) ;
#498 = LINE ( 'NONE', #85, #396 ) ;
#499 = ORIENTED_EDGE ( 'NONE', *, *, #225, .F. ) ;
#500 = DIRECTION ( 'NONE',  ( -8.680398282746253499E-16, 0.000000000000000000, 1.000000000000000000 ) ) ;
#501 = ORIENTED_EDGE ( 'NONE', *, *, #473, .T. ) ;
#502 = CYLINDRICAL_SURFACE ( 'NONE', #1227, 9.499999999999996447 ) ;
#503 = EDGE_CURVE ( 'NONE', #429, #1303, #1272, .T. ) ;
#504 = CARTESIAN_POINT ( 'NONE',  ( 4.993750666299909824, -46.27508152002117470, -52.99999886006114025 ) ) ;
#505 = ORIENTED_EDGE ( 'NONE', *, *, #87, .T. ) ;
#506 = ORIENTED_EDGE ( 'NONE', *, *, #116, .F. ) ;
#507 = DIRECTION ( 'NONE',  ( -0.000000000000000000, 1.000000000000000000, -0.000000000000000000 ) ) ;
#508 = EDGE_CURVE ( 'NONE', #956, #138, #611, .T. ) ;
#509 = VECTOR ( 'NONE', #863, 1000.000000000000000 ) ;
#510 = VECTOR ( 'NONE', #789, 1000.000000000000114 ) ;
#511 = VERTEX_POINT ( 'NONE', #617 ) ;
#512 = CIRCLE ( 'NONE', #446, 2.993750606696737648 ) ;
#513 = DIRECTION ( 'NONE',  ( -9.339063021444278218E-46, -1.000000000000000000, -2.049642507000289605E-16 ) ) ;
#514 = ORIENTED_EDGE ( 'NONE', *, *, #247, .T. ) ;
#515 = CARTESIAN_POINT ( 'NONE',  ( -8.000000044703460489, 87.50000000000000000, 16.37898681621939900 ) ) ;
#516 = CYLINDRICAL_SURFACE ( 'NONE', #534, 9.500000000000000000 ) ;
#517 = ORIENTED_EDGE ( 'NONE', *, *, #148, .T. ) ;
#518 = EDGE_CURVE ( 'NONE', #682, #816, #385, .T. ) ;
#519 = ORIENTED_EDGE ( 'NONE', *, *, #788, .T. ) ;
#520 = FACE_OUTER_BOUND ( 'NONE', #621, .T. ) ;
#521 = EDGE_LOOP ( 'NONE', ( #179, #83, #255, #456 ) ) ;
#522 = CARTESIAN_POINT ( 'NONE',  ( 34.00000043213349699, -46.27508152002117470, 8.400192207394651334 ) ) ;
#523 = DIRECTION ( 'NONE',  ( 0.000000000000000000, -1.000000000000000000, -2.049642507000289605E-16 ) ) ;
#524 = ORIENTED_EDGE ( 'NONE', *, *, #363, .F. ) ;
#525 = DIRECTION ( 'NONE',  ( 0.000000000000000000, -1.000000000000000000, 0.000000000000000000 ) ) ;
#526 = ADVANCED_FACE ( 'NONE', ( #1251 ), #927, .F. ) ;
#527 = DIRECTION ( 'NONE',  ( 0.000000000000000000, -1.000000000000000000, 0.000000000000000000 ) ) ;
#528 = ORIENTED_EDGE ( 'NONE', *, *, #1131, .F. ) ;
#529 = DIRECTION ( 'NONE',  ( -0.000000000000000000, 1.000000000000000000, -0.000000000000000000 ) ) ;
#530 = DIRECTION ( 'NONE',  ( 0.9999999999994859667, -0.000000000000000000, 1.013997426771979827E-06 ) ) ;
#531 = ORIENTED_EDGE ( 'NONE', *, *, #1037, .T. ) ;
#532 = ORIENTED_EDGE ( 'NONE', *, *, #123, .F. ) ;
#533 = CIRCLE ( 'NONE', #1293, 9.500000000000000000 ) ;
#534 = AXIS2_PLACEMENT_3D ( 'NONE', #943, #845, #1027 ) ;
#535 = CARTESIAN_POINT ( 'NONE',  ( -3.116000575622997192E-29, -46.27508152002117470, -39.50000000000000000 ) ) ;
#536 = AXIS2_PLACEMENT_3D ( 'NONE', #995, #1124, #462 ) ;
#537 = VECTOR ( 'NONE', #659, 1000.000000000000000 ) ;
#538 = EDGE_CURVE ( 'NONE', #1260, #587, #1360, .T. ) ;
#539 = ORIENTED_EDGE ( 'NONE', *, *, #225, .T. ) ;
#540 = CARTESIAN_POINT ( 'NONE',  ( 4.993750666299909824, 67.50000000000000000, -57.99999886006119709 ) ) ;
#541 = EDGE_CURVE ( 'NONE', #377, #956, #934, .T. ) ;
#542 = CARTESIAN_POINT ( 'NONE',  ( -10.29999966807631040, -46.27508152002117470, -44.50000625979501478 ) ) ;
#543 = LINE ( 'NONE', #274, #762 ) ;
#544 = ORIENTED_EDGE ( 'NONE', *, *, #1147, .F. ) ;
#545 = ORIENTED_EDGE ( 'NONE', *, *, #607, .F. ) ;
#546 = CARTESIAN_POINT ( 'NONE',  ( 4.993750666299909824, -46.27508152002117470, -57.99999886006118999 ) ) ;
#547 =( NAMED_UNIT ( * ) SI_UNIT ( $, .STERADIAN. ) SOLID_ANGLE_UNIT ( ) );
#548 = CARTESIAN_POINT ( 'NONE',  ( 25.80791904905739997, 77.50000000000000000, 17.50000000000000000 ) ) ;
#549 = ADVANCED_FACE ( 'NONE', ( #1241 ), #1143, .T. ) ;
#550 = LINE ( 'NONE', #974, #935 ) ;
#551 = ORIENTED_EDGE ( 'NONE', *, *, #132, .T. ) ;
#552 = CARTESIAN_POINT ( 'NONE',  ( 4.993750666299919594, 77.50000000000000000, -50.00624825336440438 ) ) ;
#553 = PRODUCT_CONTEXT ( 'NONE', #996, 'mechanical' ) ;
#554 = CYLINDRICAL_SURFACE ( 'NONE', #424, 4.499999999999999112 ) ;
#555 = DIRECTION ( 'NONE',  ( 1.013997426771979615E-06, 0.000000000000000000, -0.9999999999994858557 ) ) ;
#556 = EDGE_CURVE ( 'NONE', #1169, #668, #622, .T. ) ;
#557 = ORIENTED_EDGE ( 'NONE', *, *, #87, .F. ) ;
#558 = FACE_OUTER_BOUND ( 'NONE', #318, .T. ) ;
#559 = CIRCLE ( 'NONE', #1045, 3.000470043640853124 ) ;
#560 = VECTOR ( 'NONE', #589, 1000.000000000000000 ) ;
#561 = VECTOR ( 'NONE', #428, 1000.000000000000114 ) ;
#562 = CARTESIAN_POINT ( 'NONE',  ( -0.9794919243112151230, 67.49999999999998579, 1.999999999999997780 ) ) ;
#563 = CARTESIAN_POINT ( 'NONE',  ( 20.99999953061340108, -46.27508152002117470, -49.99952881642030178 ) ) ;
#564 = CIRCLE ( 'NONE', #62, 3.000470043640853124 ) ;
#565 = CARTESIAN_POINT ( 'NONE',  ( 31.29999869018799785, 67.50000000000000000, -39.50000000000000000 ) ) ;
#566 = ORIENTED_EDGE ( 'NONE', *, *, #1147, .T. ) ;
#567 = ORIENTED_EDGE ( 'NONE', *, *, #250, .F. ) ;
#568 = CARTESIAN_POINT ( 'NONE',  ( -3.000000044703459601, -46.27508152002117470, 2.366582750927847724E-30 ) ) ;
#569 = LINE ( 'NONE', #38, #671 ) ;
#570 = FACE_OUTER_BOUND ( 'NONE', #732, .T. ) ;
#571 = CYLINDRICAL_SURFACE ( 'NONE', #627, 4.999999999999999112 ) ;
#572 = EDGE_LOOP ( 'NONE', ( #44, #1338, #133, #118 ) ) ;
#573 = DIRECTION ( 'NONE',  ( 7.888609052210119806E-31, 0.000000000000000000, 1.000000000000000000 ) ) ;
#574 = ADVANCED_FACE ( 'NONE', ( #1042 ), #178, .T. ) ;
#575 = CARTESIAN_POINT ( 'NONE',  ( 5.414588792514891754E-14, -46.27508152002117470, -44.50000000000002842 ) ) ;
#576 = DIRECTION ( 'NONE',  ( 0.000000000000000000, -1.000000000000000000, -2.049642507000289605E-16 ) ) ;
#577 = ORIENTED_EDGE ( 'NONE', *, *, #427, .T. ) ;
#578 = ORIENTED_EDGE ( 'NONE', *, *, #162, .F. ) ;
#579 = PLANE ( 'NONE',  #1246 ) ;
#580 = DIRECTION ( 'NONE',  ( -1.000000000000000000, -1.616882843451709956E-46, 7.888609052210119806E-31 ) ) ;
#581 = VECTOR ( 'NONE', #36, 1000.000000000000000 ) ;
#582 = PLANE ( 'NONE',  #238 ) ;
#583 = EDGE_CURVE ( 'NONE', #213, #1047, #273, .T. ) ;
#584 = VECTOR ( 'NONE', #773, 1000.000000000000000 ) ;
#585 = CARTESIAN_POINT ( 'NONE',  ( 28.99991904905740014, 77.50000000000000000, 9.307999999999999829 ) ) ;
#586 = ADVANCED_FACE ( 'NONE', ( #942 ), #502, .T. ) ;
#587 = VERTEX_POINT ( 'NONE', #391 ) ;
#588 = ORIENTED_EDGE ( 'NONE', *, *, #1261, .T. ) ;
#589 = DIRECTION ( 'NONE',  ( 0.000000000000000000, 0.000000000000000000, 1.000000000000000000 ) ) ;
#590 = CARTESIAN_POINT ( 'NONE',  ( 20.99999953061340108, -46.27508152002117470, -57.99999886006115446 ) ) ;
#591 = DIRECTION ( 'NONE',  ( 0.000000000000000000, -1.000000000000000000, -2.049642507000289605E-16 ) ) ;
#592 = CARTESIAN_POINT ( 'NONE',  ( 27.36144456897879707, 77.50000000000000000, -44.49972745446670075 ) ) ;
#593 = EDGE_CURVE ( 'NONE', #970, #377, #403, .T. ) ;
#594 = EDGE_LOOP ( 'NONE', ( #1364, #781, #848, #1218 ) ) ;
#595 = VERTEX_POINT ( 'NONE', #1129 ) ;
#596 = DIRECTION ( 'NONE',  ( 0.000000000000000000, 0.000000000000000000, 1.000000000000000000 ) ) ;
#597 = EDGE_CURVE ( 'NONE', #287, #962, #831, .T. ) ;
#598 = ORIENTED_EDGE ( 'NONE', *, *, #164, .F. ) ;
#599 = DIRECTION ( 'NONE',  ( 1.606111199752450005E-31, -1.000000000000000000, -1.959217102279369698E-16 ) ) ;
#600 = AXIS2_PLACEMENT_3D ( 'NONE', #1215, #1322, #1102 ) ;
#601 = DIRECTION ( 'NONE',  ( -7.888551657556060360E-31, 2.049642507000289605E-16, -1.000000000000000000 ) ) ;
#602 = MECHANICAL_DESIGN_GEOMETRIC_PRESENTATION_REPRESENTATION (  '', ( #1248 ), #960 ) ;
#603 = CIRCLE ( 'NONE', #600, 4.999999999999997335 ) ;
#604 = CARTESIAN_POINT ( 'NONE',  ( 20.99999953061340108, -46.27508152002117470, -52.99999886006120420 ) ) ;
#605 = AXIS2_PLACEMENT_3D ( 'NONE', #479, #1223, #1031 ) ;
#606 = EDGE_LOOP ( 'NONE', ( #1033, #633, #435, #544 ) ) ;
#607 = EDGE_CURVE ( 'NONE', #1017, #587, #631, .T. ) ;
#608 = EDGE_CURVE ( 'NONE', #1054, #112, #564, .T. ) ;
#609 = CARTESIAN_POINT ( 'NONE',  ( -1.361444568978859904, -46.27508152002117470, -44.49972745446660127 ) ) ;
#610 = ORIENTED_EDGE ( 'NONE', *, *, #993, .F. ) ;
#611 = LINE ( 'NONE', #1263, #286 ) ;
#612 = CARTESIAN_POINT ( 'NONE',  ( -5.300000207452180589, 67.50000000000000000, -29.87500064737360006 ) ) ;
#613 = VERTEX_POINT ( 'NONE', #522 ) ;
#614 = PLANE ( 'NONE',  #689 ) ;
#615 = ADVANCED_FACE ( 'NONE', ( #852 ), #554, .F. ) ;
#616 = ORIENTED_EDGE ( 'NONE', *, *, #756, .F. ) ;
#617 = CARTESIAN_POINT ( 'NONE',  ( -5.299999865763017404, 67.50000000000000000, -39.13979308004162050 ) ) ;
#618 = DIRECTION ( 'NONE',  ( -7.888609052210119806E-31, 1.959217102279369698E-16, -1.000000000000000000 ) ) ;
#619 = ORIENTED_EDGE ( 'NONE', *, *, #826, .F. ) ;
#620 = DIRECTION ( 'NONE',  ( -0.9999999999994858557, 0.000000000000000000, -1.013997425894569737E-06 ) ) ;
#621 = EDGE_LOOP ( 'NONE', ( #189, #297, #1094, #1141 ) ) ;
#622 = LINE ( 'NONE', #1025, #376 ) ;
#623 = AXIS2_PLACEMENT_3D ( 'NONE', #955, #209, #203 ) ;
#624 = CARTESIAN_POINT ( 'NONE',  ( -8.000000044703460489, 67.49999999999998579, 16.37898681621939900 ) ) ;
#625 = ORIENTED_EDGE ( 'NONE', *, *, #770, .T. ) ;
#626 = VECTOR ( 'NONE', #673, 1000.000000000000000 ) ;
#627 = AXIS2_PLACEMENT_3D ( 'NONE', #592, #1011, #1105 ) ;
#628 = VERTEX_POINT ( 'NONE', #18 ) ;
#629 = PLANE ( 'NONE',  #170 ) ;
#630 = VERTEX_POINT ( 'NONE', #1279 ) ;
#631 = LINE ( 'NONE', #489, #1161 ) ;
#632 = DIRECTION ( 'NONE',  ( 8.673617379884035472E-16, 0.000000000000000000, -1.000000000000000000 ) ) ;
#633 = ORIENTED_EDGE ( 'NONE', *, *, #1021, .T. ) ;
#634 = EDGE_CURVE ( 'NONE', #419, #720, #645, .T. ) ;
#635 = EDGE_LOOP ( 'NONE', ( #242, #700, #1213, #528 ) ) ;
#636 = DIRECTION ( 'NONE',  ( -3.014299720074920036E-17, 0.000000000000000000, 1.000000000000000000 ) ) ;
#637 = DIRECTION ( 'NONE',  ( 0.000000000000000000, 0.000000000000000000, 1.000000000000000000 ) ) ;
#638 = ORIENTED_EDGE ( 'NONE', *, *, #1000, .F. ) ;
#639 = LINE ( 'NONE', #540, #963 ) ;
#640 = CARTESIAN_POINT ( 'NONE',  ( 25.18949343046144662, -46.27508152002117470, 25.18949343046144662 ) ) ;
#641 = VERTEX_POINT ( 'NONE', #1068 ) ;
#642 = EDGE_CURVE ( 'NONE', #595, #167, #218, .T. ) ;
#643 = DIRECTION ( 'NONE',  ( -1.000000000000000000, 1.879469088600120312E-30, -9.169740977663330499E-15 ) ) ;
#644 = ORIENTED_EDGE ( 'NONE', *, *, #108, .T. ) ;
#645 = LINE ( 'NONE', #319, #1274 ) ;
#646 = VECTOR ( 'NONE', #728, 1000.000000000000000 ) ;
#647 = DIRECTION ( 'NONE',  ( 0.000000000000000000, 0.000000000000000000, -1.000000000000000000 ) ) ;
#648 = VERTEX_POINT ( 'NONE', #324 ) ;
#649 = ORIENTED_EDGE ( 'NONE', *, *, #1315, .T. ) ;
#650 = AXIS2_PLACEMENT_3D ( 'NONE', #1298, #776, #1327 ) ;
#651 = VECTOR ( 'NONE', #825, 1000.000000000000000 ) ;
#652 = EDGE_CURVE ( 'NONE', #698, #628, #445, .T. ) ;
#653 = FACE_OUTER_BOUND ( 'NONE', #248, .T. ) ;
#654 = EDGE_CURVE ( 'NONE', #1028, #429, #639, .T. ) ;
#655 = DIRECTION ( 'NONE',  ( 0.000000000000000000, -1.000000000000000000, -2.049642507000289605E-16 ) ) ;
#656 = FACE_OUTER_BOUND ( 'NONE', #90, .T. ) ;
#657 = ORIENTED_EDGE ( 'NONE', *, *, #231, .T. ) ;
#658 = DIRECTION ( 'NONE',  ( 0.000000000000000000, -1.000000000000000000, -2.049642507000289605E-16 ) ) ;
#659 = DIRECTION ( 'NONE',  ( 0.000000000000000000, -1.000000000000000000, 0.000000000000000000 ) ) ;
#660 = EDGE_CURVE ( 'NONE', #408, #1085, #875, .T. ) ;
#661 = CARTESIAN_POINT ( 'NONE',  ( 28.99991904905739659, 67.49999999999998579, 9.307999999999998053 ) ) ;
#662 = EDGE_LOOP ( 'NONE', ( #524, #448, #1375, #496 ) ) ;
#663 = CARTESIAN_POINT ( 'NONE',  ( 36.29667966274204360, 67.50000000000000000, -44.49999999999997868 ) ) ;
#664 = CARTESIAN_POINT ( 'NONE',  ( 34.00000043213349699, 87.50000000000000000, 8.400192207394651334 ) ) ;
#665 = LINE ( 'NONE', #122, #353 ) ;
#666 = EDGE_CURVE ( 'NONE', #840, #1123, #950, .T. ) ;
#667 = ORIENTED_EDGE ( 'NONE', *, *, #164, .T. ) ;
#668 = VERTEX_POINT ( 'NONE', #1373 ) ;
#669 = CARTESIAN_POINT ( 'NONE',  ( 20.99999953061340108, 77.50000000000000000, -49.99952881642030178 ) ) ;
#670 = CIRCLE ( 'NONE', #43, 9.500000000000000000 ) ;
#671 = VECTOR ( 'NONE', #1096, 1000.000000000000114 ) ;
#672 = LINE ( 'NONE', #1221, #150 ) ;
#673 = DIRECTION ( 'NONE',  ( 0.000000000000000000, -1.000000000000000000, -2.049642507000289605E-16 ) ) ;
#674 = VECTOR ( 'NONE', #3, 1000.000000000000000 ) ;
#675 = DIRECTION ( 'NONE',  ( 9.252072345184710225E-32, -1.000000000000000000, -2.049642507000289605E-16 ) ) ;
#676 = LINE ( 'NONE', #34, #1116 ) ;
#677 = ORIENTED_EDGE ( 'NONE', *, *, #1108, .T. ) ;
#678 = PLANE ( 'NONE',  #1069 ) ;
#679 = CARTESIAN_POINT ( 'NONE',  ( 24.00046957425419336, -46.27508152002117470, -40.79785669972180528 ) ) ;
#680 = CARTESIAN_POINT ( 'NONE',  ( -10.30000130925389357, -46.27508152002117470, -3.798680749478134312E-07 ) ) ;
#681 = DIRECTION ( 'NONE',  ( 1.216761526407840216E-15, 0.000000000000000000, -1.000000000000000000 ) ) ;
#682 = VERTEX_POINT ( 'NONE', #973 ) ;
#683 = ORIENTED_EDGE ( 'NONE', *, *, #327, .F. ) ;
#684 = CARTESIAN_POINT ( 'NONE',  ( -2.999919049057420128, -46.27508152002117470, 0.000000000000000000 ) ) ;
#685 = EDGE_CURVE ( 'NONE', #1268, #287, #416, .T. ) ;
#686 = FACE_OUTER_BOUND ( 'NONE', #606, .T. ) ;
#687 = CARTESIAN_POINT ( 'NONE',  ( 20.99999953061340108, 67.50000000000000000, -57.99999886006119709 ) ) ;
#688 = VERTEX_POINT ( 'NONE', #745 ) ;
#689 = AXIS2_PLACEMENT_3D ( 'NONE', #713, #1034, #401 ) ;
#690 = LINE ( 'NONE', #1107, #395 ) ;
#691 = CARTESIAN_POINT ( 'NONE',  ( -3.000000044703456048, -46.27508152002117470, 9.307919004353928827 ) ) ;
#692 = VECTOR ( 'NONE', #1197, 1000.000000000000000 ) ;
#693 = DIRECTION ( 'NONE',  ( 0.000000000000000000, -1.000000000000000000, 0.000000000000000000 ) ) ;
#694 = COLOUR_RGB ( '',0.7921568627450980005, 0.8196078431372548767, 0.9333333333333333481 ) ;
#695 = EDGE_CURVE ( 'NONE', #796, #1132, #844, .T. ) ;
#696 = DIRECTION ( 'NONE',  ( 1.156301146650906670E-15, 0.000000000000000000, 1.000000000000000000 ) ) ;
#697 = EDGE_LOOP ( 'NONE', ( #748, #1030, #21, #1020 ) ) ;
#698 = VERTEX_POINT ( 'NONE', #1191 ) ;
#699 = CARTESIAN_POINT ( 'NONE',  ( 25.80791904905739997, 67.49999999999998579, 17.49999999999999645 ) ) ;
#700 = ORIENTED_EDGE ( 'NONE', *, *, #503, .T. ) ;
#701 = CARTESIAN_POINT ( 'NONE',  ( -0.9794919243112151230, 77.50000000000000000, 2.000000000000000000 ) ) ;
#702 = ADVANCED_FACE ( 'NONE', ( #109 ), #1173, .T. ) ;
#703 = DIRECTION ( 'NONE',  ( -2.049642507000289605E-16, 1.000000000000000000, 0.000000000000000000 ) ) ;
#704 = ORIENTED_EDGE ( 'NONE', *, *, #31, .F. ) ;
#705 = CARTESIAN_POINT ( 'NONE',  ( -1.361444568978859904, 77.50000000000000000, -44.49972745446660127 ) ) ;
#706 = CYLINDRICAL_SURFACE ( 'NONE', #17, 3.000470043640849571 ) ;
#707 = EDGE_LOOP ( 'NONE', ( #704, #519, #749, #159, #1302, #926 ) ) ;
#708 = DIRECTION ( 'NONE',  ( 0.000000000000000000, -1.000000000000000000, 0.000000000000000000 ) ) ;
#709 = EDGE_CURVE ( 'NONE', #641, #1385, #63, .T. ) ;
#710 = DIRECTION ( 'NONE',  ( 7.888609052210119806E-31, -1.959217102279369698E-16, 1.000000000000000000 ) ) ;
#711 = EDGE_CURVE ( 'NONE', #301, #962, #1166, .T. ) ;
#712 = ORIENTED_EDGE ( 'NONE', *, *, #290, .T. ) ;
#713 = CARTESIAN_POINT ( 'NONE',  ( 0.000000000000000000, -46.27508152002117470, 0.000000000000000000 ) ) ;
#714 = ORIENTED_EDGE ( 'NONE', *, *, #654, .F. ) ;
#715 = VECTOR ( 'NONE', #1056, 1000.000000000000000 ) ;
#716 = DIRECTION ( 'NONE',  ( 0.000000000000000000, 0.000000000000000000, 1.000000000000000000 ) ) ;
#717 = VECTOR ( 'NONE', #129, 1000.000000000000000 ) ;
#718 = CARTESIAN_POINT ( 'NONE',  ( 24.00046957425381677, -46.27508152002117470, 2.200780893381972078E-13 ) ) ;
#719 = AXIS2_PLACEMENT_3D ( 'NONE', #432, #1082, #859 ) ;
#720 = VERTEX_POINT ( 'NONE', #229 ) ;
#721 = EDGE_CURVE ( 'NONE', #970, #613, #966, .T. ) ;
#722 = CARTESIAN_POINT ( 'NONE',  ( 4.005289407986366789E-05, -46.27508152002117470, -39.49999581557870698 ) ) ;
#723 = CARTESIAN_POINT ( 'NONE',  ( 34.00000043213349699, 67.49999999999998579, 8.400192207394649557 ) ) ;
#724 = CARTESIAN_POINT ( 'NONE',  ( 27.87898686092290035, -46.27508152002117470, 22.50000000000000000 ) ) ;
#725 = ORIENTED_EDGE ( 'NONE', *, *, #1299, .F. ) ;
#726 = EDGE_CURVE ( 'NONE', #1148, #408, #1321, .T. ) ;
#727 = LINE ( 'NONE', #181, #1355 ) ;
#728 = DIRECTION ( 'NONE',  ( 1.216761526407840216E-15, 1.959217102279369698E-16, -1.000000000000000000 ) ) ;
#729 = ORIENTED_EDGE ( 'NONE', *, *, #397, .T. ) ;
#730 = DIRECTION ( 'NONE',  ( 0.000000000000000000, -1.000000000000000000, 0.000000000000000000 ) ) ;
#731 = LINE ( 'NONE', #718, #738 ) ;
#732 = EDGE_LOOP ( 'NONE', ( #1238, #1165, #712, #131 ) ) ;
#733 = LINE ( 'NONE', #535, #104 ) ;
#734 = ORIENTED_EDGE ( 'NONE', *, *, #1204, .F. ) ;
#735 = DIRECTION ( 'NONE',  ( 0.000000000000000000, -1.959217102279369698E-16, 1.000000000000000000 ) ) ;
#736 = ADVANCED_FACE ( 'NONE', ( #1180 ), #91, .T. ) ;
#737 = LINE ( 'NONE', #1264, #305 ) ;
#738 = VECTOR ( 'NONE', #1160, 1000.000000000000000 ) ;
#739 = VECTOR ( 'NONE', #573, 1000.000000000000000 ) ;
#740 = AXIS2_PLACEMENT_3D ( 'NONE', #585, #48, #596 ) ;
#741 = ORIENTED_EDGE ( 'NONE', *, *, #770, .F. ) ;
#742 = VECTOR ( 'NONE', #1314, 1000.000000000000000 ) ;
#743 = CYLINDRICAL_SURFACE ( 'NONE', #822, 7.993750606696749195 ) ;
#744 = VERTEX_POINT ( 'NONE', #459 ) ;
#745 = CARTESIAN_POINT ( 'NONE',  ( -2.999999940394989739, 67.50000000000000000, -44.49999885761410212 ) ) ;
#746 = LINE ( 'NONE', #661, #584 ) ;
#747 = ADVANCED_FACE ( 'NONE', ( #1087 ), #1312, .T. ) ;
#748 = ORIENTED_EDGE ( 'NONE', *, *, #13, .T. ) ;
#749 = ORIENTED_EDGE ( 'NONE', *, *, #346, .F. ) ;
#750 = CARTESIAN_POINT ( 'NONE',  ( 28.99991904905740014, 128.5999999999999943, 9.307999999999999829 ) ) ;
#751 = CARTESIAN_POINT ( 'NONE',  ( 20.99999953061340108, 87.50000000000000000, -52.99999886006120420 ) ) ;
#752 = VERTEX_POINT ( 'NONE', #679 ) ;
#753 = DIRECTION ( 'NONE',  ( 1.000000000000000000, 2.693270573883912104E-31, -5.548947959195800427E-16 ) ) ;
#754 = LINE ( 'NONE', #860, #1318 ) ;
#755 = EDGE_LOOP ( 'NONE', ( #315, #1372, #913, #938 ) ) ;
#756 = EDGE_CURVE ( 'NONE', #930, #648, #603, .T. ) ;
#757 = ORIENTED_EDGE ( 'NONE', *, *, #267, .T. ) ;
#758 = CARTESIAN_POINT ( 'NONE',  ( 26.97949192431119769, 67.49999999999998579, 2.000000000000000000 ) ) ;
#759 = CARTESIAN_POINT ( 'NONE',  ( 25.80791904905739997, 77.50000000000000000, 12.50000000000000000 ) ) ;
#760 = LINE ( 'NONE', #12, #1202 ) ;
#761 = ORIENTED_EDGE ( 'NONE', *, *, #804, .F. ) ;
#762 = VECTOR ( 'NONE', #463, 1000.000000000000000 ) ;
#763 = VECTOR ( 'NONE', #212, 1000.000000000000000 ) ;
#764 = DIRECTION ( 'NONE',  ( 7.888609052210119806E-31, -2.049642507000289605E-16, 1.000000000000000000 ) ) ;
#765 = ADVANCED_FACE ( 'NONE', ( #477 ), #895, .T. ) ;
#766 =( LENGTH_UNIT ( ) NAMED_UNIT ( * ) SI_UNIT ( .MILLI., .METRE. ) );
#767 = DIRECTION ( 'NONE',  ( -0.7071067811865470176, 1.449316115708099850E-16, -0.7071067811865480168 ) ) ;
#768 = CYLINDRICAL_SURFACE ( 'NONE', #1136, 2.993750606696737648 ) ;
#769 = DIRECTION ( 'NONE',  ( 1.000000000000000000, -7.777887921813412919E-32, 1.216761526407840019E-15 ) ) ;
#770 = EDGE_CURVE ( 'NONE', #411, #1201, #1378, .T. ) ;
#771 = CARTESIAN_POINT ( 'NONE',  ( -6.153959524528690217, -46.27508152002117470, 6.153959524528699099 ) ) ;
#772 = ADVANCED_FACE ( 'NONE', ( #25 ), #146, .T. ) ;
#773 = DIRECTION ( 'NONE',  ( 4.015694653273729943E-32, 1.959217102279369698E-16, -1.000000000000000000 ) ) ;
#774 = ORIENTED_EDGE ( 'NONE', *, *, #49, .F. ) ;
#775 = ORIENTED_EDGE ( 'NONE', *, *, #300, .F. ) ;
#776 = DIRECTION ( 'NONE',  ( -1.000000000000000000, 0.000000000000000000, -2.454837864508209994E-13 ) ) ;
#777 = CARTESIAN_POINT ( 'NONE',  ( 34.00000043213349699, 77.50000000000000000, 8.400192207394651334 ) ) ;
#778 = CARTESIAN_POINT ( 'NONE',  ( -5.300042857127183815, -46.27508152002117470, 3.258109548864112526 ) ) ;
#779 = DIRECTION ( 'NONE',  ( 0.000000000000000000, -1.000000000000000000, -2.049642507000289605E-16 ) ) ;
#780 = VECTOR ( 'NONE', #637, 1000.000000000000000 ) ;
#781 = ORIENTED_EDGE ( 'NONE', *, *, #441, .T. ) ;
#782 = VERTEX_POINT ( 'NONE', #344 ) ;
#783 = FACE_OUTER_BOUND ( 'NONE', #707, .T. ) ;
#784 = AXIS2_PLACEMENT_3D ( 'NONE', #1044, #507, #632 ) ;
#785 = CARTESIAN_POINT ( 'NONE',  ( 28.99991904905738593, 67.49999999999998579, 9.307999999999999829 ) ) ;
#786 = VECTOR ( 'NONE', #100, 1000.000000000000000 ) ;
#787 = PLANE ( 'NONE',  #536 ) ;
#788 = EDGE_CURVE ( 'NONE', #1201, #1145, #672, .T. ) ;
#789 = DIRECTION ( 'NONE',  ( 0.9999999999994858557, 0.000000000000000000, 1.013997426771979615E-06 ) ) ;
#790 = ORIENTED_EDGE ( 'NONE', *, *, #55, .T. ) ;
#791 = CARTESIAN_POINT ( 'NONE',  ( -2.999999940394983522, -46.27508152002117470, -44.49999885761410212 ) ) ;
#792 = DIRECTION ( 'NONE',  ( 1.606111199752450005E-31, -1.000000000000000000, -1.959217102279369698E-16 ) ) ;
#793 = CARTESIAN_POINT ( 'NONE',  ( -10.30000028121300026, 67.50000000000000000, -27.87500024609289895 ) ) ;
#794 = LINE ( 'NONE', #485, #742 ) ;
#795 = SURFACE_STYLE_USAGE ( .BOTH. , #143 ) ;
#796 = VERTEX_POINT ( 'NONE', #691 ) ;
#797 = LINE ( 'NONE', #879, #1156 ) ;
#798 = ADVANCED_FACE ( 'NONE', ( #811 ), #1233, .T. ) ;
#799 = FACE_OUTER_BOUND ( 'NONE', #232, .T. ) ;
#800 = PLANE ( 'NONE',  #173 ) ;
#801 = CARTESIAN_POINT ( 'NONE',  ( -3.000000044703459601, 77.50000000000000000, 6.020888824057319511 ) ) ;
#802 = ORIENTED_EDGE ( 'NONE', *, *, #216, .T. ) ;
#803 = VECTOR ( 'NONE', #1050, 1000.000000000000000 ) ;
#804 = EDGE_CURVE ( 'NONE', #1260, #1028, #1004, .T. ) ;
#805 = VECTOR ( 'NONE', #986, 1000.000000000000000 ) ;
#806 = LINE ( 'NONE', #1228, #281 ) ;
#807 = VECTOR ( 'NONE', #919, 1000.000000000000000 ) ;
#808 = CARTESIAN_POINT ( 'NONE',  ( -8.000000044703460489, 87.50000000000000000, 8.400192632374940516 ) ) ;
#809 =( LENGTH_UNIT ( ) NAMED_UNIT ( * ) SI_UNIT ( .MILLI., .METRE. ) );
#810 = ORIENTED_EDGE ( 'NONE', *, *, #721, .T. ) ;
#811 = FACE_OUTER_BOUND ( 'NONE', #1012, .T. ) ;
#812 = VERTEX_POINT ( 'NONE', #1022 ) ;
#813 = DIRECTION ( 'NONE',  ( 0.9999999999999993339, 0.000000000000000000, 3.688039093805997352E-08 ) ) ;
#814 = FILL_AREA_STYLE ('',( #1211 ) ) ;
#815 = ORIENTED_EDGE ( 'NONE', *, *, #1021, .F. ) ;
#816 = VERTEX_POINT ( 'NONE', #389 ) ;
#817 = CARTESIAN_POINT ( 'NONE',  ( -2.999999940394240117, 87.50000000000000000, -50.00625469643669874 ) ) ;
#818 = DIRECTION ( 'NONE',  ( 0.000000000000000000, -1.000000000000000000, -2.049642507000289605E-16 ) ) ;
#819 = EDGE_CURVE ( 'NONE', #227, #341, #1247, .T. ) ;
#820 = EDGE_LOOP ( 'NONE', ( #1122, #1250, #6, #86 ) ) ;
#821 = EDGE_LOOP ( 'NONE', ( #35, #1151, #1345, #1235 ) ) ;
#822 = AXIS2_PLACEMENT_3D ( 'NONE', #552, #525, #954 ) ;
#823 = CARTESIAN_POINT ( 'NONE',  ( 34.00000043213349699, 67.49999999999998579, 16.37898642878939981 ) ) ;
#824 = VECTOR ( 'NONE', #1330, 1000.000000000000000 ) ;
#825 = DIRECTION ( 'NONE',  ( -3.688039094290997168E-08, 0.000000000000000000, 0.9999999999999993339 ) ) ;
#826 = EDGE_CURVE ( 'NONE', #956, #1114, #727, .T. ) ;
#827 = EDGE_LOOP ( 'NONE', ( #165, #514, #29, #196 ) ) ;
#828 = EDGE_CURVE ( 'NONE', #962, #892, #400, .T. ) ;
#829 = DIRECTION ( 'NONE',  ( 0.000000000000000000, 0.000000000000000000, -1.000000000000000000 ) ) ;
#830 = ORIENTED_EDGE ( 'NONE', *, *, #726, .T. ) ;
#831 = LINE ( 'NONE', #1157, #985 ) ;
#832 = CARTESIAN_POINT ( 'NONE',  ( 20.99999953061340108, 87.50000000000000000, -57.99999886006119709 ) ) ;
#833 = ORIENTED_EDGE ( 'NONE', *, *, #593, .T. ) ;
#834 = ORIENTED_EDGE ( 'NONE', *, *, #975, .F. ) ;
#835 = ADVANCED_FACE ( 'NONE', ( #1049 ), #629, .T. ) ;
#836 = ORIENTED_EDGE ( 'NONE', *, *, #508, .T. ) ;
#837 = DIRECTION ( 'NONE',  ( 1.606111199752450005E-31, -1.000000000000000000, -1.959217102279369698E-16 ) ) ;
#838 = CARTESIAN_POINT ( 'NONE',  ( -10.29999966807631040, 67.50000000000000000, -44.50000625979501478 ) ) ;
#839 = ORIENTED_EDGE ( 'NONE', *, *, #1244, .F. ) ;
#840 = VERTEX_POINT ( 'NONE', #546 ) ;
#841 = PLANE ( 'NONE',  #443 ) ;
#842 = EDGE_CURVE ( 'NONE', #1126, #892, #202, .T. ) ;
#843 = ORIENTED_EDGE ( 'NONE', *, *, #69, .T. ) ;
#844 = LINE ( 'NONE', #771, #309 ) ;
#845 = DIRECTION ( 'NONE',  ( 0.000000000000000000, -1.000000000000000000, 0.000000000000000000 ) ) ;
#846 = VECTOR ( 'NONE', #66, 1000.000000000000000 ) ;
#847 = VECTOR ( 'NONE', #47, 1000.000000000000000 ) ;
#848 = ORIENTED_EDGE ( 'NONE', *, *, #495, .F. ) ;
#849 = DIRECTION ( 'NONE',  ( -1.000000000000000000, 0.000000000000000000, 7.888609052210119806E-31 ) ) ;
#850 = CARTESIAN_POINT ( 'NONE',  ( 31.29667966274205071, -46.27508152002117470, 3.269602312199494598 ) ) ;
#851 = ORIENTED_EDGE ( 'NONE', *, *, #597, .T. ) ;
#852 = FACE_OUTER_BOUND ( 'NONE', #521, .T. ) ;
#853 = ADVANCED_FACE ( 'NONE', ( #1276 ), #841, .T. ) ;
#854 = PLANE ( 'NONE',  #1159 ) ;
#855 = ORIENTED_EDGE ( 'NONE', *, *, #597, .F. ) ;
#856 = EDGE_CURVE ( 'NONE', #1114, #213, #16, .T. ) ;
#857 = ORIENTED_EDGE ( 'NONE', *, *, #804, .T. ) ;
#858 = CARTESIAN_POINT ( 'NONE',  ( 34.00000043213349699, 67.49999999999998579, 8.400192207394651334 ) ) ;
#859 = DIRECTION ( 'NONE',  ( -4.423544863740860457E-15, 0.000000000000000000, 1.000000000000000000 ) ) ;
#860 = CARTESIAN_POINT ( 'NONE',  ( 0.000000000000000000, -46.27508152002117470, 22.50000000000000000 ) ) ;
#861 = ADVANCED_FACE ( 'NONE', ( #520 ), #947, .T. ) ;
#862 = ORIENTED_EDGE ( 'NONE', *, *, #1204, .T. ) ;
#863 = DIRECTION ( 'NONE',  ( -0.7071067811865480168, 1.385375698838397857E-16, -0.7071067811865470176 ) ) ;
#864 = CARTESIAN_POINT ( 'NONE',  ( -10.30004606364517805, -46.27508152002117470, 3.837735164696272960 ) ) ;
#865 = CARTESIAN_POINT ( 'NONE',  ( -3.218389753078952854E-14, -46.27508152002117470, -57.99999886006118999 ) ) ;
#866 = VECTOR ( 'NONE', #423, 1000.000000000000000 ) ;
#867 = DIRECTION ( 'NONE',  ( 1.606111199752450005E-31, -1.000000000000000000, -1.959217102279369698E-16 ) ) ;
#868 = ORIENTED_EDGE ( 'NONE', *, *, #199, .T. ) ;
#869 = VECTOR ( 'NONE', #994, 1000.000000000000000 ) ;
#870 = EDGE_CURVE ( 'NONE', #186, #630, #97, .T. ) ;
#871 = VECTOR ( 'NONE', #464, 1000.000000000000000 ) ;
#872 = DIRECTION ( 'NONE',  ( -9.169740977663330499E-15, 0.000000000000000000, 1.000000000000000000 ) ) ;
#873 = VECTOR ( 'NONE', #730, 1000.000000000000000 ) ;
#874 = CARTESIAN_POINT ( 'NONE',  ( -10.30000510331353958, 67.50000000000000000, -39.13979815003406770 ) ) ;
#875 = LINE ( 'NONE', #1059, #355 ) ;
#876 = DIRECTION ( 'NONE',  ( 0.000000000000000000, 0.000000000000000000, 1.000000000000000000 ) ) ;
#877 = ORIENTED_EDGE ( 'NONE', *, *, #240, .T. ) ;
#878 = ORIENTED_EDGE ( 'NONE', *, *, #518, .F. ) ;
#879 = CARTESIAN_POINT ( 'NONE',  ( -2.999999940394989739, 87.50000000000000000, -44.49999885761410212 ) ) ;
#880 = DIRECTION ( 'NONE',  ( 1.013997426771979403E-06, 0.000000000000000000, -0.9999999999994858557 ) ) ;
#881 = PLANE ( 'NONE',  #422 ) ;
#882 = ORIENTED_EDGE ( 'NONE', *, *, #685, .T. ) ;
#883 = EDGE_LOOP ( 'NONE', ( #379, #882, #851, #1067 ) ) ;
#884 = CARTESIAN_POINT ( 'NONE',  ( 24.00046957425425020, -46.27508152002117470, -49.99952881642030178 ) ) ;
#885 = DIRECTION ( 'NONE',  ( 0.7071067811865475727, 0.000000000000000000, 0.7071067811865475727 ) ) ;
#886 = CARTESIAN_POINT ( 'NONE',  ( 34.00000043213348988, -46.27508152002117470, 16.37898642878940336 ) ) ;
#887 = EDGE_CURVE ( 'NONE', #112, #167, #1170, .T. ) ;
#888 = LINE ( 'NONE', #1097, #399 ) ;
#889 = CARTESIAN_POINT ( 'NONE',  ( -1.878986860922870150, 67.49999999999998579, 22.50000000000000000 ) ) ;
#890 = CARTESIAN_POINT ( 'NONE',  ( -5.299999865763013851, -46.27508152002117470, -39.13979308004163471 ) ) ;
#891 = AXIS2_PLACEMENT_3D ( 'NONE', #365, #893, #1006 ) ;
#892 = VERTEX_POINT ( 'NONE', #221 ) ;
#893 = DIRECTION ( 'NONE',  ( 1.000000000000000000, 0.000000000000000000, 9.690049268019630847E-15 ) ) ;
#894 = AXIS2_PLACEMENT_3D ( 'NONE', #380, #837, #716 ) ;
#895 = PLANE ( 'NONE',  #217 ) ;
#896 = DIRECTION ( 'NONE',  ( -3.014299720074920036E-17, -1.959217102279369698E-16, 1.000000000000000000 ) ) ;
#897 = AXIS2_PLACEMENT_3D ( 'NONE', #548, #11, #438 ) ;
#898 = FACE_OUTER_BOUND ( 'NONE', #398, .T. ) ;
#899 = LINE ( 'NONE', #270, #824 ) ;
#900 = EDGE_CURVE ( 'NONE', #998, #720, #119, .T. ) ;
#901 = EDGE_LOOP ( 'NONE', ( #1288, #289, #802, #475, #160, #1226, #551, #588, #989, #917, #990, #153, #1189, #577, #23, #649, #177, #1121, #277, #1005, #214, #1278, #920 ) ) ;
#902 = DIRECTION ( 'NONE',  ( 0.000000000000000000, -1.000000000000000000, 0.000000000000000000 ) ) ;
#903 = PRODUCT_DEFINITION_SHAPE ( 'NONE', 'NONE',  #22 ) ;
#904 = DIRECTION ( 'NONE',  ( -1.616882843451709956E-46, 1.000000000000000000, 0.000000000000000000 ) ) ;
#905 = CARTESIAN_POINT ( 'NONE',  ( -8.000000044703460489, -46.27508152002117470, -2.981671004597288094E-15 ) ) ;
#906 = CARTESIAN_POINT ( 'NONE',  ( 31.29667966274205071, 77.50000000000000000, 3.269602312199501704 ) ) ;
#907 = DIRECTION ( 'NONE',  ( 1.000000000000000000, 1.616882843451709956E-46, -7.888609052210119806E-31 ) ) ;
#908 = EDGE_CURVE ( 'NONE', #744, #641, #1266, .T. ) ;
#909 = ORIENTED_EDGE ( 'NONE', *, *, #1120, .F. ) ;
#910 = CARTESIAN_POINT ( 'NONE',  ( -3.000000044703459601, 87.50000000000000000, 6.020888824057319511 ) ) ;
#911 = CARTESIAN_POINT ( 'NONE',  ( -3.000000044703459601, 67.49999999999998579, 6.020888824057315070 ) ) ;
#912 = ORIENTED_EDGE ( 'NONE', *, *, #1108, .F. ) ;
#913 = ORIENTED_EDGE ( 'NONE', *, *, #1332, .F. ) ;
#914 = CIRCLE ( 'NONE', #59, 9.500000000000000000 ) ;
#915 = AXIS2_PLACEMENT_3D ( 'NONE', #669, #457, #1207 ) ;
#916 = VECTOR ( 'NONE', #918, 1000.000000000000114 ) ;
#917 = ORIENTED_EDGE ( 'NONE', *, *, #828, .T. ) ;
#918 = DIRECTION ( 'NONE',  ( -0.7071067811865474617, -1.385375698838400815E-16, 0.7071067811865474617 ) ) ;
#919 = DIRECTION ( 'NONE',  ( 4.015694653273729943E-32, -1.959217102279369698E-16, 1.000000000000000000 ) ) ;
#920 = ORIENTED_EDGE ( 'NONE', *, *, #819, .T. ) ;
#921 = EDGE_CURVE ( 'NONE', #1326, #415, #1080, .T. ) ;
#922 = ORIENTED_EDGE ( 'NONE', *, *, #77, .F. ) ;
#923 = DIRECTION ( 'NONE',  ( -0.000000000000000000, 1.000000000000000000, -0.000000000000000000 ) ) ;
#924 = DIRECTION ( 'NONE',  ( 2.454837864508209994E-13, 1.959217102279369698E-16, -1.000000000000000000 ) ) ;
#925 = ORIENTED_EDGE ( 'NONE', *, *, #1192, .F. ) ;
#926 = ORIENTED_EDGE ( 'NONE', *, *, #96, .T. ) ;
#927 = PLANE ( 'NONE',  #1339 ) ;
#928 = ADVANCED_FACE ( 'NONE', ( #653 ), #743, .T. ) ;
#929 = CARTESIAN_POINT ( 'NONE',  ( 2.000000059604640334, -46.27508152002117470, -50.00625122375109299 ) ) ;
#930 = VERTEX_POINT ( 'NONE', #1376 ) ;
#931 = CIRCLE ( 'NONE', #1066, 4.999999999999997335 ) ;
#932 = EDGE_LOOP ( 'NONE', ( #683, #949, #200, #440 ) ) ;
#933 = VECTOR ( 'NONE', #328, 1000.000000000000000 ) ;
#934 = LINE ( 'NONE', #823, #916 ) ;
#935 = VECTOR ( 'NONE', #1083, 1000.000000000000000 ) ;
#936 = CARTESIAN_POINT ( 'NONE',  ( -8.000000044703462265, -46.27508152002117470, 8.400192632374940516 ) ) ;
#937 = EDGE_CURVE ( 'NONE', #1349, #1354, #1232, .T. ) ;
#938 = ORIENTED_EDGE ( 'NONE', *, *, #695, .F. ) ;
#939 = APPLICATION_CONTEXT ( 'automotive_design' ) ;
#940 = DIRECTION ( 'NONE',  ( -1.000000000000000000, 0.000000000000000000, 5.548947959195800427E-16 ) ) ;
#941 = ORIENTED_EDGE ( 'NONE', *, *, #937, .T. ) ;
#942 = FACE_OUTER_BOUND ( 'NONE', #827, .T. ) ;
#943 = CARTESIAN_POINT ( 'NONE',  ( 26.97949192431119769, 77.50000000000000000, 2.000000000000000000 ) ) ;
#944 = ORIENTED_EDGE ( 'NONE', *, *, #1379, .F. ) ;
#945 = EDGE_LOOP ( 'NONE', ( #912, #172, #836, #1380 ) ) ;
#946 = ADVANCED_FACE ( 'NONE', ( #1290 ), #977, .T. ) ;
#947 = PLANE ( 'NONE',  #261 ) ;
#948 = CARTESIAN_POINT ( 'NONE',  ( 29.00046957425424665, -46.27508152002117470, -49.99952881642030178 ) ) ;
#949 = ORIENTED_EDGE ( 'NONE', *, *, #856, .T. ) ;
#950 = LINE ( 'NONE', #865, #1384 ) ;
#951 = LINE ( 'NONE', #72, #1043 ) ;
#952 = ORIENTED_EDGE ( 'NONE', *, *, #1348, .T. ) ;
#953 = ORIENTED_EDGE ( 'NONE', *, *, #538, .T. ) ;
#954 = DIRECTION ( 'NONE',  ( -8.680398282746253499E-16, 0.000000000000000000, -1.000000000000000000 ) ) ;
#955 = CARTESIAN_POINT ( 'NONE',  ( -3.000000044703459601, 77.50000000000000000, 14.30791900435390041 ) ) ;
#956 = VERTEX_POINT ( 'NONE', #1063 ) ;
#957 = DIRECTION ( 'NONE',  ( 1.541976423090495239E-15, 0.000000000000000000, -1.000000000000000000 ) ) ;
#958 = AXIS2_PLACEMENT_3D ( 'NONE', #705, #1146, #1127 ) ;
#959 = CARTESIAN_POINT ( 'NONE',  ( -10.30006760591538573, 67.50000000000000000, 22.50000506991860050 ) ) ;
#960 =( GEOMETRIC_REPRESENTATION_CONTEXT ( 3 ) GLOBAL_UNCERTAINTY_ASSIGNED_CONTEXT ( ( #339 ) ) GLOBAL_UNIT_ASSIGNED_CONTEXT ( ( #809, #151, #404 ) ) REPRESENTATION_CONTEXT ( 'NONE', 'WORKASPACE' ) );
#961 = CIRCLE ( 'NONE', #79, 4.999999999999997335 ) ;
#962 = VERTEX_POINT ( 'NONE', #323 ) ;
#963 = VECTOR ( 'NONE', #753, 1000.000000000000000 ) ;
#964 = CARTESIAN_POINT ( 'NONE',  ( -10.30004868242172478, -8.350054346680805040, 3.837735164693607981 ) ) ;
#965 = LINE ( 'NONE', #1277, #107 ) ;
#966 = LINE ( 'NONE', #664, #537 ) ;
#967 = EDGE_CURVE ( 'NONE', #95, #124, #733, .T. ) ;
#968 = CARTESIAN_POINT ( 'NONE',  ( 31.29667966274210400, 77.50000000000000000, -39.50000000000000000 ) ) ;
#969 = EDGE_LOOP ( 'NONE', ( #268, #1240, #810, #499 ) ) ;
#970 = VERTEX_POINT ( 'NONE', #858 ) ;
#971 = CARTESIAN_POINT ( 'NONE',  ( -10.30004868242172478, 29.57497282665963567, 3.837735164693607981 ) ) ;
#972 = DIRECTION ( 'NONE',  ( 0.000000000000000000, 0.000000000000000000, 1.000000000000000000 ) ) ;
#973 = CARTESIAN_POINT ( 'NONE',  ( 29.00000043213350054, 67.49999999999998579, 9.307918616923936739 ) ) ;
#974 = CARTESIAN_POINT ( 'NONE',  ( 36.29667966274204360, -46.27508152002117470, -44.49999999999998579 ) ) ;
#975 = EDGE_CURVE ( 'NONE', #720, #970, #373, .T. ) ;
#976 = ORIENTED_EDGE ( 'NONE', *, *, #1212, .T. ) ;
#977 = PLANE ( 'NONE',  #1092 ) ;
#978 = DIRECTION ( 'NONE',  ( -0.000000000000000000, 1.000000000000000000, -0.000000000000000000 ) ) ;
#979 = DIRECTION ( 'NONE',  ( 0.000000000000000000, 0.000000000000000000, 1.000000000000000000 ) ) ;
#980 = VERTEX_POINT ( 'NONE', #9 ) ;
#981 = VECTOR ( 'NONE', #769, 1000.000000000000000 ) ;
#982 = AXIS2_PLACEMENT_3D ( 'NONE', #296, #169, #1140 ) ;
#983 = ORIENTED_EDGE ( 'NONE', *, *, #1090, .F. ) ;
#984 = FACE_BOUND ( 'NONE', #113, .T. ) ;
#985 = VECTOR ( 'NONE', #197, 1000.000000000000000 ) ;
#986 = DIRECTION ( 'NONE',  ( 3.688039093805998013E-08, 0.000000000000000000, -0.9999999999999993339 ) ) ;
#987 = UNCERTAINTY_MEASURE_WITH_UNIT (LENGTH_MEASURE( 1.000000000000000082E-05 ), #766, 'distance_accuracy_value', 'NONE');
#988 = FACE_OUTER_BOUND ( 'NONE', #594, .T. ) ;
#989 = ORIENTED_EDGE ( 'NONE', *, *, #711, .T. ) ;
#990 = ORIENTED_EDGE ( 'NONE', *, *, #300, .T. ) ;
#991 = DIRECTION ( 'NONE',  ( 0.000000000000000000, 0.000000000000000000, -1.000000000000000000 ) ) ;
#992 = ADVANCED_FACE ( 'NONE', ( #483 ), #450, .T. ) ;
#993 = EDGE_CURVE ( 'NONE', #488, #796, #1311, .T. ) ;
#994 = DIRECTION ( 'NONE',  ( 1.000000000000000000, 0.000000000000000000, 1.216761526407840019E-15 ) ) ;
#995 = CARTESIAN_POINT ( 'NONE',  ( 31.29667966274205071, 67.50000000000000000, 3.500000000000016875 ) ) ;
#996 = APPLICATION_CONTEXT ( 'automotive_design' ) ;
#997 = CARTESIAN_POINT ( 'NONE',  ( -2.999919049057420128, 67.49999999999998579, 9.307999999999999829 ) ) ;
#998 = VERTEX_POINT ( 'NONE', #663 ) ;
#999 = DIRECTION ( 'NONE',  ( 0.7071067811865480168, 1.385375698838400322E-16, -0.7071067811865470176 ) ) ;
#1000 = EDGE_CURVE ( 'NONE', #1126, #682, #45, .T. ) ;
#1001 = LINE ( 'NONE', #680, #805 ) ;
#1002 = CARTESIAN_POINT ( 'NONE',  ( 20.99999953061340108, 67.50000000000000000, -49.99952881642030178 ) ) ;
#1003 = FACE_OUTER_BOUND ( 'NONE', #1331, .T. ) ;
#1004 = CIRCLE ( 'NONE', #1316, 7.993750606696749195 ) ;
#1005 = ORIENTED_EDGE ( 'NONE', *, *, #495, .T. ) ;
#1006 = DIRECTION ( 'NONE',  ( -9.690049268019630847E-15, 0.000000000000000000, 1.000000000000000000 ) ) ;
#1007 = PRESENTATION_LAYER_ASSIGNMENT (  '', '', ( #1248 ) ) ;
#1008 = CARTESIAN_POINT ( 'NONE',  ( 29.00046957425420047, 77.50000000000000000, -44.50000000000000000 ) ) ;
#1009 = FACE_OUTER_BOUND ( 'NONE', #820, .T. ) ;
#1010 = EDGE_CURVE ( 'NONE', #220, #1349, #533, .T. ) ;
#1011 = DIRECTION ( 'NONE',  ( -1.577721810442049754E-31, -1.000000000000000000, -2.049642507000289605E-16 ) ) ;
#1012 = EDGE_LOOP ( 'NONE', ( #102, #830, #465, #725 ) ) ;
#1013 = CARTESIAN_POINT ( 'NONE',  ( 29.00046957425420047, 67.50000000000000000, -44.50000000000000000 ) ) ;
#1014 = DIRECTION ( 'NONE',  ( 0.000000000000000000, 0.000000000000000000, -1.000000000000000000 ) ) ;
#1015 = LINE ( 'NONE', #53, #110 ) ;
#1016 = ADVANCED_FACE ( 'NONE', ( #30 ), #336, .T. ) ;
#1017 = VERTEX_POINT ( 'NONE', #791 ) ;
#1018 = ORIENTED_EDGE ( 'NONE', *, *, #108, .F. ) ;
#1019 = DIRECTION ( 'NONE',  ( -0.000000000000000000, 1.000000000000000000, -0.000000000000000000 ) ) ;
#1020 = ORIENTED_EDGE ( 'NONE', *, *, #132, .F. ) ;
#1021 = EDGE_CURVE ( 'NONE', #1326, #998, #350, .T. ) ;
#1022 = CARTESIAN_POINT ( 'NONE',  ( -8.000000044703460489, 67.49999999999998579, 8.400192632374940516 ) ) ;
#1023 = VECTOR ( 'NONE', #417, 1000.000000000000000 ) ;
#1024 = VECTOR ( 'NONE', #52, 1000.000000000000000 ) ;
#1025 = CARTESIAN_POINT ( 'NONE',  ( -3.000000044703459601, 67.49999999999998579, 9.307919004353928827 ) ) ;
#1026 = AXIS2_PLACEMENT_3D ( 'NONE', #759, #767, #211 ) ;
#1027 = DIRECTION ( 'NONE',  ( 0.7390008955602369589, 0.000000000000000000, 0.6737044428836489462 ) ) ;
#1028 = VERTEX_POINT ( 'NONE', #125 ) ;
#1029 = ADVANCED_FACE ( 'NONE', ( #1190 ), #228, .T. ) ;
#1030 = ORIENTED_EDGE ( 'NONE', *, *, #652, .T. ) ;
#1031 = DIRECTION ( 'NONE',  ( 0.000000000000000000, 0.000000000000000000, 1.000000000000000000 ) ) ;
#1032 = DIRECTION ( 'NONE',  ( 0.7071067811865480168, 0.000000000000000000, 0.7071067811865470176 ) ) ;
#1033 = ORIENTED_EDGE ( 'NONE', *, *, #921, .F. ) ;
#1034 = DIRECTION ( 'NONE',  ( 0.000000000000000000, -1.000000000000000000, 0.000000000000000000 ) ) ;
#1035 = ORIENTED_EDGE ( 'NONE', *, *, #330, .F. ) ;
#1036 = DIRECTION ( 'NONE',  ( -1.000000000000000000, 0.000000000000000000, 7.888551657556060360E-31 ) ) ;
#1037 = EDGE_CURVE ( 'NONE', #688, #1017, #797, .T. ) ;
#1038 = PLANE ( 'NONE',  #1134 ) ;
#1039 = ORIENTED_EDGE ( 'NONE', *, *, #451, .T. ) ;
#1040 = ORIENTED_EDGE ( 'NONE', *, *, #1186, .F. ) ;
#1041 = VECTOR ( 'NONE', #658, 1000.000000000000000 ) ;
#1042 = FACE_OUTER_BOUND ( 'NONE', #99, .T. ) ;
#1043 = VECTOR ( 'NONE', #618, 1000.000000000000000 ) ;
#1044 = CARTESIAN_POINT ( 'NONE',  ( -0.9794919243112151230, -46.27508152002117470, 2.000000000000000000 ) ) ;
#1045 = AXIS2_PLACEMENT_3D ( 'NONE', #1002, #149, #696 ) ;
#1046 = ADVANCED_FACE ( 'NONE', ( #984, #558 ), #678, .T. ) ;
#1047 = VERTEX_POINT ( 'NONE', #1095 ) ;
#1048 = EDGE_LOOP ( 'NONE', ( #358, #342, #843, #326 ) ) ;
#1049 = FACE_OUTER_BOUND ( 'NONE', #449, .T. ) ;
#1050 = DIRECTION ( 'NONE',  ( 0.000000000000000000, -1.000000000000000000, -2.049642507000289605E-16 ) ) ;
#1051 = EDGE_LOOP ( 'NONE', ( #93, #1346, #182, #877 ) ) ;
#1052 = CARTESIAN_POINT ( 'NONE',  ( 29.00000043213350054, 87.50000000000000000, 9.307918616923940291 ) ) ;
#1053 = CARTESIAN_POINT ( 'NONE',  ( 27.30923938676749785, -46.27508152002117470, -39.49999999999978684 ) ) ;
#1054 = VERTEX_POINT ( 'NONE', #884 ) ;
#1055 = EDGE_LOOP ( 'NONE', ( #741, #425, #1058, #1256 ) ) ;
#1056 = DIRECTION ( 'NONE',  ( 0.000000000000000000, -1.000000000000000000, 0.000000000000000000 ) ) ;
#1057 = PLANE ( 'NONE',  #623 ) ;
#1058 = ORIENTED_EDGE ( 'NONE', *, *, #216, .F. ) ;
#1059 = CARTESIAN_POINT ( 'NONE',  ( -1.309513680005120140, 67.50000000000000000, -39.49999714346280655 ) ) ;
#1060 = DIRECTION ( 'NONE',  ( -0.7071067811865474617, 0.000000000000000000, 0.7071067811865474617 ) ) ;
#1061 = ORIENTED_EDGE ( 'NONE', *, *, #660, .F. ) ;
#1062 = ORIENTED_EDGE ( 'NONE', *, *, #1118, .F. ) ;
#1063 = CARTESIAN_POINT ( 'NONE',  ( 27.87898686092290035, 67.49999999999998579, 22.50000000000000000 ) ) ;
#1064 = ADVANCED_FACE ( 'NONE', ( #783 ), #579, .F. ) ;
#1065 = DIRECTION ( 'NONE',  ( -1.013997426771979403E-06, -1.959217102278362422E-16, 0.9999999999994858557 ) ) ;
#1066 = AXIS2_PLACEMENT_3D ( 'NONE', #609, #68, #829 ) ;
#1067 = ORIENTED_EDGE ( 'NONE', *, *, #711, .F. ) ;
#1068 = CARTESIAN_POINT ( 'NONE',  ( 29.00000043213348988, -46.27508152002117470, 6.020888629372582734 ) ) ;
#1069 = AXIS2_PLACEMENT_3D ( 'NONE', #1100, #145, #1196 ) ;
#1070 = CARTESIAN_POINT ( 'NONE',  ( 25.80791904905739997, 87.50000000000000000, 17.50000000000000000 ) ) ;
#1071 = EDGE_LOOP ( 'NONE', ( #1162, #862, #75, #482 ) ) ;
#1072 = VECTOR ( 'NONE', #1367, 1000.000000000000000 ) ;
#1073 = VERTEX_POINT ( 'NONE', #1320 ) ;
#1074 = CARTESIAN_POINT ( 'NONE',  ( 2.000000059604639890, 77.50000000000000000, -50.00625122375109299 ) ) ;
#1075 = LINE ( 'NONE', #10, #780 ) ;
#1076 = EDGE_CURVE ( 'NONE', #613, #1128, #235, .T. ) ;
#1077 = DIRECTION ( 'NONE',  ( -0.000000000000000000, 1.000000000000000000, -0.000000000000000000 ) ) ;
#1078 = CARTESIAN_POINT ( 'NONE',  ( -5.299999852478398665, -46.27508152002117470, -39.50000118980551633 ) ) ;
#1079 = EDGE_LOOP ( 'NONE', ( #1206, #1098, #868, #578 ) ) ;
#1080 = LINE ( 'NONE', #103, #715 ) ;
#1081 = APPLICATION_PROTOCOL_DEFINITION ( 'draft international standard', 'automotive_design', 1998, #996 ) ;
#1082 = DIRECTION ( 'NONE',  ( 1.606111199752450005E-31, -1.000000000000000000, -1.959217102279369698E-16 ) ) ;
#1083 = DIRECTION ( 'NONE',  ( -0.000000000000000000, 1.000000000000000000, -0.000000000000000000 ) ) ;
#1084 = ADVANCED_FACE ( 'NONE', ( #256 ), #359, .T. ) ;
#1085 = VERTEX_POINT ( 'NONE', #1214 ) ;
#1086 = DIRECTION ( 'NONE',  ( 0.000000000000000000, -1.000000000000000000, 0.000000000000000000 ) ) ;
#1087 = FACE_OUTER_BOUND ( 'NONE', #945, .T. ) ;
#1088 = DIRECTION ( 'NONE',  ( 1.000000000000000000, 0.000000000000000000, -7.888551657556060360E-31 ) ) ;
#1089 = DIRECTION ( 'NONE',  ( -0.000000000000000000, 1.000000000000000000, -0.000000000000000000 ) ) ;
#1090 = EDGE_CURVE ( 'NONE', #648, #210, #690, .T. ) ;
#1091 = VERTEX_POINT ( 'NONE', #154 ) ;
#1092 = AXIS2_PLACEMENT_3D ( 'NONE', #442, #643, #872 ) ;
#1093 = VECTOR ( 'NONE', #40, 1000.000000000000000 ) ;
#1094 = ORIENTED_EDGE ( 'NONE', *, *, #13, .F. ) ;
#1095 = CARTESIAN_POINT ( 'NONE',  ( -8.000000044703467594, -46.27508152002117470, 16.37898681621939900 ) ) ;
#1096 = DIRECTION ( 'NONE',  ( 0.9999999999994858557, -1.986641098592824170E-22, 1.013997426771979615E-06 ) ) ;
#1097 = CARTESIAN_POINT ( 'NONE',  ( 31.29667966274205781, -46.27508152002117470, 3.808059571793523581E-14 ) ) ;
#1098 = ORIENTED_EDGE ( 'NONE', *, *, #1090, .T. ) ;
#1099 = ORIENTED_EDGE ( 'NONE', *, *, #1131, .T. ) ;
#1100 = CARTESIAN_POINT ( 'NONE',  ( -1.084125059832903623E-29, 67.49999999999998579, 1.322471544038574439E-14 ) ) ;
#1101 = EDGE_CURVE ( 'NONE', #1132, #364, #249, .T. ) ;
#1102 = DIRECTION ( 'NONE',  ( 6.938893903907232322E-16, 0.000000000000000000, 1.000000000000000000 ) ) ;
#1103 = LINE ( 'NONE', #452, #60 ) ;
#1104 = CARTESIAN_POINT ( 'NONE',  ( 4.993750666299909824, 77.50000000000000000, -50.00624825336440438 ) ) ;
#1105 = DIRECTION ( 'NONE',  ( -0.6721949989449299556, 0.000000000000000000, 0.7403741509489818462 ) ) ;
#1106 = ORIENTED_EDGE ( 'NONE', *, *, #908, .T. ) ;
#1107 = CARTESIAN_POINT ( 'NONE',  ( 24.00046957425420047, 67.50000000000000000, -40.79785669972180528 ) ) ;
#1108 = EDGE_CURVE ( 'NONE', #377, #1128, #543, .T. ) ;
#1109 = DIRECTION ( 'NONE',  ( 0.000000000000000000, 0.000000000000000000, 1.000000000000000000 ) ) ;
#1110 = PRODUCT ( 'lower_shell', 'lower_shell', '', ( #553 ) ) ;
#1111 = PLANE ( 'NONE',  #740 ) ;
#1112 = CARTESIAN_POINT ( 'NONE',  ( -2.999919049057430342, 128.5999999999999943, 14.30799999999999983 ) ) ;
#1113 = AXIS2_PLACEMENT_3D ( 'NONE', #24, #134, #243 ) ;
#1114 = VERTEX_POINT ( 'NONE', #889 ) ;
#1115 = DIRECTION ( 'NONE',  ( 9.169740977663330499E-15, 1.959217102279369698E-16, -1.000000000000000000 ) ) ;
#1116 = VECTOR ( 'NONE', #1125, 1000.000000000000000 ) ;
#1117 = CARTESIAN_POINT ( 'NONE',  ( -8.000000044703460489, 77.50000000000000000, 11.37898681621940078 ) ) ;
#1118 = EDGE_CURVE ( 'NONE', #1310, #144, #141, .T. ) ;
#1119 = DIRECTION ( 'NONE',  ( 1.000000000000000000, 0.000000000000000000, 0.000000000000000000 ) ) ;
#1120 = EDGE_CURVE ( 'NONE', #1349, #782, #155, .T. ) ;
#1121 = ORIENTED_EDGE ( 'NONE', *, *, #608, .T. ) ;
#1122 = ORIENTED_EDGE ( 'NONE', *, *, #508, .F. ) ;
#1123 = VERTEX_POINT ( 'NONE', #590 ) ;
#1124 = DIRECTION ( 'NONE',  ( -1.000000000000000000, 0.000000000000000000, -1.216761526407840216E-15 ) ) ;
#1125 = DIRECTION ( 'NONE',  ( -3.688039094290997829E-08, 0.000000000000000000, 0.9999999999999993339 ) ) ;
#1126 = VERTEX_POINT ( 'NONE', #785 ) ;
#1127 = DIRECTION ( 'NONE',  ( 0.01009115787023659103, 0.000000000000000000, 0.9999490829701469519 ) ) ;
#1128 = VERTEX_POINT ( 'NONE', #886 ) ;
#1129 = CARTESIAN_POINT ( 'NONE',  ( 4.993750666299909824, 67.50000000000000000, -52.99999886006121130 ) ) ;
#1130 = LINE ( 'NONE', #275, #444 ) ;
#1131 = EDGE_CURVE ( 'NONE', #1123, #1350, #81, .T. ) ;
#1132 = VERTEX_POINT ( 'NONE', #127 ) ;
#1133 = VECTOR ( 'NONE', #114, 1000.000000000000000 ) ;
#1134 = AXIS2_PLACEMENT_3D ( 'NONE', #1150, #188, #1374 ) ;
#1135 = AXIS2_PLACEMENT_3D ( 'NONE', #1234, #272, #940 ) ;
#1136 = AXIS2_PLACEMENT_3D ( 'NONE', #1104, #591, #33 ) ;
#1137 = ORIENTED_EDGE ( 'NONE', *, *, #276, .T. ) ;
#1138 = CARTESIAN_POINT ( 'NONE',  ( -3.000000044703459601, -46.27508152002117470, 6.020888824057318622 ) ) ;
#1139 = VECTOR ( 'NONE', #1292, 1000.000000000000000 ) ;
#1140 = DIRECTION ( 'NONE',  ( -2.021348826591944908E-10, 1.000000000000000000, 0.000000000000000000 ) ) ;
#1141 = ORIENTED_EDGE ( 'NONE', *, *, #1101, .F. ) ;
#1142 = ADVANCED_FACE ( 'NONE', ( #360 ), #352, .F. ) ;
#1143 = PLANE ( 'NONE',  #472 ) ;
#1144 = LINE ( 'NONE', #1361, #1269 ) ;
#1145 = VERTEX_POINT ( 'NONE', #778 ) ;
#1146 = DIRECTION ( 'NONE',  ( 3.204747427460400254E-33, -1.000000000000000000, -2.049642507000284674E-16 ) ) ;
#1147 = EDGE_CURVE ( 'NONE', #415, #1175, #1323, .T. ) ;
#1148 = VERTEX_POINT ( 'NONE', #236 ) ;
#1149 = CARTESIAN_POINT ( 'NONE',  ( 0.1920809509425960016, 77.50000000000000000, 17.50000000000000000 ) ) ;
#1150 = CARTESIAN_POINT ( 'NONE',  ( -1.878986860922870150, 77.50000000000000000, 22.50000000000000000 ) ) ;
#1151 = ORIENTED_EDGE ( 'NONE', *, *, #660, .T. ) ;
#1152 = ORIENTED_EDGE ( 'NONE', *, *, #1212, .F. ) ;
#1153 = DIRECTION ( 'NONE',  ( 1.606111199752450005E-31, -1.000000000000000000, -1.959217102279369698E-16 ) ) ;
#1154 = FACE_OUTER_BOUND ( 'NONE', #697, .T. ) ;
#1155 = ORIENTED_EDGE ( 'NONE', *, *, #257, .T. ) ;
#1156 = VECTOR ( 'NONE', #902, 1000.000000000000000 ) ;
#1157 = CARTESIAN_POINT ( 'NONE',  ( 28.99991904905740014, 128.5999999999999943, 14.30799999999999983 ) ) ;
#1158 = PRODUCT_RELATED_PRODUCT_CATEGORY ( 'part', '', ( #1110 ) ) ;
#1159 = AXIS2_PLACEMENT_3D ( 'NONE', #959, #530, #555 ) ;
#1160 = DIRECTION ( 'NONE',  ( 9.169740977663330499E-15, 0.000000000000000000, -1.000000000000000000 ) ) ;
#1161 = VECTOR ( 'NONE', #1347, 1000.000000000000000 ) ;
#1162 = ORIENTED_EDGE ( 'NONE', *, *, #441, .F. ) ;
#1163 = CARTESIAN_POINT ( 'NONE',  ( -4.180962707746048654E-29, -46.27508152002117470, -52.99999886006120420 ) ) ;
#1164 = CARTESIAN_POINT ( 'NONE',  ( 31.29667966274205071, 67.50000000000000000, 3.269602312199499483 ) ) ;
#1165 = ORIENTED_EDGE ( 'NONE', *, *, #1305, .T. ) ;
#1166 = LINE ( 'NONE', #224, #1139 ) ;
#1167 = LINE ( 'NONE', #1193, #106 ) ;
#1168 = EDGE_CURVE ( 'NONE', #1169, #796, #1328, .T. ) ;
#1169 = VERTEX_POINT ( 'NONE', #259 ) ;
#1170 = LINE ( 'NONE', #1163, #351 ) ;
#1171 = CARTESIAN_POINT ( 'NONE',  ( -10.30006760591538573, 67.49999999999998579, 22.50000506991860050 ) ) ;
#1172 = ORIENTED_EDGE ( 'NONE', *, *, #1076, .T. ) ;
#1173 = PLANE ( 'NONE',  #1026 ) ;
#1174 = CARTESIAN_POINT ( 'NONE',  ( -1.309513680005122582, -46.27508152002117470, -39.49999714346282076 ) ) ;
#1175 = VERTEX_POINT ( 'NONE', #32 ) ;
#1176 = ORIENTED_EDGE ( 'NONE', *, *, #503, .F. ) ;
#1177 = EDGE_CURVE ( 'NONE', #782, #265, #1001, .T. ) ;
#1178 = CARTESIAN_POINT ( 'NONE',  ( -10.30004737303144857, 67.50000000000000000, 3.837728523826552607 ) ) ;
#1179 = DIRECTION ( 'NONE',  ( 1.000000000000000000, 0.000000000000000000, 0.000000000000000000 ) ) ;
#1180 = FACE_OUTER_BOUND ( 'NONE', #883, .T. ) ;
#1181 = LINE ( 'NONE', #565, #331 ) ;
#1182 = VECTOR ( 'NONE', #198, 1000.000000000000000 ) ;
#1183 = ORIENTED_EDGE ( 'NONE', *, *, #363, .T. ) ;
#1184 = DIRECTION ( 'NONE',  ( 1.000000000000000000, -6.178236835104631088E-33, 3.014299720074920036E-17 ) ) ;
#1185 = CARTESIAN_POINT ( 'NONE',  ( 27.36144456897879707, -46.27508152002117470, -44.49972745446670075 ) ) ;
#1186 = EDGE_CURVE ( 'NONE', #1303, #1350, #460, .T. ) ;
#1187 = DIRECTION ( 'NONE',  ( -0.9999999999994858557, 1.986641096873787814E-22, -1.013997425894569949E-06 ) ) ;
#1188 = LINE ( 'NONE', #226, #763 ) ;
#1189 = ORIENTED_EDGE ( 'NONE', *, *, #709, .T. ) ;
#1190 = FACE_OUTER_BOUND ( 'NONE', #635, .T. ) ;
#1191 = CARTESIAN_POINT ( 'NONE',  ( -2.999919049057417464, 67.49999999999998579, 14.30799999999999983 ) ) ;
#1192 = EDGE_CURVE ( 'NONE', #411, #488, #1216, .T. ) ;
#1193 = CARTESIAN_POINT ( 'NONE',  ( -12.18949343046143952, -46.27508152002117470, 12.18949343046145728 ) ) ;
#1194 = ORIENTED_EDGE ( 'NONE', *, *, #666, .F. ) ;
#1195 = ORIENTED_EDGE ( 'NONE', *, *, #180, .F. ) ;
#1196 = DIRECTION ( 'NONE',  ( 0.000000000000000000, -1.959217102279369698E-16, 1.000000000000000000 ) ) ;
#1197 = DIRECTION ( 'NONE',  ( 3.688039093805997352E-08, 0.000000000000000000, -0.9999999999999993339 ) ) ;
#1198 = LINE ( 'NONE', #808, #1358 ) ;
#1199 = EDGE_CURVE ( 'NONE', #144, #688, #569, .T. ) ;
#1200 = AXIS2_PLACEMENT_3D ( 'NONE', #562, #792, #251 ) ;
#1201 = VERTEX_POINT ( 'NONE', #147 ) ;
#1202 = VECTOR ( 'NONE', #1383, 1000.000000000000000 ) ;
#1203 = AXIS2_PLACEMENT_3D ( 'NONE', #1117, #484, #1333 ) ;
#1204 = EDGE_CURVE ( 'NONE', #980, #1148, #1103, .T. ) ;
#1205 = VECTOR ( 'NONE', #1019, 1000.000000000000000 ) ;
#1206 = ORIENTED_EDGE ( 'NONE', *, *, #69, .F. ) ;
#1207 = DIRECTION ( 'NONE',  ( 1.000000000000000000, 0.000000000000000000, 1.040772934498655399E-14 ) ) ;
#1208 = VECTOR ( 'NONE', #655, 1000.000000000000000 ) ;
#1209 = DIRECTION ( 'NONE',  ( 0.000000000000000000, -1.000000000000000000, 0.000000000000000000 ) ) ;
#1210 = FACE_OUTER_BOUND ( 'NONE', #1055, .T. ) ;
#1211 = FILL_AREA_STYLE_COLOUR ( '', #694 ) ;
#1212 = EDGE_CURVE ( 'NONE', #1047, #220, #252, .T. ) ;
#1213 = ORIENTED_EDGE ( 'NONE', *, *, #1186, .T. ) ;
#1214 = CARTESIAN_POINT ( 'NONE',  ( -5.299999852478398665, 67.50000000000000000, -39.50000118980551633 ) ) ;
#1215 = CARTESIAN_POINT ( 'NONE',  ( 27.36144456897879707, 67.50000000000000000, -44.49972745446670075 ) ) ;
#1216 = LINE ( 'NONE', #910, #306 ) ;
#1217 = CARTESIAN_POINT ( 'NONE',  ( 2.000000059604639890, 87.50000000000000000, -40.79828314055789917 ) ) ;
#1218 = ORIENTED_EDGE ( 'NONE', *, *, #642, .F. ) ;
#1219 = DIRECTION ( 'NONE',  ( -1.013997426771979615E-06, 0.000000000000000000, 0.9999999999994858557 ) ) ;
#1220 = ADVANCED_FACE ( 'NONE', ( #686 ), #582, .T. ) ;
#1221 = CARTESIAN_POINT ( 'NONE',  ( -5.300042857127182927, 77.50000000000000000, 3.258109548864113858 ) ) ;
#1222 = PLANE ( 'NONE',  #1203 ) ;
#1223 = DIRECTION ( 'NONE',  ( 1.606111199752450005E-31, -1.000000000000000000, -1.959217102279369698E-16 ) ) ;
#1224 = CARTESIAN_POINT ( 'NONE',  ( 4.512288124838123360E-05, -46.27508152002117470, -44.49999581557609929 ) ) ;
#1225 = AXIS2_PLACEMENT_3D ( 'NONE', #1313, #469, #1109 ) ;
#1226 = ORIENTED_EDGE ( 'NONE', *, *, #1101, .T. ) ;
#1227 = AXIS2_PLACEMENT_3D ( 'NONE', #76, #187, #1351 ) ;
#1228 = CARTESIAN_POINT ( 'NONE',  ( 1.380496540072310607E-29, -46.27508152002117470, 17.50000000000000000 ) ) ;
#1229 = CARTESIAN_POINT ( 'NONE',  ( -1.309513680005120140, 67.50000000000000000, -39.49999714346281365 ) ) ;
#1230 = EDGE_LOOP ( 'NONE', ( #878, #667, #1106, #1265 ) ) ;
#1231 = ORIENTED_EDGE ( 'NONE', *, *, #1037, .F. ) ;
#1232 = B_SPLINE_CURVE_WITH_KNOTS ( 'NONE', 3,
 ( #208, #964, #971, #1178 ),
 .UNSPECIFIED., .F., .F.,
 ( 4, 4 ),
 ( 0.000000000000000000, 1.000000000000000000 ),
 .UNSPECIFIED. ) ;
#1233 = CYLINDRICAL_SURFACE ( 'NONE', #958, 5.000000000000001776 ) ;
#1234 = CARTESIAN_POINT ( 'NONE',  ( 4.993750666299909824, 77.50000000000000000, -57.99999886006119709 ) ) ;
#1235 = ORIENTED_EDGE ( 'NONE', *, *, #819, .F. ) ;
#1236 = CARTESIAN_POINT ( 'NONE',  ( -10.29999966807629974, 77.50000000000000000, -44.50000625979500057 ) ) ;
#1237 = PLANE ( 'NONE',  #1336 ) ;
#1238 = ORIENTED_EDGE ( 'NONE', *, *, #458, .F. ) ;
#1239 = PLANE ( 'NONE',  #1135 ) ;
#1240 = ORIENTED_EDGE ( 'NONE', *, *, #975, .T. ) ;
#1241 = FACE_OUTER_BOUND ( 'NONE', #51, .T. ) ;
#1242 = PLANE ( 'NONE',  #982 ) ;
#1243 = AXIS2_PLACEMENT_3D ( 'NONE', #1284, #972, #1179 ) ;
#1244 = EDGE_CURVE ( 'NONE', #840, #1028, #478, .T. ) ;
#1245 = ORIENTED_EDGE ( 'NONE', *, *, #290, .F. ) ;
#1246 = AXIS2_PLACEMENT_3D ( 'NONE', #1304, #139, #1219 ) ;
#1247 = LINE ( 'NONE', #722, #41 ) ;
#1248 = STYLED_ITEM ( 'NONE', ( #374 ), #94 ) ;
#1249 = FACE_OUTER_BOUND ( 'NONE', #88, .T. ) ;
#1250 = ORIENTED_EDGE ( 'NONE', *, *, #826, .T. ) ;
#1251 = FACE_OUTER_BOUND ( 'NONE', #1051, .T. ) ;
#1252 = ORIENTED_EDGE ( 'NONE', *, *, #1244, .T. ) ;
#1253 = ADVANCED_FACE ( 'NONE', ( #799 ), #1222, .T. ) ;
#1254 = CARTESIAN_POINT ( 'NONE',  ( 28.99991904905740014, -46.27508152002117470, 0.000000000000000000 ) ) ;
#1255 = LINE ( 'NONE', #293, #646 ) ;
#1256 = ORIENTED_EDGE ( 'NONE', *, *, #788, .F. ) ;
#1257 = CARTESIAN_POINT ( 'NONE',  ( 29.00000043213350054, -46.27508152002117470, -2.287696659230257237E-29 ) ) ;
#1258 = CARTESIAN_POINT ( 'NONE',  ( -8.653959524528705316, -46.27508152002117470, 8.653959524528717751 ) ) ;
#1259 = ORIENTED_EDGE ( 'NONE', *, *, #842, .F. ) ;
#1260 = VERTEX_POINT ( 'NONE', #371 ) ;
#1261 = EDGE_CURVE ( 'NONE', #1073, #301, #806, .T. ) ;
#1262 = ORIENTED_EDGE ( 'NONE', *, *, #250, .T. ) ;
#1263 = CARTESIAN_POINT ( 'NONE',  ( 27.87898686092290035, 87.50000000000000000, 22.50000000000000000 ) ) ;
#1264 = CARTESIAN_POINT ( 'NONE',  ( -3.000000044703459601, 67.49999999999998579, 6.020888824057317734 ) ) ;
#1265 = ORIENTED_EDGE ( 'NONE', *, *, #480, .F. ) ;
#1266 = LINE ( 'NONE', #307, #1041 ) ;
#1267 = CARTESIAN_POINT ( 'NONE',  ( -10.30004737303144857, 67.50000000000000000, 3.837728523826552607 ) ) ;
#1268 = VERTEX_POINT ( 'NONE', #699 ) ;
#1269 = VECTOR ( 'NONE', #818, 1000.000000000000000 ) ;
#1270 = AXIS2_PLACEMENT_3D ( 'NONE', #758, #1153, #192 ) ;
#1271 = CARTESIAN_POINT ( 'NONE',  ( 4.993750666299909824, 87.50000000000000000, -52.99999886006120420 ) ) ;
#1272 = CIRCLE ( 'NONE', #894, 8.000470043640850903 ) ;
#1273 = DIRECTION ( 'NONE',  ( 0.000000000000000000, -1.000000000000000000, 0.000000000000000000 ) ) ;
#1274 = VECTOR ( 'NONE', #978, 1000.000000000000000 ) ;
#1275 = ORIENTED_EDGE ( 'NONE', *, *, #842, .T. ) ;
#1276 = FACE_OUTER_BOUND ( 'NONE', #1071, .T. ) ;
#1277 = CARTESIAN_POINT ( 'NONE',  ( -2.999919049057430342, 128.5999999999999943, 9.307999999999999829 ) ) ;
#1278 = ORIENTED_EDGE ( 'NONE', *, *, #1299, .T. ) ;
#1279 = CARTESIAN_POINT ( 'NONE',  ( 2.000000059604643443, -46.27508152002117470, -40.79828314055789207 ) ) ;
#1280 = LINE ( 'NONE', #640, #237 ) ;
#1281 = ADVANCED_FACE ( 'NONE', ( #1341 ), #706, .F. ) ;
#1282 = EDGE_LOOP ( 'NONE', ( #1309, #833, #677, #28 ) ) ;
#1283 = DIRECTION ( 'NONE',  ( -3.014299720074920036E-17, 0.000000000000000000, 1.000000000000000000 ) ) ;
#1284 = CARTESIAN_POINT ( 'NONE',  ( 0.000000000000000000, 0.000000000000000000, 0.000000000000000000 ) ) ;
#1285 = DIRECTION ( 'NONE',  ( -1.947804704249429930E-31, -1.000000000000000000, -2.049642507000294781E-16 ) ) ;
#1286 = LINE ( 'NONE', #968, #420 ) ;
#1287 = ADVANCED_FACE ( 'NONE', ( #1249 ), #1239, .T. ) ;
#1288 = ORIENTED_EDGE ( 'NONE', *, *, #7, .T. ) ;
#1289 = ADVANCED_FACE ( 'NONE', ( #278, #1357 ), #614, .T. ) ;
#1290 = FACE_OUTER_BOUND ( 'NONE', #1079, .T. ) ;
#1291 =( GEOMETRIC_REPRESENTATION_CONTEXT ( 3 ) GLOBAL_UNCERTAINTY_ASSIGNED_CONTEXT ( ( #987 ) ) GLOBAL_UNIT_ASSIGNED_CONTEXT ( ( #766, #222, #547 ) ) REPRESENTATION_CONTEXT ( 'NONE', 'WORKASPACE' ) );
#1292 = DIRECTION ( 'NONE',  ( 0.7071067811865480168, 0.000000000000000000, -0.7071067811865470176 ) ) ;
#1293 = AXIS2_PLACEMENT_3D ( 'NONE', #466, #1086, #991 ) ;
#1294 = DIRECTION ( 'NONE',  ( 1.606111199752450005E-31, -1.000000000000000000, -1.959217102279369698E-16 ) ) ;
#1295 = CIRCLE ( 'NONE', #784, 4.500000000000000000 ) ;
#1296 = AXIS2_PLACEMENT_3D ( 'NONE', #1236, #302, #280 ) ;
#1297 = ORIENTED_EDGE ( 'NONE', *, *, #828, .F. ) ;
#1298 = CARTESIAN_POINT ( 'NONE',  ( -2.999999940394989739, 77.50000000000000000, -44.49999885761410212 ) ) ;
#1299 = EDGE_CURVE ( 'NONE', #630, #227, #931, .T. ) ;
#1300 = DIRECTION ( 'NONE',  ( 1.000000000000000000, 0.000000000000000000, -5.548947959195800427E-16 ) ) ;
#1301 = CARTESIAN_POINT ( 'NONE',  ( 26.97949192431119769, 67.49999999999998579, 1.999999999999997780 ) ) ;
#1302 = ORIENTED_EDGE ( 'NONE', *, *, #321, .T. ) ;
#1303 = VERTEX_POINT ( 'NONE', #1365 ) ;
#1304 = CARTESIAN_POINT ( 'NONE',  ( -5.300042960653654767, 77.50000000000000000, 3.360206919936540970 ) ) ;
#1305 = EDGE_CURVE ( 'NONE', #1342, #314, #1255, .T. ) ;
#1306 = CARTESIAN_POINT ( 'NONE',  ( 29.00000043213350054, 77.50000000000000000, 9.307918616923940291 ) ) ;
#1307 = CARTESIAN_POINT ( 'NONE',  ( -3.000000044703459601, 87.50000000000000000, 9.307919004353930603 ) ) ;
#1308 = CYLINDRICAL_SURFACE ( 'NONE', #308, 4.499999999999997335 ) ;
#1309 = ORIENTED_EDGE ( 'NONE', *, *, #721, .F. ) ;
#1310 = VERTEX_POINT ( 'NONE', #874 ) ;
#1311 = LINE ( 'NONE', #568, #739 ) ;
#1312 = PLANE ( 'NONE',  #468 ) ;
#1313 = CARTESIAN_POINT ( 'NONE',  ( 36.29667966274204360, -46.27508152002117470, 0.000000000000000000 ) ) ;
#1314 = DIRECTION ( 'NONE',  ( 3.727088734919889908E-16, 1.959217102279369698E-16, -1.000000000000000000 ) ) ;
#1315 = EDGE_CURVE ( 'NONE', #124, #752, #961, .T. ) ;
#1316 = AXIS2_PLACEMENT_3D ( 'NONE', #176, #599, #500 ) ;
#1317 = CARTESIAN_POINT ( 'NONE',  ( -5.300042960653654767, 67.49999999999998579, 3.360206919936538750 ) ) ;
#1318 = VECTOR ( 'NONE', #206, 1000.000000000000000 ) ;
#1319 = ORIENTED_EDGE ( 'NONE', *, *, #31, .T. ) ;
#1320 = CARTESIAN_POINT ( 'NONE',  ( 0.1920809509425962236, -46.27508152002117470, 17.50000000000000000 ) ) ;
#1321 = CIRCLE ( 'NONE', #719, 4.999999999999997335 ) ;
#1322 = DIRECTION ( 'NONE',  ( 1.606111199752450005E-31, -1.000000000000000000, -1.959217102279369698E-16 ) ) ;
#1323 = LINE ( 'NONE', #575, #869 ) ;
#1324 = CARTESIAN_POINT ( 'NONE',  ( 27.87898686092290035, 77.50000000000000000, 22.50000000000000000 ) ) ;
#1325 = CARTESIAN_POINT ( 'NONE',  ( 29.00046957425375993, -46.27508152002117470, 2.810159789702231856E-13 ) ) ;
#1326 = VERTEX_POINT ( 'NONE', #431 ) ;
#1327 = DIRECTION ( 'NONE',  ( -2.454837864508209994E-13, 0.000000000000000000, 1.000000000000000000 ) ) ;
#1328 = LINE ( 'NONE', #1307, #626 ) ;
#1329 = LINE ( 'NONE', #1217, #130 ) ;
#1330 = DIRECTION ( 'NONE',  ( 1.000000000000000000, 1.606111199752451538E-31, -7.888551657556060360E-31 ) ) ;
#1331 = EDGE_LOOP ( 'NONE', ( #925, #369, #455, #610 ) ) ;
#1332 = EDGE_CURVE ( 'NONE', #1132, #668, #965, .T. ) ;
#1333 = DIRECTION ( 'NONE',  ( -3.727088734919889908E-16, 0.000000000000000000, 1.000000000000000000 ) ) ;
#1334 = DIRECTION ( 'NONE',  ( 7.888609052210119806E-31, -2.049642507000289605E-16, 1.000000000000000000 ) ) ;
#1335 = CARTESIAN_POINT ( 'NONE',  ( 20.99999953061340108, 67.50000000000000000, -52.99999886006121130 ) ) ;
#1336 = AXIS2_PLACEMENT_3D ( 'NONE', #801, #907, #362 ) ;
#1337 = AXIS2_PLACEMENT_3D ( 'NONE', #563, #693, #1014 ) ;
#1338 = ORIENTED_EDGE ( 'NONE', *, *, #634, .F. ) ;
#1339 = AXIS2_PLACEMENT_3D ( 'NONE', #71, #813, #84 ) ;
#1340 = ADVANCED_FACE ( 'NONE', ( #1154 ), #1057, .T. ) ;
#1341 = FACE_OUTER_BOUND ( 'NONE', #662, .T. ) ;
#1342 = VERTEX_POINT ( 'NONE', #1164 ) ;
#1343 = LINE ( 'NONE', #1257, #1072 ) ;
#1344 = LINE ( 'NONE', #368, #871 ) ;
#1345 = ORIENTED_EDGE ( 'NONE', *, *, #321, .F. ) ;
#1346 = ORIENTED_EDGE ( 'NONE', *, *, #451, .F. ) ;
#1347 = DIRECTION ( 'NONE',  ( 2.454837864508209994E-13, 0.000000000000000000, -1.000000000000000000 ) ) ;
#1348 = EDGE_CURVE ( 'NONE', #1175, #419, #1075, .T. ) ;
#1349 = VERTEX_POINT ( 'NONE', #864 ) ;
#1350 = VERTEX_POINT ( 'NONE', #948 ) ;
#1351 = DIRECTION ( 'NONE',  ( -0.9897433186107854608, 0.000000000000000000, 0.1428571428571540347 ) ) ;
#1352 = LINE ( 'NONE', #394, #1182 ) ;
#1353 = EDGE_CURVE ( 'NONE', #628, #1073, #1377, .T. ) ;
#1354 = VERTEX_POINT ( 'NONE', #1267 ) ;
#1355 = VECTOR ( 'NONE', #74, 1000.000000000000000 ) ;
#1356 = CIRCLE ( 'NONE', #152, 4.499999999999999112 ) ;
#1357 = FACE_BOUND ( 'NONE', #901, .T. ) ;
#1358 = VECTOR ( 'NONE', #260, 1000.000000000000000 ) ;
#1359 = EDGE_LOOP ( 'NONE', ( #1259, #233, #285, #775 ) ) ;
#1360 = LINE ( 'NONE', #817, #873 ) ;
#1361 = CARTESIAN_POINT ( 'NONE',  ( -1.309513680005120140, 87.50000000000000000, -39.49999714346280655 ) ) ;
#1362 = ORIENTED_EDGE ( 'NONE', *, *, #1363, .F. ) ;
#1363 = EDGE_CURVE ( 'NONE', #1310, #1354, #98, .T. ) ;
#1364 = ORIENTED_EDGE ( 'NONE', *, *, #473, .F. ) ;
#1365 = CARTESIAN_POINT ( 'NONE',  ( 29.00046957425429994, 67.50000000000000000, -49.99952881642030178 ) ) ;
#1366 = ORIENTED_EDGE ( 'NONE', *, *, #413, .T. ) ;
#1367 = DIRECTION ( 'NONE',  ( -7.888609052210119806E-31, 0.000000000000000000, -1.000000000000000000 ) ) ;
#1368 = CARTESIAN_POINT ( 'NONE',  ( 31.29667966274205071, -46.27508152002117470, -39.50000000000000000 ) ) ;
#1369 = ORIENTED_EDGE ( 'NONE', *, *, #240, .F. ) ;
#1370 = CARTESIAN_POINT ( 'NONE',  ( -2.999919049057420128, 67.50000000000000000, 9.307999999999999829 ) ) ;
#1371 = DIRECTION ( 'NONE',  ( -2.049642507000289605E-16, 1.000000000000000000, 0.000000000000000000 ) ) ;
#1372 = ORIENTED_EDGE ( 'NONE', *, *, #556, .T. ) ;
#1373 = CARTESIAN_POINT ( 'NONE',  ( -2.999919049057417464, 67.49999999999998579, 9.307999999999999829 ) ) ;
#1374 = DIRECTION ( 'NONE',  ( 0.000000000000000000, 1.000000000000000000, 0.000000000000000000 ) ) ;
#1375 = ORIENTED_EDGE ( 'NONE', *, *, #608, .F. ) ;
#1376 = CARTESIAN_POINT ( 'NONE',  ( 27.30923938676749785, 67.50000000000000000, -39.50000000000000711 ) ) ;
#1377 = LINE ( 'NONE', #317, #803 ) ;
#1378 = CIRCLE ( 'NONE', #1200, 4.499999999999999112 ) ;
#1379 = EDGE_CURVE ( 'NONE', #8, #112, #115, .T. ) ;
#1380 = ORIENTED_EDGE ( 'NONE', *, *, #276, .F. ) ;
#1381 = VECTOR ( 'NONE', #1032, 1000.000000000000000 ) ;
#1382 = DIRECTION ( 'NONE',  ( 0.4490018906271652788, 0.000000000000000000, 0.8935308065272462574 ) ) ;
#1383 = DIRECTION ( 'NONE',  ( 0.7071067811865480168, 0.000000000000000000, -0.7071067811865470176 ) ) ;
#1384 = VECTOR ( 'NONE', #1300, 1000.000000000000000 ) ;
#1385 = VERTEX_POINT ( 'NONE', #850 ) ;
ENDSEC;
END-ISO-10303-21;
