ISO-10303-21;
HEADER;
/* Generated by software containing ST-Developer
 * from STEP Tools, Inc. (www.steptools.com) 
 */

FILE_DESCRIPTION(
/* description */ (''),
/* implementation_level */ '2;1');

FILE_NAME(
/* name */ 'membrane_holder.step',
/* time_stamp */ '2026-04-02T23:33:26-07:00',
/* author */ (''),
/* organization */ (''),
/* preprocessor_version */ 'ST-DEVELOPER v20.1',
/* originating_system */ 'Autodesk Translation Framework v14.24.0.0',
/* authorisation */ '');

FILE_SCHEMA (('AUTOMOTIVE_DESIGN { 1 0 10303 214 3 1 1 }'));
ENDSEC;

DATA;
#10=MECHANICAL_DESIGN_GEOMETRIC_PRESENTATION_REPRESENTATION('',(#13),#593);
#11=SHAPE_REPRESENTATION_RELATIONSHIP('SRR','None',#600,#12);
#12=ADVANCED_BREP_SHAPE_REPRESENTATION('',(#14),#592);
#13=STYLED_ITEM('',(#609),#14);
#14=MANIFOLD_SOLID_BREP('Membrane Holder',#369);
#15=FACE_BOUND('',#41,.T.);
#16=FACE_BOUND('',#52,.T.);
#17=FACE_BOUND('',#54,.T.);
#18=FACE_OUTER_BOUND('',#37,.T.);
#19=FACE_OUTER_BOUND('',#38,.T.);
#20=FACE_OUTER_BOUND('',#39,.T.);
#21=FACE_OUTER_BOUND('',#40,.T.);
#22=FACE_OUTER_BOUND('',#42,.T.);
#23=FACE_OUTER_BOUND('',#43,.T.);
#24=FACE_OUTER_BOUND('',#44,.T.);
#25=FACE_OUTER_BOUND('',#45,.T.);
#26=FACE_OUTER_BOUND('',#46,.T.);
#27=FACE_OUTER_BOUND('',#47,.T.);
#28=FACE_OUTER_BOUND('',#48,.T.);
#29=FACE_OUTER_BOUND('',#49,.T.);
#30=FACE_OUTER_BOUND('',#50,.T.);
#31=FACE_OUTER_BOUND('',#51,.T.);
#32=FACE_OUTER_BOUND('',#53,.T.);
#33=FACE_OUTER_BOUND('',#55,.T.);
#34=FACE_OUTER_BOUND('',#56,.T.);
#35=FACE_OUTER_BOUND('',#57,.T.);
#36=FACE_OUTER_BOUND('',#58,.T.);
#37=EDGE_LOOP('',(#235,#236,#237,#238));
#38=EDGE_LOOP('',(#239,#240,#241,#242));
#39=EDGE_LOOP('',(#243,#244,#245,#246));
#40=EDGE_LOOP('',(#247,#248,#249,#250,#251,#252,#253,#254));
#41=EDGE_LOOP('',(#255,#256,#257,#258));
#42=EDGE_LOOP('',(#259,#260,#261,#262));
#43=EDGE_LOOP('',(#263,#264,#265,#266));
#44=EDGE_LOOP('',(#267,#268,#269,#270));
#45=EDGE_LOOP('',(#271,#272,#273,#274));
#46=EDGE_LOOP('',(#275,#276,#277,#278));
#47=EDGE_LOOP('',(#279,#280,#281,#282));
#48=EDGE_LOOP('',(#283,#284,#285,#286));
#49=EDGE_LOOP('',(#287,#288,#289,#290));
#50=EDGE_LOOP('',(#291,#292,#293,#294));
#51=EDGE_LOOP('',(#295,#296,#297,#298));
#52=EDGE_LOOP('',(#299,#300,#301,#302));
#53=EDGE_LOOP('',(#303,#304,#305,#306,#307,#308,#309,#310));
#54=EDGE_LOOP('',(#311,#312,#313,#314));
#55=EDGE_LOOP('',(#315,#316,#317,#318));
#56=EDGE_LOOP('',(#319,#320,#321,#322));
#57=EDGE_LOOP('',(#323,#324,#325,#326));
#58=EDGE_LOOP('',(#327,#328,#329,#330));
#59=LINE('',#494,#107);
#60=LINE('',#496,#108);
#61=LINE('',#498,#109);
#62=LINE('',#499,#110);
#63=LINE('',#503,#111);
#64=LINE('',#505,#112);
#65=LINE('',#507,#113);
#66=LINE('',#508,#114);
#67=LINE('',#510,#115);
#68=LINE('',#511,#116);
#69=LINE('',#514,#117);
#70=LINE('',#516,#118);
#71=LINE('',#518,#119);
#72=LINE('',#520,#120);
#73=LINE('',#521,#121);
#74=LINE('',#524,#122);
#75=LINE('',#526,#123);
#76=LINE('',#528,#124);
#77=LINE('',#529,#125);
#78=LINE('',#532,#126);
#79=LINE('',#533,#127);
#80=LINE('',#536,#128);
#81=LINE('',#537,#129);
#82=LINE('',#540,#130);
#83=LINE('',#541,#131);
#84=LINE('',#545,#132);
#85=LINE('',#546,#133);
#86=LINE('',#547,#134);
#87=LINE('',#550,#135);
#88=LINE('',#551,#136);
#89=LINE('',#554,#137);
#90=LINE('',#555,#138);
#91=LINE('',#559,#139);
#92=LINE('',#561,#140);
#93=LINE('',#563,#141);
#94=LINE('',#564,#142);
#95=LINE('',#567,#143);
#96=LINE('',#569,#144);
#97=LINE('',#570,#145);
#98=LINE('',#573,#146);
#99=LINE('',#574,#147);
#100=LINE('',#577,#148);
#101=LINE('',#578,#149);
#102=LINE('',#579,#150);
#103=LINE('',#581,#151);
#104=LINE('',#583,#152);
#105=LINE('',#584,#153);
#106=LINE('',#586,#154);
#107=VECTOR('',#406,10.);
#108=VECTOR('',#407,10.);
#109=VECTOR('',#408,10.);
#110=VECTOR('',#409,10.);
#111=VECTOR('',#412,10.);
#112=VECTOR('',#413,10.);
#113=VECTOR('',#414,10.);
#114=VECTOR('',#415,10.);
#115=VECTOR('',#418,10.);
#116=VECTOR('',#419,10.);
#117=VECTOR('',#422,10.);
#118=VECTOR('',#423,10.);
#119=VECTOR('',#424,10.);
#120=VECTOR('',#425,10.);
#121=VECTOR('',#426,10.);
#122=VECTOR('',#427,10.);
#123=VECTOR('',#428,10.);
#124=VECTOR('',#429,10.);
#125=VECTOR('',#430,10.);
#126=VECTOR('',#433,10.);
#127=VECTOR('',#434,10.);
#128=VECTOR('',#437,10.);
#129=VECTOR('',#438,10.);
#130=VECTOR('',#441,10.);
#131=VECTOR('',#442,10.);
#132=VECTOR('',#445,10.);
#133=VECTOR('',#446,10.);
#134=VECTOR('',#447,10.);
#135=VECTOR('',#450,10.);
#136=VECTOR('',#451,10.);
#137=VECTOR('',#454,10.);
#138=VECTOR('',#455,10.);
#139=VECTOR('',#458,10.);
#140=VECTOR('',#459,10.);
#141=VECTOR('',#460,10.);
#142=VECTOR('',#461,10.);
#143=VECTOR('',#464,10.);
#144=VECTOR('',#465,10.);
#145=VECTOR('',#466,10.);
#146=VECTOR('',#469,10.);
#147=VECTOR('',#470,10.);
#148=VECTOR('',#473,10.);
#149=VECTOR('',#474,10.);
#150=VECTOR('',#475,10.);
#151=VECTOR('',#478,10.);
#152=VECTOR('',#479,10.);
#153=VECTOR('',#480,10.);
#154=VECTOR('',#483,10.);
#155=VERTEX_POINT('',#492);
#156=VERTEX_POINT('',#493);
#157=VERTEX_POINT('',#495);
#158=VERTEX_POINT('',#497);
#159=VERTEX_POINT('',#501);
#160=VERTEX_POINT('',#502);
#161=VERTEX_POINT('',#504);
#162=VERTEX_POINT('',#506);
#163=VERTEX_POINT('',#513);
#164=VERTEX_POINT('',#515);
#165=VERTEX_POINT('',#517);
#166=VERTEX_POINT('',#519);
#167=VERTEX_POINT('',#522);
#168=VERTEX_POINT('',#523);
#169=VERTEX_POINT('',#525);
#170=VERTEX_POINT('',#527);
#171=VERTEX_POINT('',#531);
#172=VERTEX_POINT('',#535);
#173=VERTEX_POINT('',#539);
#174=VERTEX_POINT('',#543);
#175=VERTEX_POINT('',#544);
#176=VERTEX_POINT('',#549);
#177=VERTEX_POINT('',#553);
#178=VERTEX_POINT('',#557);
#179=VERTEX_POINT('',#558);
#180=VERTEX_POINT('',#560);
#181=VERTEX_POINT('',#562);
#182=VERTEX_POINT('',#566);
#183=VERTEX_POINT('',#568);
#184=VERTEX_POINT('',#572);
#185=VERTEX_POINT('',#576);
#186=VERTEX_POINT('',#582);
#187=EDGE_CURVE('',#155,#156,#59,.T.);
#188=EDGE_CURVE('',#155,#157,#60,.T.);
#189=EDGE_CURVE('',#158,#157,#61,.T.);
#190=EDGE_CURVE('',#156,#158,#62,.T.);
#191=EDGE_CURVE('',#159,#160,#63,.T.);
#192=EDGE_CURVE('',#161,#159,#64,.T.);
#193=EDGE_CURVE('',#162,#161,#65,.T.);
#194=EDGE_CURVE('',#162,#160,#66,.T.);
#195=EDGE_CURVE('',#160,#155,#67,.T.);
#196=EDGE_CURVE('',#157,#162,#68,.T.);
#197=EDGE_CURVE('',#161,#163,#69,.T.);
#198=EDGE_CURVE('',#164,#163,#70,.T.);
#199=EDGE_CURVE('',#165,#164,#71,.T.);
#200=EDGE_CURVE('',#165,#166,#72,.T.);
#201=EDGE_CURVE('',#166,#158,#73,.T.);
#202=EDGE_CURVE('',#167,#168,#74,.T.);
#203=EDGE_CURVE('',#168,#169,#75,.T.);
#204=EDGE_CURVE('',#169,#170,#76,.T.);
#205=EDGE_CURVE('',#167,#170,#77,.T.);
#206=EDGE_CURVE('',#159,#171,#78,.T.);
#207=EDGE_CURVE('',#163,#171,#79,.T.);
#208=EDGE_CURVE('',#166,#172,#80,.T.);
#209=EDGE_CURVE('',#172,#156,#81,.T.);
#210=EDGE_CURVE('',#171,#173,#82,.T.);
#211=EDGE_CURVE('',#173,#164,#83,.T.);
#212=EDGE_CURVE('',#174,#175,#84,.T.);
#213=EDGE_CURVE('',#169,#175,#85,.T.);
#214=EDGE_CURVE('',#168,#174,#86,.T.);
#215=EDGE_CURVE('',#175,#176,#87,.T.);
#216=EDGE_CURVE('',#170,#176,#88,.T.);
#217=EDGE_CURVE('',#174,#177,#89,.T.);
#218=EDGE_CURVE('',#177,#167,#90,.T.);
#219=EDGE_CURVE('',#178,#179,#91,.T.);
#220=EDGE_CURVE('',#178,#180,#92,.T.);
#221=EDGE_CURVE('',#180,#181,#93,.T.);
#222=EDGE_CURVE('',#179,#181,#94,.T.);
#223=EDGE_CURVE('',#179,#182,#95,.T.);
#224=EDGE_CURVE('',#181,#183,#96,.T.);
#225=EDGE_CURVE('',#182,#183,#97,.T.);
#226=EDGE_CURVE('',#173,#184,#98,.T.);
#227=EDGE_CURVE('',#184,#165,#99,.T.);
#228=EDGE_CURVE('',#185,#180,#100,.T.);
#229=EDGE_CURVE('',#183,#185,#101,.T.);
#230=EDGE_CURVE('',#176,#177,#102,.T.);
#231=EDGE_CURVE('',#172,#184,#103,.T.);
#232=EDGE_CURVE('',#182,#186,#104,.T.);
#233=EDGE_CURVE('',#186,#178,#105,.T.);
#234=EDGE_CURVE('',#186,#185,#106,.T.);
#235=ORIENTED_EDGE('',*,*,#187,.F.);
#236=ORIENTED_EDGE('',*,*,#188,.T.);
#237=ORIENTED_EDGE('',*,*,#189,.F.);
#238=ORIENTED_EDGE('',*,*,#190,.F.);
#239=ORIENTED_EDGE('',*,*,#191,.F.);
#240=ORIENTED_EDGE('',*,*,#192,.F.);
#241=ORIENTED_EDGE('',*,*,#193,.F.);
#242=ORIENTED_EDGE('',*,*,#194,.T.);
#243=ORIENTED_EDGE('',*,*,#195,.F.);
#244=ORIENTED_EDGE('',*,*,#194,.F.);
#245=ORIENTED_EDGE('',*,*,#196,.F.);
#246=ORIENTED_EDGE('',*,*,#188,.F.);
#247=ORIENTED_EDGE('',*,*,#189,.T.);
#248=ORIENTED_EDGE('',*,*,#196,.T.);
#249=ORIENTED_EDGE('',*,*,#193,.T.);
#250=ORIENTED_EDGE('',*,*,#197,.T.);
#251=ORIENTED_EDGE('',*,*,#198,.F.);
#252=ORIENTED_EDGE('',*,*,#199,.F.);
#253=ORIENTED_EDGE('',*,*,#200,.T.);
#254=ORIENTED_EDGE('',*,*,#201,.T.);
#255=ORIENTED_EDGE('',*,*,#202,.T.);
#256=ORIENTED_EDGE('',*,*,#203,.T.);
#257=ORIENTED_EDGE('',*,*,#204,.T.);
#258=ORIENTED_EDGE('',*,*,#205,.F.);
#259=ORIENTED_EDGE('',*,*,#192,.T.);
#260=ORIENTED_EDGE('',*,*,#206,.T.);
#261=ORIENTED_EDGE('',*,*,#207,.F.);
#262=ORIENTED_EDGE('',*,*,#197,.F.);
#263=ORIENTED_EDGE('',*,*,#190,.T.);
#264=ORIENTED_EDGE('',*,*,#201,.F.);
#265=ORIENTED_EDGE('',*,*,#208,.T.);
#266=ORIENTED_EDGE('',*,*,#209,.T.);
#267=ORIENTED_EDGE('',*,*,#207,.T.);
#268=ORIENTED_EDGE('',*,*,#210,.T.);
#269=ORIENTED_EDGE('',*,*,#211,.T.);
#270=ORIENTED_EDGE('',*,*,#198,.T.);
#271=ORIENTED_EDGE('',*,*,#212,.T.);
#272=ORIENTED_EDGE('',*,*,#213,.F.);
#273=ORIENTED_EDGE('',*,*,#203,.F.);
#274=ORIENTED_EDGE('',*,*,#214,.T.);
#275=ORIENTED_EDGE('',*,*,#215,.T.);
#276=ORIENTED_EDGE('',*,*,#216,.F.);
#277=ORIENTED_EDGE('',*,*,#204,.F.);
#278=ORIENTED_EDGE('',*,*,#213,.T.);
#279=ORIENTED_EDGE('',*,*,#217,.F.);
#280=ORIENTED_EDGE('',*,*,#214,.F.);
#281=ORIENTED_EDGE('',*,*,#202,.F.);
#282=ORIENTED_EDGE('',*,*,#218,.F.);
#283=ORIENTED_EDGE('',*,*,#219,.F.);
#284=ORIENTED_EDGE('',*,*,#220,.T.);
#285=ORIENTED_EDGE('',*,*,#221,.T.);
#286=ORIENTED_EDGE('',*,*,#222,.F.);
#287=ORIENTED_EDGE('',*,*,#223,.F.);
#288=ORIENTED_EDGE('',*,*,#222,.T.);
#289=ORIENTED_EDGE('',*,*,#224,.T.);
#290=ORIENTED_EDGE('',*,*,#225,.F.);
#291=ORIENTED_EDGE('',*,*,#199,.T.);
#292=ORIENTED_EDGE('',*,*,#211,.F.);
#293=ORIENTED_EDGE('',*,*,#226,.T.);
#294=ORIENTED_EDGE('',*,*,#227,.T.);
#295=ORIENTED_EDGE('',*,*,#224,.F.);
#296=ORIENTED_EDGE('',*,*,#221,.F.);
#297=ORIENTED_EDGE('',*,*,#228,.F.);
#298=ORIENTED_EDGE('',*,*,#229,.F.);
#299=ORIENTED_EDGE('',*,*,#217,.T.);
#300=ORIENTED_EDGE('',*,*,#230,.F.);
#301=ORIENTED_EDGE('',*,*,#215,.F.);
#302=ORIENTED_EDGE('',*,*,#212,.F.);
#303=ORIENTED_EDGE('',*,*,#187,.T.);
#304=ORIENTED_EDGE('',*,*,#209,.F.);
#305=ORIENTED_EDGE('',*,*,#231,.T.);
#306=ORIENTED_EDGE('',*,*,#226,.F.);
#307=ORIENTED_EDGE('',*,*,#210,.F.);
#308=ORIENTED_EDGE('',*,*,#206,.F.);
#309=ORIENTED_EDGE('',*,*,#191,.T.);
#310=ORIENTED_EDGE('',*,*,#195,.T.);
#311=ORIENTED_EDGE('',*,*,#223,.T.);
#312=ORIENTED_EDGE('',*,*,#232,.T.);
#313=ORIENTED_EDGE('',*,*,#233,.T.);
#314=ORIENTED_EDGE('',*,*,#219,.T.);
#315=ORIENTED_EDGE('',*,*,#233,.F.);
#316=ORIENTED_EDGE('',*,*,#234,.T.);
#317=ORIENTED_EDGE('',*,*,#228,.T.);
#318=ORIENTED_EDGE('',*,*,#220,.F.);
#319=ORIENTED_EDGE('',*,*,#232,.F.);
#320=ORIENTED_EDGE('',*,*,#225,.T.);
#321=ORIENTED_EDGE('',*,*,#229,.T.);
#322=ORIENTED_EDGE('',*,*,#234,.F.);
#323=ORIENTED_EDGE('',*,*,#218,.T.);
#324=ORIENTED_EDGE('',*,*,#205,.T.);
#325=ORIENTED_EDGE('',*,*,#216,.T.);
#326=ORIENTED_EDGE('',*,*,#230,.T.);
#327=ORIENTED_EDGE('',*,*,#208,.F.);
#328=ORIENTED_EDGE('',*,*,#200,.F.);
#329=ORIENTED_EDGE('',*,*,#227,.F.);
#330=ORIENTED_EDGE('',*,*,#231,.F.);
#331=PLANE('',#383);
#332=PLANE('',#384);
#333=PLANE('',#385);
#334=PLANE('',#386);
#335=PLANE('',#387);
#336=PLANE('',#388);
#337=PLANE('',#389);
#338=PLANE('',#390);
#339=PLANE('',#391);
#340=PLANE('',#392);
#341=PLANE('',#393);
#342=PLANE('',#394);
#343=PLANE('',#395);
#344=PLANE('',#396);
#345=PLANE('',#397);
#346=PLANE('',#398);
#347=PLANE('',#399);
#348=PLANE('',#400);
#349=PLANE('',#401);
#350=ADVANCED_FACE('',(#18),#331,.F.);
#351=ADVANCED_FACE('',(#19),#332,.F.);
#352=ADVANCED_FACE('',(#20),#333,.F.);
#353=ADVANCED_FACE('',(#21,#15),#334,.T.);
#354=ADVANCED_FACE('',(#22),#335,.T.);
#355=ADVANCED_FACE('',(#23),#336,.T.);
#356=ADVANCED_FACE('',(#24),#337,.T.);
#357=ADVANCED_FACE('',(#25),#338,.F.);
#358=ADVANCED_FACE('',(#26),#339,.F.);
#359=ADVANCED_FACE('',(#27),#340,.F.);
#360=ADVANCED_FACE('',(#28),#341,.F.);
#361=ADVANCED_FACE('',(#29),#342,.F.);
#362=ADVANCED_FACE('',(#30),#343,.T.);
#363=ADVANCED_FACE('',(#31,#16),#344,.F.);
#364=ADVANCED_FACE('',(#32,#17),#345,.T.);
#365=ADVANCED_FACE('',(#33),#346,.F.);
#366=ADVANCED_FACE('',(#34),#347,.F.);
#367=ADVANCED_FACE('',(#35),#348,.F.);
#368=ADVANCED_FACE('',(#36),#349,.F.);
#369=CLOSED_SHELL('',(#350,#351,#352,#353,#354,#355,#356,#357,#358,#359,
#360,#361,#362,#363,#364,#365,#366,#367,#368));
#370=DERIVED_UNIT_ELEMENT(#372,1.);
#371=DERIVED_UNIT_ELEMENT(#595,-3.);
#372=(
MASS_UNIT()
NAMED_UNIT(*)
SI_UNIT(.KILO.,.GRAM.)
);
#373=DERIVED_UNIT((#370,#371));
#374=MEASURE_REPRESENTATION_ITEM('density measure',
POSITIVE_RATIO_MEASURE(7850.),#373);
#375=PROPERTY_DEFINITION_REPRESENTATION(#380,#377);
#376=PROPERTY_DEFINITION_REPRESENTATION(#381,#378);
#377=REPRESENTATION('material name',(#379),#592);
#378=REPRESENTATION('density',(#374),#592);
#379=DESCRIPTIVE_REPRESENTATION_ITEM('Steel','Steel');
#380=PROPERTY_DEFINITION('material property','material name',#602);
#381=PROPERTY_DEFINITION('material property','density of part',#602);
#382=AXIS2_PLACEMENT_3D('',#490,#402,#403);
#383=AXIS2_PLACEMENT_3D('',#491,#404,#405);
#384=AXIS2_PLACEMENT_3D('',#500,#410,#411);
#385=AXIS2_PLACEMENT_3D('',#509,#416,#417);
#386=AXIS2_PLACEMENT_3D('',#512,#420,#421);
#387=AXIS2_PLACEMENT_3D('',#530,#431,#432);
#388=AXIS2_PLACEMENT_3D('',#534,#435,#436);
#389=AXIS2_PLACEMENT_3D('',#538,#439,#440);
#390=AXIS2_PLACEMENT_3D('',#542,#443,#444);
#391=AXIS2_PLACEMENT_3D('',#548,#448,#449);
#392=AXIS2_PLACEMENT_3D('',#552,#452,#453);
#393=AXIS2_PLACEMENT_3D('',#556,#456,#457);
#394=AXIS2_PLACEMENT_3D('',#565,#462,#463);
#395=AXIS2_PLACEMENT_3D('',#571,#467,#468);
#396=AXIS2_PLACEMENT_3D('',#575,#471,#472);
#397=AXIS2_PLACEMENT_3D('',#580,#476,#477);
#398=AXIS2_PLACEMENT_3D('',#585,#481,#482);
#399=AXIS2_PLACEMENT_3D('',#587,#484,#485);
#400=AXIS2_PLACEMENT_3D('',#588,#486,#487);
#401=AXIS2_PLACEMENT_3D('',#589,#488,#489);
#402=DIRECTION('axis',(0.,0.,1.));
#403=DIRECTION('refdir',(1.,0.,0.));
#404=DIRECTION('center_axis',(0.,-1.,0.));
#405=DIRECTION('ref_axis',(-1.,0.,0.));
#406=DIRECTION('',(0.,0.,1.));
#407=DIRECTION('',(-1.,0.,0.));
#408=DIRECTION('',(0.,0.,-1.));
#409=DIRECTION('',(-1.,0.,0.));
#410=DIRECTION('center_axis',(0.,1.,0.));
#411=DIRECTION('ref_axis',(1.,0.,0.));
#412=DIRECTION('',(0.,0.,-1.));
#413=DIRECTION('',(1.,0.,0.));
#414=DIRECTION('',(0.,0.,1.));
#415=DIRECTION('',(1.,0.,0.));
#416=DIRECTION('center_axis',(0.,0.,-1.));
#417=DIRECTION('ref_axis',(-1.,0.,0.));
#418=DIRECTION('',(0.,-1.,0.));
#419=DIRECTION('',(0.,1.,0.));
#420=DIRECTION('center_axis',(-1.,0.,0.));
#421=DIRECTION('ref_axis',(0.,0.,1.));
#422=DIRECTION('',(0.,1.,0.));
#423=DIRECTION('',(0.,0.,1.));
#424=DIRECTION('',(0.,1.,0.));
#425=DIRECTION('',(0.,0.,1.));
#426=DIRECTION('',(0.,1.,0.));
#427=DIRECTION('',(0.,1.,0.));
#428=DIRECTION('',(0.,0.,1.));
#429=DIRECTION('',(0.,-1.,0.));
#430=DIRECTION('',(0.,0.,1.));
#431=DIRECTION('center_axis',(0.,0.,1.));
#432=DIRECTION('ref_axis',(1.,0.,0.));
#433=DIRECTION('',(0.,1.,0.));
#434=DIRECTION('',(1.,0.,0.));
#435=DIRECTION('center_axis',(0.,0.,1.));
#436=DIRECTION('ref_axis',(1.,0.,0.));
#437=DIRECTION('',(1.,0.,0.));
#438=DIRECTION('',(0.,1.,0.));
#439=DIRECTION('center_axis',(0.,1.,0.));
#440=DIRECTION('ref_axis',(0.,0.,1.));
#441=DIRECTION('',(0.,0.,-1.));
#442=DIRECTION('',(-1.,0.,0.));
#443=DIRECTION('center_axis',(0.,1.,0.));
#444=DIRECTION('ref_axis',(0.,0.,1.));
#445=DIRECTION('',(0.,0.,1.));
#446=DIRECTION('',(1.,0.,0.));
#447=DIRECTION('',(1.,0.,0.));
#448=DIRECTION('center_axis',(0.,0.,1.));
#449=DIRECTION('ref_axis',(0.,-1.,0.));
#450=DIRECTION('',(0.,-1.,0.));
#451=DIRECTION('',(1.,0.,0.));
#452=DIRECTION('center_axis',(0.,0.,-1.));
#453=DIRECTION('ref_axis',(0.,1.,0.));
#454=DIRECTION('',(0.,-1.,0.));
#455=DIRECTION('',(-1.,0.,0.));
#456=DIRECTION('center_axis',(0.,1.,0.));
#457=DIRECTION('ref_axis',(0.,0.,-1.));
#458=DIRECTION('',(0.,0.,-1.));
#459=DIRECTION('',(-1.,0.,0.));
#460=DIRECTION('',(0.,0.,-1.));
#461=DIRECTION('',(-1.,0.,0.));
#462=DIRECTION('center_axis',(0.,0.,-1.));
#463=DIRECTION('ref_axis',(0.,-1.,0.));
#464=DIRECTION('',(0.,-1.,0.));
#465=DIRECTION('',(0.,-1.,0.));
#466=DIRECTION('',(-1.,0.,0.));
#467=DIRECTION('center_axis',(0.,0.,-1.));
#468=DIRECTION('ref_axis',(-1.,0.,0.));
#469=DIRECTION('',(0.,-1.,0.));
#470=DIRECTION('',(-1.,0.,0.));
#471=DIRECTION('center_axis',(-1.,0.,0.));
#472=DIRECTION('ref_axis',(0.,0.,1.));
#473=DIRECTION('',(0.,1.,8.04509438134171E-18));
#474=DIRECTION('',(0.,8.49660478029457E-17,1.));
#475=DIRECTION('',(0.,0.,-1.));
#476=DIRECTION('center_axis',(1.,0.,0.));
#477=DIRECTION('ref_axis',(0.,0.,-1.));
#478=DIRECTION('',(0.,0.,-1.));
#479=DIRECTION('',(0.,8.49660478029457E-17,1.));
#480=DIRECTION('',(0.,1.,8.04509438134171E-18));
#481=DIRECTION('center_axis',(0.,-8.04509438134171E-18,1.));
#482=DIRECTION('ref_axis',(0.,1.,8.04509438134171E-18));
#483=DIRECTION('',(-1.,0.,0.));
#484=DIRECTION('center_axis',(0.,-1.,8.49660478029457E-17));
#485=DIRECTION('ref_axis',(0.,8.49660478029457E-17,1.));
#486=DIRECTION('center_axis',(0.,-1.,0.));
#487=DIRECTION('ref_axis',(0.,0.,-1.));
#488=DIRECTION('center_axis',(-9.07432013862403E-33,1.,-1.55704582412066E-24));
#489=DIRECTION('ref_axis',(0.,1.55704582412066E-24,1.));
#490=CARTESIAN_POINT('',(0.,0.,0.));
#491=CARTESIAN_POINT('Origin',(21.9844215940122,21.5575386295088,4.5));
#492=CARTESIAN_POINT('',(16.75,21.5575386295088,-3.88578058618805E-15));
#493=CARTESIAN_POINT('',(16.75,21.5575386295088,0.299999999999998));
#494=CARTESIAN_POINT('',(16.75,21.5575386295088,2.4));
#495=CARTESIAN_POINT('',(14.25,21.5575386295088,-3.88578058618805E-15));
#496=CARTESIAN_POINT('',(21.9844215940122,21.5575386295088,-3.88578058618805E-15));
#497=CARTESIAN_POINT('',(14.25,21.5575386295088,0.299999999999998));
#498=CARTESIAN_POINT('',(14.25,21.5575386295088,-10.4));
#499=CARTESIAN_POINT('',(18.1172107970061,21.5575386295088,0.299999999999998));
#500=CARTESIAN_POINT('Origin',(1.49408689111741,62.1113260623215,4.49999999999999));
#501=CARTESIAN_POINT('',(16.75,62.1113260623215,0.299999999999998));
#502=CARTESIAN_POINT('',(16.75,62.1113260623215,-1.38777878078145E-14));
#503=CARTESIAN_POINT('',(16.75,62.1113260623215,2.39999999999999));
#504=CARTESIAN_POINT('',(14.25,62.1113260623215,0.299999999999998));
#505=CARTESIAN_POINT('',(7.87204344555871,62.1113260623215,0.299999999999998));
#506=CARTESIAN_POINT('',(14.25,62.1113260623215,-1.38777878078145E-14));
#507=CARTESIAN_POINT('',(14.25,62.1113260623215,-10.4));
#508=CARTESIAN_POINT('',(1.49408689111741,62.1113260623215,-1.38777878078145E-14));
#509=CARTESIAN_POINT('Origin',(11.7392542425648,41.8344323459152,-1.38777878078145E-14));
#510=CARTESIAN_POINT('',(16.75,-4.08278382704242,-1.38777878078145E-14));
#511=CARTESIAN_POINT('',(14.25,-4.08278382704242,-1.33226762955019E-14));
#512=CARTESIAN_POINT('Origin',(14.25,-50.,-25.3));
#513=CARTESIAN_POINT('',(14.25,75.,0.299999999999998));
#514=CARTESIAN_POINT('',(14.25,0.,0.299999999999998));
#515=CARTESIAN_POINT('',(14.25,75.,-25.3));
#516=CARTESIAN_POINT('',(14.25,75.,-25.3));
#517=CARTESIAN_POINT('',(14.25,-50.,-25.3));
#518=CARTESIAN_POINT('',(14.25,0.,-25.3));
#519=CARTESIAN_POINT('',(14.25,-50.,0.299999999999998));
#520=CARTESIAN_POINT('',(14.25,-50.,-25.3));
#521=CARTESIAN_POINT('',(14.25,0.,0.299999999999998));
#522=CARTESIAN_POINT('',(14.25,-45.,-20.3));
#523=CARTESIAN_POINT('',(14.25,70.,-20.3));
#524=CARTESIAN_POINT('',(14.25,2.5,-20.3));
#525=CARTESIAN_POINT('',(14.25,70.,-4.7));
#526=CARTESIAN_POINT('',(14.25,70.,-22.8));
#527=CARTESIAN_POINT('',(14.25,-45.,-4.7));
#528=CARTESIAN_POINT('',(14.25,5.,-4.7));
#529=CARTESIAN_POINT('',(14.25,-45.,-18.9));
#530=CARTESIAN_POINT('Origin',(14.25,-50.,0.299999999999998));
#531=CARTESIAN_POINT('',(16.75,75.,0.299999999999998));
#532=CARTESIAN_POINT('',(16.75,0.,0.299999999999998));
#533=CARTESIAN_POINT('',(14.25,75.,0.299999999999998));
#534=CARTESIAN_POINT('Origin',(14.25,-50.,0.299999999999998));
#535=CARTESIAN_POINT('',(16.75,-50.,0.299999999999998));
#536=CARTESIAN_POINT('',(14.25,-50.,0.299999999999998));
#537=CARTESIAN_POINT('',(16.75,0.,0.299999999999998));
#538=CARTESIAN_POINT('Origin',(15.5,75.,-12.5));
#539=CARTESIAN_POINT('',(16.75,75.,-25.3));
#540=CARTESIAN_POINT('',(16.75,75.,0.299999999999998));
#541=CARTESIAN_POINT('',(16.75,75.,-25.3));
#542=CARTESIAN_POINT('Origin',(14.25,70.,-20.3));
#543=CARTESIAN_POINT('',(16.25,70.,-20.3));
#544=CARTESIAN_POINT('',(16.25,70.,-4.7));
#545=CARTESIAN_POINT('',(16.25,70.,-16.4));
#546=CARTESIAN_POINT('',(14.25,70.,-4.7));
#547=CARTESIAN_POINT('',(14.25,70.,-20.3));
#548=CARTESIAN_POINT('Origin',(14.25,70.,-4.7));
#549=CARTESIAN_POINT('',(16.25,-45.,-4.7));
#550=CARTESIAN_POINT('',(16.25,53.75,-4.7));
#551=CARTESIAN_POINT('',(14.25,-45.,-4.7));
#552=CARTESIAN_POINT('Origin',(14.25,5.,-20.3));
#553=CARTESIAN_POINT('',(16.25,-45.,-20.3));
#554=CARTESIAN_POINT('',(16.25,5.,-20.3));
#555=CARTESIAN_POINT('',(15.25,-45.,-20.3));
#556=CARTESIAN_POINT('Origin',(16.75,72.,-2.7));
#557=CARTESIAN_POINT('',(16.75,72.,-2.7));
#558=CARTESIAN_POINT('',(16.75,72.,-22.3));
#559=CARTESIAN_POINT('',(16.75,72.,-1.2));
#560=CARTESIAN_POINT('',(16.25,72.,-2.7));
#561=CARTESIAN_POINT('',(16.75,72.,-2.7));
#562=CARTESIAN_POINT('',(16.25,72.,-22.3));
#563=CARTESIAN_POINT('',(16.25,72.,-2.7));
#564=CARTESIAN_POINT('',(16.75,72.,-22.3));
#565=CARTESIAN_POINT('Origin',(16.75,72.,-22.3));
#566=CARTESIAN_POINT('',(16.75,-47.,-22.3));
#567=CARTESIAN_POINT('',(16.75,36.,-22.3));
#568=CARTESIAN_POINT('',(16.25,-47.,-22.3));
#569=CARTESIAN_POINT('',(16.25,5.,-22.3));
#570=CARTESIAN_POINT('',(16.75,-47.,-22.3));
#571=CARTESIAN_POINT('Origin',(16.75,0.,-25.3));
#572=CARTESIAN_POINT('',(16.75,-50.,-25.3));
#573=CARTESIAN_POINT('',(16.75,5.,-25.3));
#574=CARTESIAN_POINT('',(16.75,-50.,-25.3));
#575=CARTESIAN_POINT('Origin',(16.25,-12.5,-12.5));
#576=CARTESIAN_POINT('',(16.25,-47.,-2.7));
#577=CARTESIAN_POINT('',(16.25,3.,-2.7));
#578=CARTESIAN_POINT('',(16.25,-47.,-22.3));
#579=CARTESIAN_POINT('',(16.25,-45.,-12.5));
#580=CARTESIAN_POINT('Origin',(16.75,-50.,0.299999999999998));
#581=CARTESIAN_POINT('',(16.75,-50.,0.299999999999998));
#582=CARTESIAN_POINT('',(16.75,-47.,-2.7));
#583=CARTESIAN_POINT('',(16.75,-47.,-11.));
#584=CARTESIAN_POINT('',(16.75,-48.5,-2.7));
#585=CARTESIAN_POINT('Origin',(16.75,-47.,-2.7));
#586=CARTESIAN_POINT('',(16.75,-47.,-2.7));
#587=CARTESIAN_POINT('Origin',(16.75,-47.,-22.3));
#588=CARTESIAN_POINT('Origin',(14.25,-45.,-4.7));
#589=CARTESIAN_POINT('Origin',(13.,-50.,-12.5));
#590=UNCERTAINTY_MEASURE_WITH_UNIT(LENGTH_MEASURE(0.01),#594,
'DISTANCE_ACCURACY_VALUE',
'Maximum model space distance between geometric entities at asserted c
onnectivities');
#591=UNCERTAINTY_MEASURE_WITH_UNIT(LENGTH_MEASURE(0.01),#594,
'DISTANCE_ACCURACY_VALUE',
'Maximum model space distance between geometric entities at asserted c
onnectivities');
#592=(
GEOMETRIC_REPRESENTATION_CONTEXT(3)
GLOBAL_UNCERTAINTY_ASSIGNED_CONTEXT((#590))
GLOBAL_UNIT_ASSIGNED_CONTEXT((#594,#596,#597))
REPRESENTATION_CONTEXT('','3D')
);
#593=(
GEOMETRIC_REPRESENTATION_CONTEXT(3)
GLOBAL_UNCERTAINTY_ASSIGNED_CONTEXT((#591))
GLOBAL_UNIT_ASSIGNED_CONTEXT((#594,#596,#597))
REPRESENTATION_CONTEXT('','3D')
);
#594=(
LENGTH_UNIT()
NAMED_UNIT(*)
SI_UNIT(.MILLI.,.METRE.)
);
#595=(
LENGTH_UNIT()
NAMED_UNIT(*)
SI_UNIT($,.METRE.)
);
#596=(
NAMED_UNIT(*)
PLANE_ANGLE_UNIT()
SI_UNIT($,.RADIAN.)
);
#597=(
NAMED_UNIT(*)
SI_UNIT($,.STERADIAN.)
SOLID_ANGLE_UNIT()
);
#598=SHAPE_DEFINITION_REPRESENTATION(#599,#600);
#599=PRODUCT_DEFINITION_SHAPE('',$,#602);
#600=SHAPE_REPRESENTATION('',(#382),#592);
#601=PRODUCT_DEFINITION_CONTEXT('part definition',#606,'design');
#602=PRODUCT_DEFINITION('Membrane Holder','Membrane Holder',#603,#601);
#603=PRODUCT_DEFINITION_FORMATION('',$,#608);
#604=PRODUCT_RELATED_PRODUCT_CATEGORY('Membrane Holder',
'Membrane Holder',(#608));
#605=APPLICATION_PROTOCOL_DEFINITION('international standard',
'automotive_design',2009,#606);
#606=APPLICATION_CONTEXT(
'Core Data for Automotive Mechanical Design Process');
#607=PRODUCT_CONTEXT('part definition',#606,'mechanical');
#608=PRODUCT('Membrane Holder','Membrane Holder',$,(#607));
#609=PRESENTATION_STYLE_ASSIGNMENT((#610));
#610=SURFACE_STYLE_USAGE(.BOTH.,#611);
#611=SURFACE_SIDE_STYLE('',(#612));
#612=SURFACE_STYLE_FILL_AREA(#613);
#613=FILL_AREA_STYLE('Steel - Satin',(#614));
#614=FILL_AREA_STYLE_COLOUR('Steel - Satin',#615);
#615=COLOUR_RGB('Steel - Satin',0.627450980392157,0.627450980392157,0.627450980392157);
ENDSEC;
END-ISO-10303-21;
