ISO-10303-21;
HEADER;
FILE_DESCRIPTION (( 'STEP AP214' ),
    '1' );
FILE_NAME ('retaining_pin.STEP',
    '2026-08-31T04:37:43',
    ( '' ),
    ( '' ),
    'SwSTEP 2.0',
    'SolidWorks 2026',
    '' );
FILE_SCHEMA (( 'AUTOMOTIVE_DESIGN' ));
ENDSEC;

DATA;
#1 = DIRECTION ( 'NONE',  ( -1.000000000000000000, -6.689539017187639213E-48, -1.665330301773000018E-16 ) ) ;
#2 = DIRECTION ( 'NONE',  ( 1.000000000000000000, 7.184379795184759127E-48, 0.000000000000000000 ) ) ;
#3 = EDGE_CURVE ( 'NONE', #80, #189, #27, .T. ) ;
#4 = CARTESIAN_POINT ( 'NONE',  ( 2.000040043590700201, -25.00000000000698819, -11.49999999999998224 ) ) ;
#5 = VERTEX_POINT ( 'NONE', #160 ) ;
#6 = ORIENTED_EDGE ( 'NONE', *, *, #49, .F. ) ;
#7 = LINE ( 'NONE', #128, #115 ) ;
#8 = CARTESIAN_POINT ( 'NONE',  ( 1.000040043590699312, -23.75000000000709832, -11.49999999999998224 ) ) ;
#9 = CARTESIAN_POINT ( 'NONE',  ( 13.00004004359069931, -25.00000000000698819, -11.49999999999998224 ) ) ;
#10 = STYLED_ITEM ( 'NONE', ( #220 ), #137 ) ;
#11 = DIRECTION ( 'NONE',  ( 0.000000000000000000, 1.000000000000000000, 0.000000000000000000 ) ) ;
#12 = CONICAL_SURFACE ( 'NONE', #136, 1.749999999999890532, 0.7853981633974461696 ) ;
#13 = CARTESIAN_POINT ( 'NONE',  ( 1.500040043590699756, -26.75000000000687805, -11.49999999999998224 ) ) ;
#14 = PRODUCT_CONTEXT ( 'NONE', #183, 'mechanical' ) ;
#15 = VERTEX_POINT ( 'NONE', #104 ) ;
#16 =( LENGTH_UNIT ( ) NAMED_UNIT ( * ) SI_UNIT ( .MILLI., .METRE. ) );
#17 = EDGE_LOOP ( 'NONE', ( #58, #103, #37, #176 ) ) ;
#18 = ADVANCED_FACE ( 'NONE', ( #175 ), #144, .T. ) ;
#19 = AXIS2_PLACEMENT_3D ( 'NONE', #163, #46, #11 ) ;
#20 = CARTESIAN_POINT ( 'NONE',  ( 19.00004004359070109, -26.25000000000687805, -11.49999999999998224 ) ) ;
#21 = EDGE_CURVE ( 'NONE', #189, #5, #42, .T. ) ;
#22 = PLANE ( 'NONE',  #69 ) ;
#23 = CARTESIAN_POINT ( 'NONE',  ( 1.000040043590699312, -26.25000000000687805, -11.49999999999998224 ) ) ;
#24 = CARTESIAN_POINT ( 'NONE',  ( 19.00004004359070109, -25.00000000000698819, -11.49999999999998224 ) ) ;
#25 = APPLICATION_CONTEXT ( 'automotive_design' ) ;
#26 = AXIS2_PLACEMENT_3D ( 'NONE', #151, #60, #126 ) ;
#27 = LINE ( 'NONE', #99, #186 ) ;
#28 = LINE ( 'NONE', #217, #33 ) ;
#29 = PRODUCT_DEFINITION_FORMATION_WITH_SPECIFIED_SOURCE ( 'ANY', '', #198, .NOT_KNOWN. ) ;
#30 = ADVANCED_FACE ( 'NONE', ( #73 ), #143, .F. ) ;
#31 = LINE ( 'NONE', #127, #213 ) ;
#32 = FACE_OUTER_BOUND ( 'NONE', #123, .T. ) ;
#33 = VECTOR ( 'NONE', #89, 1000.000000000000114 ) ;
#34 = DIRECTION ( 'NONE',  ( 0.000000000000000000, 1.000000000000000000, 0.000000000000000000 ) ) ;
#35 = CIRCLE ( 'NONE', #149, 1.249999999999890088 ) ;
#36 = ORIENTED_EDGE ( 'NONE', *, *, #147, .T. ) ;
#37 = ORIENTED_EDGE ( 'NONE', *, *, #3, .T. ) ;
#38 = ORIENTED_EDGE ( 'NONE', *, *, #3, .F. ) ;
#39 = CARTESIAN_POINT ( 'NONE',  ( 1.000040043590699312, -25.00000000000698819, -11.49999999999998224 ) ) ;
#40 = CARTESIAN_POINT ( 'NONE',  ( 18.50004004359070109, -25.00000000000698819, -11.49999999999998224 ) ) ;
#41 = VERTEX_POINT ( 'NONE', #179 ) ;
#42 = CIRCLE ( 'NONE', #155, 2.249999999999890754 ) ;
#43 = VERTEX_POINT ( 'NONE', #20 ) ;
#44 = DIRECTION ( 'NONE',  ( 0.000000000000000000, 1.000000000000000000, 0.000000000000000000 ) ) ;
#45 = ADVANCED_FACE ( 'NONE', ( #177 ), #22, .T. ) ;
#46 = DIRECTION ( 'NONE',  ( 1.000000000000000000, 6.414627473855909168E-48, 1.665330301773000018E-16 ) ) ;
#47 = ADVANCED_BREP_SHAPE_REPRESENTATION ( 'retaining_pin', ( #137, #100 ), #168 ) ;
#48 = DIRECTION ( 'NONE',  ( 1.000000000000000000, 6.414627473855909168E-48, 4.213487288236649548E-96 ) ) ;
#49 = EDGE_CURVE ( 'NONE', #5, #189, #94, .T. ) ;
#50 = CARTESIAN_POINT ( 'NONE',  ( 18.00004004359070109, -25.00000000000698819, -11.49999999999998224 ) ) ;
#51 = CIRCLE ( 'NONE', #224, 1.249999999999890088 ) ;
#52 = DIRECTION ( 'NONE',  ( 0.000000000000000000, 0.000000000000000000, 1.000000000000000000 ) ) ;
#53 = ORIENTED_EDGE ( 'NONE', *, *, #165, .T. ) ;
#54 = SHAPE_DEFINITION_REPRESENTATION ( #91, #47 ) ;
#55 = ORIENTED_EDGE ( 'NONE', *, *, #116, .T. ) ;
#56 = VERTEX_POINT ( 'NONE', #23 ) ;
#57 = EDGE_CURVE ( 'NONE', #80, #56, #193, .T. ) ;
#58 = ORIENTED_EDGE ( 'NONE', *, *, #165, .F. ) ;
#59 = DIRECTION ( 'NONE',  ( -7.184379795184759127E-48, 1.000000000000000000, 0.000000000000000000 ) ) ;
#60 = DIRECTION ( 'NONE',  ( -1.000000000000000000, -6.689539017187639213E-48, -1.665330301773000018E-16 ) ) ;
#61 =( GEOMETRIC_REPRESENTATION_CONTEXT ( 3 ) GLOBAL_UNCERTAINTY_ASSIGNED_CONTEXT ( ( #162 ) ) GLOBAL_UNIT_ASSIGNED_CONTEXT ( ( #187, #182, #76 ) ) REPRESENTATION_CONTEXT ( 'NONE', 'WORKASPACE' ) );
#62 = SURFACE_SIDE_STYLE ('',( #218 ) ) ;
#63 = FILL_AREA_STYLE_COLOUR ( '', #105 ) ;
#64 = DIRECTION ( 'NONE',  ( 0.000000000000000000, 1.000000000000000000, 0.000000000000000000 ) ) ;
#65 = EDGE_CURVE ( 'NONE', #43, #15, #51, .T. ) ;
#66 = ORIENTED_EDGE ( 'NONE', *, *, #200, .T. ) ;
#67 = APPLICATION_PROTOCOL_DEFINITION ( 'draft international standard', 'automotive_design', 1998, #183 ) ;
#68 = EDGE_CURVE ( 'NONE', #15, #82, #31, .T. ) ;
#69 = AXIS2_PLACEMENT_3D ( 'NONE', #24, #85, #70 ) ;
#70 = DIRECTION ( 'NONE',  ( -7.184379795184759127E-48, 1.000000000000000000, 0.000000000000000000 ) ) ;
#71 = DIRECTION ( 'NONE',  ( 0.000000000000000000, 1.000000000000000000, 0.000000000000000000 ) ) ;
#72 = ORIENTED_EDGE ( 'NONE', *, *, #68, .T. ) ;
#73 = FACE_OUTER_BOUND ( 'NONE', #158, .T. ) ;
#74 = AXIS2_PLACEMENT_3D ( 'NONE', #9, #184, #34 ) ;
#75 = PRODUCT_DEFINITION ( 'UNKNOWN', '', #29, #202 ) ;
#76 =( NAMED_UNIT ( * ) SI_UNIT ( $, .STERADIAN. ) SOLID_ANGLE_UNIT ( ) );
#77 = DIRECTION ( 'NONE',  ( -1.000000000000000000, -7.184379795184759127E-48, 0.000000000000000000 ) ) ;
#78 = DIRECTION ( 'NONE',  ( -0.7071067811865489050, 0.7071067811865460184, -1.177566349299130158E-16 ) ) ;
#79 = DIRECTION ( 'NONE',  ( 0.7071067811865489050, -0.7071067811865460184, 2.043522405534621718E-16 ) ) ;
#80 = VERTEX_POINT ( 'NONE', #8 ) ;
#81 = DIRECTION ( 'NONE',  ( 0.000000000000000000, 1.000000000000000000, 0.000000000000000000 ) ) ;
#82 = VERTEX_POINT ( 'NONE', #161 ) ;
#83 = CONICAL_SURFACE ( 'NONE', #134, 1.749999999999890532, 0.7853981633974461696 ) ;
#84 = AXIS2_PLACEMENT_3D ( 'NONE', #164, #48, #93 ) ;
#85 = DIRECTION ( 'NONE',  ( 1.000000000000000000, 7.184379795184759127E-48, 0.000000000000000000 ) ) ;
#86 = ORIENTED_EDGE ( 'NONE', *, *, #57, .F. ) ;
#87 = ORIENTED_EDGE ( 'NONE', *, *, #122, .F. ) ;
#88 = ORIENTED_EDGE ( 'NONE', *, *, #141, .F. ) ;
#89 = DIRECTION ( 'NONE',  ( -0.7071067811865489050, -0.7071067811865460184, -2.043522405534621718E-16 ) ) ;
#90 = CARTESIAN_POINT ( 'NONE',  ( 19.00004004359070109, -25.00000000000698819, -11.49999999999998224 ) ) ;
#91 = PRODUCT_DEFINITION_SHAPE ( 'NONE', 'NONE',  #75 ) ;
#92 = CARTESIAN_POINT ( 'NONE',  ( 1.500040043590699756, -25.00000000000698819, -11.49999999999998224 ) ) ;
#93 = DIRECTION ( 'NONE',  ( 0.000000000000000000, 1.000000000000000000, 0.000000000000000000 ) ) ;
#94 = CIRCLE ( 'NONE', #124, 2.249999999999890754 ) ;
#95 = VECTOR ( 'NONE', #79, 1000.000000000000114 ) ;
#96 = ORIENTED_EDGE ( 'NONE', *, *, #200, .F. ) ;
#97 = ADVANCED_FACE ( 'NONE', ( #111 ), #83, .T. ) ;
#98 = EDGE_LOOP ( 'NONE', ( #6, #66, #159, #88 ) ) ;
#99 = CARTESIAN_POINT ( 'NONE',  ( 1.500040043590699756, -23.25000000000709832, -11.49999999999998224 ) ) ;
#100 = AXIS2_PLACEMENT_3D ( 'NONE', #203, #52, #114 ) ;
#101 = ORIENTED_EDGE ( 'NONE', *, *, #21, .F. ) ;
#102 = ADVANCED_FACE ( 'NONE', ( #32 ), #197, .T. ) ;
#103 = ORIENTED_EDGE ( 'NONE', *, *, #210, .T. ) ;
#104 = CARTESIAN_POINT ( 'NONE',  ( 19.00004004359070109, -23.75000000000709832, -11.49999999999998224 ) ) ;
#105 = COLOUR_RGB ( '',0.7921568627450980005, 0.8196078431372548767, 0.9333333333333333481 ) ;
#106 = PRESENTATION_LAYER_ASSIGNMENT (  '', '', ( #10 ) ) ;
#107 = ORIENTED_EDGE ( 'NONE', *, *, #57, .T. ) ;
#108 = FACE_OUTER_BOUND ( 'NONE', #208, .T. ) ;
#109 = FACE_OUTER_BOUND ( 'NONE', #98, .T. ) ;
#110 = ADVANCED_FACE ( 'NONE', ( #109 ), #216, .T. ) ;
#111 = FACE_OUTER_BOUND ( 'NONE', #131, .T. ) ;
#112 = DIRECTION ( 'NONE',  ( 0.000000000000000000, 1.000000000000000000, 0.000000000000000000 ) ) ;
#113 = AXIS2_PLACEMENT_3D ( 'NONE', #140, #211, #192 ) ;
#114 = DIRECTION ( 'NONE',  ( 1.000000000000000000, 0.000000000000000000, 0.000000000000000000 ) ) ;
#115 = VECTOR ( 'NONE', #201, 1000.000000000000000 ) ;
#116 = EDGE_CURVE ( 'NONE', #43, #41, #28, .T. ) ;
#117 = ORIENTED_EDGE ( 'NONE', *, *, #116, .F. ) ;
#118 = CONICAL_SURFACE ( 'NONE', #26, 1.749999999999890532, 0.7853981633974461696 ) ;
#119 = ORIENTED_EDGE ( 'NONE', *, *, #65, .F. ) ;
#120 = DIRECTION ( 'NONE',  ( -1.000000000000000000, -6.414627473855909168E-48, -4.213487288236649548E-96 ) ) ;
#121 = ORIENTED_EDGE ( 'NONE', *, *, #122, .T. ) ;
#122 = EDGE_CURVE ( 'NONE', #15, #43, #178, .T. ) ;
#123 = EDGE_LOOP ( 'NONE', ( #96, #101, #212, #194 ) ) ;
#124 = AXIS2_PLACEMENT_3D ( 'NONE', #139, #209, #71 ) ;
#125 = CIRCLE ( 'NONE', #215, 2.249999999999890754 ) ;
#126 = DIRECTION ( 'NONE',  ( 0.000000000000000000, 1.000000000000000000, 0.000000000000000000 ) ) ;
#127 = CARTESIAN_POINT ( 'NONE',  ( 18.50004004359070109, -23.25000000000709832, -11.49999999999998224 ) ) ;
#128 = CARTESIAN_POINT ( 'NONE',  ( 13.00004004359069931, -22.75000000000709832, -11.49999999999998224 ) ) ;
#129 =( NAMED_UNIT ( * ) PLANE_ANGLE_UNIT ( ) SI_UNIT ( $, .RADIAN. ) );
#130 = DIRECTION ( 'NONE',  ( 1.000000000000000000, 7.184379795184759127E-48, 0.000000000000000000 ) ) ;
#131 = EDGE_LOOP ( 'NONE', ( #107, #53, #135, #38 ) ) ;
#132 = APPLICATION_PROTOCOL_DEFINITION ( 'draft international standard', 'automotive_design', 1998, #25 ) ;
#133 = PRODUCT_RELATED_PRODUCT_CATEGORY ( 'part', '', ( #198 ) ) ;
#134 = AXIS2_PLACEMENT_3D ( 'NONE', #92, #146, #199 ) ;
#135 = ORIENTED_EDGE ( 'NONE', *, *, #49, .T. ) ;
#136 = AXIS2_PLACEMENT_3D ( 'NONE', #181, #207, #81 ) ;
#137 = MANIFOLD_SOLID_BREP ( 'Stock-penetrolyzer_actuator-1', #153 ) ;
#138 = EDGE_CURVE ( 'NONE', #41, #82, #195, .T. ) ;
#139 = CARTESIAN_POINT ( 'NONE',  ( 2.000040043590700201, -25.00000000000698819, -11.49999999999998224 ) ) ;
#140 = CARTESIAN_POINT ( 'NONE',  ( 1.000040043590699312, -25.00000000000698819, -11.49999999999998224 ) ) ;
#141 = EDGE_CURVE ( 'NONE', #189, #82, #7, .T. ) ;
#142 = CARTESIAN_POINT ( 'NONE',  ( 19.00004004359070109, -25.00000000000698819, -11.49999999999998224 ) ) ;
#143 = PLANE ( 'NONE',  #188 ) ;
#144 = CONICAL_SURFACE ( 'NONE', #166, 1.749999999999890532, 0.7853981633974461696 ) ;
#145 = DIRECTION ( 'NONE',  ( 1.000000000000000000, 6.414627473855909168E-48, 4.213487288236649548E-96 ) ) ;
#146 = DIRECTION ( 'NONE',  ( 1.000000000000000000, 6.689539017187639213E-48, 1.665330301773000018E-16 ) ) ;
#147 = EDGE_CURVE ( 'NONE', #82, #41, #125, .T. ) ;
#148 = FILL_AREA_STYLE ('',( #63 ) ) ;
#149 = AXIS2_PLACEMENT_3D ( 'NONE', #154, #130, #174 ) ;
#150 = SURFACE_STYLE_USAGE ( .BOTH. , #62 ) ;
#151 = CARTESIAN_POINT ( 'NONE',  ( 18.50004004359070109, -25.00000000000698819, -11.49999999999998224 ) ) ;
#152 =( NAMED_UNIT ( * ) SI_UNIT ( $, .STERADIAN. ) SOLID_ANGLE_UNIT ( ) );
#153 = CLOSED_SHELL ( 'NONE', ( #167, #110, #97, #30, #173, #45, #102, #18 ) ) ;
#154 = CARTESIAN_POINT ( 'NONE',  ( 1.000040043590699312, -25.00000000000698819, -11.49999999999998224 ) ) ;
#155 = AXIS2_PLACEMENT_3D ( 'NONE', #4, #120, #190 ) ;
#156 = ORIENTED_EDGE ( 'NONE', *, *, #210, .F. ) ;
#157 = ORIENTED_EDGE ( 'NONE', *, *, #68, .F. ) ;
#158 = EDGE_LOOP ( 'NONE', ( #86, #156 ) ) ;
#159 = ORIENTED_EDGE ( 'NONE', *, *, #147, .F. ) ;
#160 = CARTESIAN_POINT ( 'NONE',  ( 2.000040043590700201, -27.25000000000687805, -11.49999999999998224 ) ) ;
#161 = CARTESIAN_POINT ( 'NONE',  ( 18.00004004359070109, -22.75000000000709832, -11.49999999999998224 ) ) ;
#162 = UNCERTAINTY_MEASURE_WITH_UNIT (LENGTH_MEASURE( 1.000000000000000082E-05 ), #187, 'distance_accuracy_value', 'NONE');
#163 = CARTESIAN_POINT ( 'NONE',  ( 13.00004004359069931, -25.00000000000698819, -11.49999999999998224 ) ) ;
#164 = CARTESIAN_POINT ( 'NONE',  ( 18.00004004359070109, -25.00000000000698819, -11.49999999999998224 ) ) ;
#165 = EDGE_CURVE ( 'NONE', #56, #5, #169, .T. ) ;
#166 = AXIS2_PLACEMENT_3D ( 'NONE', #40, #1, #180 ) ;
#167 = ADVANCED_FACE ( 'NONE', ( #108 ), #118, .T. ) ;
#168 =( GEOMETRIC_REPRESENTATION_CONTEXT ( 3 ) GLOBAL_UNCERTAINTY_ASSIGNED_CONTEXT ( ( #222 ) ) GLOBAL_UNIT_ASSIGNED_CONTEXT ( ( #16, #129, #152 ) ) REPRESENTATION_CONTEXT ( 'NONE', 'WORKASPACE' ) );
#169 = LINE ( 'NONE', #13, #95 ) ;
#170 = CARTESIAN_POINT ( 'NONE',  ( 2.000040043590700201, -22.75000000000710187, -11.49999999999998224 ) ) ;
#171 = DIRECTION ( 'NONE',  ( 1.000000000000000000, 6.414627473855909168E-48, 1.665330301773000018E-16 ) ) ;
#172 = CARTESIAN_POINT ( 'NONE',  ( 13.00004004359069931, -27.25000000000687805, -11.49999999999998224 ) ) ;
#173 = ADVANCED_FACE ( 'NONE', ( #196 ), #12, .T. ) ;
#174 = DIRECTION ( 'NONE',  ( 0.000000000000000000, 1.000000000000000000, 0.000000000000000000 ) ) ;
#175 = FACE_OUTER_BOUND ( 'NONE', #204, .T. ) ;
#176 = ORIENTED_EDGE ( 'NONE', *, *, #21, .T. ) ;
#177 = FACE_OUTER_BOUND ( 'NONE', #191, .T. ) ;
#178 = CIRCLE ( 'NONE', #206, 1.249999999999890088 ) ;
#179 = CARTESIAN_POINT ( 'NONE',  ( 18.00004004359070109, -27.25000000000687805, -11.49999999999998224 ) ) ;
#180 = DIRECTION ( 'NONE',  ( 0.000000000000000000, 1.000000000000000000, 0.000000000000000000 ) ) ;
#181 = CARTESIAN_POINT ( 'NONE',  ( 1.500040043590699756, -25.00000000000698819, -11.49999999999998224 ) ) ;
#182 =( NAMED_UNIT ( * ) PLANE_ANGLE_UNIT ( ) SI_UNIT ( $, .RADIAN. ) );
#183 = APPLICATION_CONTEXT ( 'automotive_design' ) ;
#184 = DIRECTION ( 'NONE',  ( 1.000000000000000000, 6.414627473855909168E-48, 1.665330301773000018E-16 ) ) ;
#185 = DIRECTION ( 'NONE',  ( -1.000000000000000000, -7.184379795184759127E-48, 0.000000000000000000 ) ) ;
#186 = VECTOR ( 'NONE', #214, 1000.000000000000114 ) ;
#187 =( LENGTH_UNIT ( ) NAMED_UNIT ( * ) SI_UNIT ( .MILLI., .METRE. ) );
#188 = AXIS2_PLACEMENT_3D ( 'NONE', #39, #2, #59 ) ;
#189 = VERTEX_POINT ( 'NONE', #170 ) ;
#190 = DIRECTION ( 'NONE',  ( 0.000000000000000000, 1.000000000000000000, 0.000000000000000000 ) ) ;
#191 = EDGE_LOOP ( 'NONE', ( #87, #119 ) ) ;
#192 = DIRECTION ( 'NONE',  ( 0.000000000000000000, 1.000000000000000000, 0.000000000000000000 ) ) ;
#193 = CIRCLE ( 'NONE', #113, 1.249999999999890088 ) ;
#194 = ORIENTED_EDGE ( 'NONE', *, *, #138, .F. ) ;
#195 = CIRCLE ( 'NONE', #84, 2.249999999999890754 ) ;
#196 = FACE_OUTER_BOUND ( 'NONE', #17, .T. ) ;
#197 = CYLINDRICAL_SURFACE ( 'NONE', #19, 2.249999999999890754 ) ;
#198 = PRODUCT ( 'retaining_pin', 'retaining_pin', '', ( #14 ) ) ;
#199 = DIRECTION ( 'NONE',  ( 0.000000000000000000, 1.000000000000000000, 0.000000000000000000 ) ) ;
#200 = EDGE_CURVE ( 'NONE', #5, #41, #223, .T. ) ;
#201 = DIRECTION ( 'NONE',  ( 1.000000000000000000, 6.414627473855909168E-48, 1.665330301773000018E-16 ) ) ;
#202 = PRODUCT_DEFINITION_CONTEXT ( 'detailed design', #25, 'design' ) ;
#203 = CARTESIAN_POINT ( 'NONE',  ( 0.000000000000000000, 0.000000000000000000, 0.000000000000000000 ) ) ;
#204 = EDGE_LOOP ( 'NONE', ( #117, #205, #72, #36 ) ) ;
#205 = ORIENTED_EDGE ( 'NONE', *, *, #65, .T. ) ;
#206 = AXIS2_PLACEMENT_3D ( 'NONE', #90, #77, #44 ) ;
#207 = DIRECTION ( 'NONE',  ( 1.000000000000000000, 6.689539017187639213E-48, 1.665330301773000018E-16 ) ) ;
#208 = EDGE_LOOP ( 'NONE', ( #121, #55, #221, #157 ) ) ;
#209 = DIRECTION ( 'NONE',  ( -1.000000000000000000, -6.414627473855909168E-48, -4.213487288236649548E-96 ) ) ;
#210 = EDGE_CURVE ( 'NONE', #56, #80, #35, .T. ) ;
#211 = DIRECTION ( 'NONE',  ( 1.000000000000000000, 7.184379795184759127E-48, 0.000000000000000000 ) ) ;
#212 = ORIENTED_EDGE ( 'NONE', *, *, #141, .T. ) ;
#213 = VECTOR ( 'NONE', #78, 1000.000000000000114 ) ;
#214 = DIRECTION ( 'NONE',  ( 0.7071067811865489050, 0.7071067811865460184, 1.177566349299130158E-16 ) ) ;
#215 = AXIS2_PLACEMENT_3D ( 'NONE', #50, #145, #112 ) ;
#216 = CYLINDRICAL_SURFACE ( 'NONE', #74, 2.249999999999890754 ) ;
#217 = CARTESIAN_POINT ( 'NONE',  ( 18.50004004359070109, -26.75000000000687805, -11.49999999999998224 ) ) ;
#218 = SURFACE_STYLE_FILL_AREA ( #148 ) ;
#219 = MECHANICAL_DESIGN_GEOMETRIC_PRESENTATION_REPRESENTATION (  '', ( #10 ), #61 ) ;
#220 = PRESENTATION_STYLE_ASSIGNMENT (( #150 ) ) ;
#221 = ORIENTED_EDGE ( 'NONE', *, *, #138, .T. ) ;
#222 = UNCERTAINTY_MEASURE_WITH_UNIT (LENGTH_MEASURE( 1.000000000000000082E-05 ), #16, 'distance_accuracy_value', 'NONE');
#223 = LINE ( 'NONE', #172, #225 ) ;
#224 = AXIS2_PLACEMENT_3D ( 'NONE', #142, #185, #64 ) ;
#225 = VECTOR ( 'NONE', #171, 1000.000000000000000 ) ;
ENDSEC;
END-ISO-10303-21;
