ISO-10303-21;
HEADER;
FILE_DESCRIPTION (( 'STEP AP214' ),
    '1' );
FILE_NAME ('15cm_auger_penetrolzyer_drillcover.STEP',
    '2026-09-19T04:56:23',
    ( '' ),
    ( '' ),
    'SwSTEP 2.0',
    'SolidWorks 2026',
    '' );
FILE_SCHEMA (( 'AUTOMOTIVE_DESIGN' ));
ENDSEC;

DATA;
#1 =( LENGTH_UNIT ( ) NAMED_UNIT ( * ) SI_UNIT ( .CENTI., .METRE. ) );
#2 = ORIENTED_EDGE ( 'NONE', *, *, #331, .F. ) ;
#3 = EDGE_CURVE ( 'NONE', #480, #191, #876, .T. ) ;
#4 = CARTESIAN_POINT ( 'NONE',  ( 0.007398604741784897861, 0.4365118396070711282, 0.5826848695918300791 ) ) ;
#5 = ORIENTED_EDGE ( 'NONE', *, *, #262, .F. ) ;
#6 = EDGE_CURVE ( 'NONE', #210, #599, #740, .T. ) ;
#7 = CARTESIAN_POINT ( 'NONE',  ( 0.02735128633664309084, 0.3514909540966294488, 0.5931476001057646164 ) ) ;
#8 = CARTESIAN_POINT ( 'NONE',  ( -0.3774969536115765356, 0.3527574081889588986, 1.438439359936230177 ) ) ;
#9 = DIRECTION ( 'NONE',  ( -0.000000000000000000, -0.000000000000000000, 1.000000000000000000 ) ) ;
#10 = ORIENTED_EDGE ( 'NONE', *, *, #150, .F. ) ;
#11 = CARTESIAN_POINT ( 'NONE',  ( -0.2721722493578279667, 0.3397695660543105234, 0.9660374025825495536 ) ) ;
#12 = DIRECTION ( 'NONE',  ( 1.000000000000000000, 0.000000000000000000, 0.000000000000000000 ) ) ;
#13 = ORIENTED_EDGE ( 'NONE', *, *, #641, .T. ) ;
#14 = CARTESIAN_POINT ( 'NONE',  ( 0.06771694523402541077, 0.4396790500633793175, 0.9196232884203769942 ) ) ;
#15 = CARTESIAN_POINT ( 'NONE',  ( 0.006518277941298024174, -0.4373108474869565332, 0.5804340310355035060 ) ) ;
#16 = EDGE_CURVE ( 'NONE', #870, #172, #226, .T. ) ;
#17 = CARTESIAN_POINT ( 'NONE',  ( -0.3579764572785789634, 0.04819146529890577790, 1.393120264800849828 ) ) ;
#18 = CARTESIAN_POINT ( 'NONE',  ( -0.2210553861881277282, -0.3749212101601005487, 0.9191593915958463645 ) ) ;
#19 = ORIENTED_EDGE ( 'NONE', *, *, #163, .T. ) ;
#20 = AXIS2_PLACEMENT_3D ( 'NONE', #885, #438, #279 ) ;
#21 = CARTESIAN_POINT ( 'NONE',  ( 0.2098048583805836032, -0.3810758428011145060, 0.8714913259687071534 ) ) ;
#22 = AXIS2_PLACEMENT_3D ( 'NONE', #252, #571, #877 ) ;
#23 = CARTESIAN_POINT ( 'NONE',  ( 0.04037598553093465353, -0.3568951727964450038, 0.5956400212883923295 ) ) ;
#24 = CARTESIAN_POINT ( 'NONE',  ( 0.2897218444213959243, -0.3247788130305288012, 1.198289619251277749 ) ) ;
#25 = ORIENTED_EDGE ( 'NONE', *, *, #486, .T. ) ;
#26 = ORIENTED_EDGE ( 'NONE', *, *, #496, .T. ) ;
#27 = EDGE_CURVE ( 'NONE', #152, #144, #207, .T. ) ;
#28 = CARTESIAN_POINT ( 'NONE',  ( -0.1290843439729888742, 0.4155138621124787046, 0.6511829133208811848 ) ) ;
#29 = CARTESIAN_POINT ( 'NONE',  ( 0.1390174061145470763, -0.4124237327198509995, 0.7117834753780909463 ) ) ;
#30 = AXIS2_PLACEMENT_3D ( 'NONE', #737, #587, #500 ) ;
#31 = VECTOR ( 'NONE', #825, 99.99999999999998579 ) ;
#32 = CARTESIAN_POINT ( 'NONE',  ( -0.06445988286269115075, -0.4317590148133673145, 0.5997988708762267418 ) ) ;
#33 = ORIENTED_EDGE ( 'NONE', *, *, #913, .T. ) ;
#34 = CARTESIAN_POINT ( 'NONE',  ( -0.1726428196933575965, -0.3218199488757876314, 0.7722533367348265454 ) ) ;
#35 = CARTESIAN_POINT ( 'NONE',  ( -0.09557396928972335115, -0.2893650324699185150, 0.6553216699700907810 ) ) ;
#36 = DIRECTION ( 'NONE',  ( 0.000000000000000000, 0.000000000000000000, -1.000000000000000000 ) ) ;
#37 = CARTESIAN_POINT ( 'NONE',  ( -0.1511472185912031696, -0.3324581352681344470, 0.7352050892415428196 ) ) ;
#38 = DIRECTION ( 'NONE',  ( -0.05243601290533553977, 0.9986242859807643590, -6.167741219262809573E-15 ) ) ;
#39 = DIRECTION ( 'NONE',  ( -1.000000000000000000, 0.000000000000000000, 0.000000000000000000 ) ) ;
#40 = EDGE_CURVE ( 'NONE', #191, #172, #256, .T. ) ;
#41 = CARTESIAN_POINT ( 'NONE',  ( -0.3384777679604445422, -0.3903484126284679223, 1.438439359936234618 ) ) ;
#42 = B_SPLINE_CURVE_WITH_KNOTS ( 'NONE', 3,
 ( #904, #64, #125, #506, #814, #49, #193, #888, #349, #810, #510, #258 ),
 .UNSPECIFIED., .F., .F.,
 ( 4, 2, 2, 2, 2, 4 ),
 ( 0.000000000000000000, 0.0007798952633458601600, 0.001559790526691717935, 0.002339685790037576794, 0.002729633421710505898, 0.003119581053383435002 ),
 .UNSPECIFIED. ) ;
#43 = CARTESIAN_POINT ( 'NONE',  ( 7.372972002789946574E-06, 2.174486993823430198E-06, -0.7965825861076580860 ) ) ;
#44 = CARTESIAN_POINT ( 'NONE',  ( -0.08063196828647031800, -0.3560395048722256317, 0.6324484481380043821 ) ) ;
#45 = CARTESIAN_POINT ( 'NONE',  ( -0.2549480671851231395, 0.2617067680995675549, 0.9209923167272551225 ) ) ;
#46 = DIRECTION ( 'NONE',  ( 0.000000000000000000, 0.000000000000000000, -1.000000000000000000 ) ) ;
#47 = CARTESIAN_POINT ( 'NONE',  ( 0.2023024227230869887, -0.3040493983046616000, 0.8231158751155471798 ) ) ;
#48 = AXIS2_PLACEMENT_3D ( 'NONE', #43, #813, #426 ) ;
#49 = CARTESIAN_POINT ( 'NONE',  ( -0.1709990408493646530, 0.3228197697393716536, 0.7121098071206245494 ) ) ;
#50 = CARTESIAN_POINT ( 'NONE',  ( 0.01167415768107547651, 0.3650995133321227049, 1.291280375383749179 ) ) ;
#51 = CARTESIAN_POINT ( 'NONE',  ( -0.2144122474236528630, 0.4194202722971814290, 0.7773814295723810996 ) ) ;
#52 = DIRECTION ( 'NONE',  ( 1.000000000000000000, 0.000000000000000000, -2.472411232576622505E-14 ) ) ;
#53 = VERTEX_POINT ( 'NONE', #425 ) ;
#54 = DIRECTION ( 'NONE',  ( 2.477134467922228004E-14, -2.005661443279336664E-15, 1.000000000000000000 ) ) ;
#55 = APPLICATION_CONTEXT ( 'automotive_design' ) ;
#56 = EDGE_CURVE ( 'NONE', #870, #474, #84, .T. ) ;
#57 = CARTESIAN_POINT ( 'NONE',  ( -0.1442486841657405761, -0.4109041323365303922, 0.7291108004456574587 ) ) ;
#58 = CARTESIAN_POINT ( 'NONE',  ( -0.1123158194987860514, 0.4247811769811670746, 0.6326355335633188082 ) ) ;
#59 = CARTESIAN_POINT ( 'NONE',  ( -0.2924850530369051960, -0.08234248571327719424, 1.114515310850284768 ) ) ;
#60 = ORIENTED_EDGE ( 'NONE', *, *, #27, .T. ) ;
#61 = CARTESIAN_POINT ( 'NONE',  ( 0.2113696233947489067, -0.2922413700897950606, 0.8464806800282130839 ) ) ;
#62 = EDGE_CURVE ( 'NONE', #480, #870, #882, .T. ) ;
#63 = CARTESIAN_POINT ( 'NONE',  ( 0.03724562276016164797, -0.4726319731271649838, 0.5763378611588874101 ) ) ;
#64 = CARTESIAN_POINT ( 'NONE',  ( -0.2368847635528752438, 0.2778191601564561908, 0.8463693862176148164 ) ) ;
#65 = CARTESIAN_POINT ( 'NONE',  ( -0.3114820999956555148, -0.3889309173665752573, 1.255465620127945714 ) ) ;
#66 = EDGE_LOOP ( 'NONE', ( #912, #726, #640, #2 ) ) ;
#67 = TOROIDAL_SURFACE ( 'NONE', #807, 0.3500119999999994347, 0.1000000000000000056 ) ;
#68 = CARTESIAN_POINT ( 'NONE',  ( -0.2408437440713220856, -0.2750159794638324384, 0.9693183354975802857 ) ) ;
#69 = CARTESIAN_POINT ( 'NONE',  ( -0.3066064969370392301, 0.1993228348732498656, 1.112111652714092180 ) ) ;
#70 = CARTESIAN_POINT ( 'NONE',  ( -0.007274535989153878106, 0.4352310907363917125, 1.364900756596618692 ) ) ;
#71 = CARTESIAN_POINT ( 'NONE',  ( 0.3080207881214829801, -0.3903907527918027975, 1.438439359936233730 ) ) ;
#72 = VERTEX_POINT ( 'NONE', #887 ) ;
#73 = CARTESIAN_POINT ( 'NONE',  ( -0.3221191507140750976, -0.1732774658490745523, 1.252288658273781774 ) ) ;
#74 = B_SPLINE_CURVE_WITH_KNOTS ( 'NONE', 3,
 ( #945, #951, #557, #77, #24, #860, #98, #479, #564, #627 ),
 .UNSPECIFIED., .F., .F.,
 ( 4, 2, 2, 2, 4 ),
 ( 9.942742806121141551E-17, 0.001457914596872392698, 0.002915829193744685650, 0.004373743790616979252, 0.005831658387489272420 ),
 .UNSPECIFIED. ) ;
#75 = CARTESIAN_POINT ( 'NONE',  ( 0.07222382894117695962, 0.3538471327477401562, 0.9196232884203774383 ) ) ;
#76 = CARTESIAN_POINT ( 'NONE',  ( -0.3614950280636611835, 0.04800671130715458701, 1.438439359936232176 ) ) ;
#77 = CARTESIAN_POINT ( 'NONE',  ( 0.2986704015830244363, -0.3164109531394543318, 1.245461046909246861 ) ) ;
#78 = VERTEX_POINT ( 'NONE', #182 ) ;
#79 = ADVANCED_FACE ( 'NONE', ( #178 ), #660, .F. ) ;
#80 = CARTESIAN_POINT ( 'NONE',  ( 0.06975521165007664282, 0.3537175099757395302, 0.6754123841349654045 ) ) ;
#81 = DIRECTION ( 'NONE',  ( -0.000000000000000000, -0.000000000000000000, -1.000000000000000000 ) ) ;
#82 =( NAMED_UNIT ( * ) SI_UNIT ( $, .STERADIAN. ) SOLID_ANGLE_UNIT ( ) );
#83 = ORIENTED_EDGE ( 'NONE', *, *, #467, .F. ) ;
#84 = CIRCLE ( 'NONE', #862, 0.09999999999999996392 ) ;
#85 = STYLED_ITEM ( 'NONE', ( #873 ), #383 ) ;
#86 = PRODUCT_DEFINITION_FORMATION_WITH_SPECIFIED_SOURCE ( 'ANY', '', #682, .NOT_KNOWN. ) ;
#87 = CARTESIAN_POINT ( 'NONE',  ( -0.2978226025784598274, 0.3175252962398488199, 1.059396693921258237 ) ) ;
#88 = CARTESIAN_POINT ( 'NONE',  ( 0.2208664151128765796, -0.3833341247475784419, 0.9214620077814903443 ) ) ;
#89 = CARTESIAN_POINT ( 'NONE',  ( -0.2350921673948807578, -0.3664017953430109276, 0.9660364841004720482 ) ) ;
#90 = EDGE_LOOP ( 'NONE', ( #230, #778, #651, #622 ) ) ;
#91 = CARTESIAN_POINT ( 'NONE',  ( 7.372972002789946574E-06, 2.174486993823430198E-06, -0.7965825861076580860 ) ) ;
#92 = CARTESIAN_POINT ( 'NONE',  ( 0.2676423524673963161, -0.3871214320270214282, 1.114515310850297425 ) ) ;
#93 = CARTESIAN_POINT ( 'NONE',  ( -0.006734440436992637780, 0.3649519081435043666, 0.5763378611589468070 ) ) ;
#94 = ORIENTED_EDGE ( 'NONE', *, *, #843, .F. ) ;
#95 = CARTESIAN_POINT ( 'NONE',  ( -0.02403909179950223726, -0.4348367089575063127, 0.5763378611589455858 ) ) ;
#96 = FACE_OUTER_BOUND ( 'NONE', #565, .T. ) ;
#97 = EDGE_CURVE ( 'NONE', #330, #191, #688, .T. ) ;
#98 = CARTESIAN_POINT ( 'NONE',  ( 0.2573595264018553319, -0.3510215652841768841, 1.058127084431256693 ) ) ;
#99 = ORIENTED_EDGE ( 'NONE', *, *, #16, .T. ) ;
#100 = CARTESIAN_POINT ( 'NONE',  ( 0.003257213367810658788, 0.3502258165079766283, 0.5787920667748631676 ) ) ;
#101 = VECTOR ( 'NONE', #488, 100.0000000000000142 ) ;
#102 = AXIS2_PLACEMENT_3D ( 'NONE', #757, #371, #216 ) ;
#103 = CARTESIAN_POINT ( 'NONE',  ( -0.09177546692616891932, -0.3537587412992610481, 0.6667020346734812142 ) ) ;
#104 = ORIENTED_EDGE ( 'NONE', *, *, #150, .T. ) ;
#105 = CARTESIAN_POINT ( 'NONE',  ( -0.006358155449967284670, 0.3577857010718136777, 0.5763378611589469180 ) ) ;
#106 = CARTESIAN_POINT ( 'NONE',  ( 0.3500193729720021962, 2.174486993823430198E-06, -0.6965825861076591075 ) ) ;
#107 = CARTESIAN_POINT ( 'NONE',  ( -0.009636300344494270337, -0.3528458280891006438, 0.5742752392857631838 ) ) ;
#108 = ORIENTED_EDGE ( 'NONE', *, *, #838, .T. ) ;
#109 = CARTESIAN_POINT ( 'NONE',  ( 0.1757752237097906789, -0.3980676580901556516, 0.7773618763478192806 ) ) ;
#110 = CARTESIAN_POINT ( 'NONE',  ( -0.01040674097058949706, 0.4348895005552414483, 0.5763378611589463629 ) ) ;
#111 = DIRECTION ( 'NONE',  ( 2.477134467922228004E-14, -2.005661443279336664E-15, 1.000000000000000000 ) ) ;
#112 = CARTESIAN_POINT ( 'NONE',  ( 0.1250798450675857099, -0.4169453053523968222, 0.6908655976294378886 ) ) ;
#113 = VECTOR ( 'NONE', #335, 99.99999999999998579 ) ;
#114 = VECTOR ( 'NONE', #249, 100.0000000000000142 ) ;
#115 = CARTESIAN_POINT ( 'NONE',  ( -0.2131446199874238723, -0.2955384615000540283, 0.8714913259687099290 ) ) ;
#116 = CARTESIAN_POINT ( 'NONE',  ( -0.09316645955664371037, 0.4249187275605630365, 0.6152230060746340934 ) ) ;
#117 = EDGE_CURVE ( 'NONE', #469, #186, #871, .T. ) ;
#118 = CARTESIAN_POINT ( 'NONE',  ( -0.2068243859535903451, -0.2952065970761509339, 0.8464806800282255184 ) ) ;
#119 = ORIENTED_EDGE ( 'NONE', *, *, #913, .F. ) ;
#120 = CARTESIAN_POINT ( 'NONE',  ( 0.05023423460366319149, 0.4824916741403944553, 0.5763378611589389244 ) ) ;
#121 = CARTESIAN_POINT ( 'NONE',  ( -0.1394705407222531501, -0.3375757827350451823, 0.7170935262094857432 ) ) ;
#122 = CARTESIAN_POINT ( 'NONE',  ( 0.07967228920640685719, 0.3562154761373669265, 0.8086142727645925232 ) ) ;
#123 = CARTESIAN_POINT ( 'NONE',  ( -0.08848697216909992558, -0.4243342463212288473, 0.6553216699700916692 ) ) ;
#124 = CARTESIAN_POINT ( 'NONE',  ( 0.02485871673388192343, -0.4732823878760992753, 1.438439359936234840 ) ) ;
#125 = CARTESIAN_POINT ( 'NONE',  ( -0.2281677239114819622, 0.2851791103176016806, 0.8229786332436584972 ) ) ;
#126 = CARTESIAN_POINT ( 'NONE',  ( 0.01124453756056923923, 0.3649283314557612568, 0.5826943032990192783 ) ) ;
#127 = CARTESIAN_POINT ( 'NONE',  ( 0.04893429616427885653, 0.4323706816249553442, 1.069627930430147034 ) ) ;
#128 = AXIS2_PLACEMENT_3D ( 'NONE', #823, #755, #911 ) ;
#129 = FACE_OUTER_BOUND ( 'NONE', #334, .T. ) ;
#130 = VERTEX_POINT ( 'NONE', #135 ) ;
#131 = ADVANCED_FACE ( 'NONE', ( #750 ), #444, .F. ) ;
#132 = FACE_BOUND ( 'NONE', #861, .T. ) ;
#133 = B_SPLINE_SURFACE_WITH_KNOTS ( 'NONE', 3, 1, ( 
 ( #541, #154 ),
 ( #483, #396 ),
 ( #400, #232 ),
 ( #316, #549 ),
 ( #633, #321 ),
 ( #472, #937 ),
 ( #776, #302 ),
 ( #392, #478 ),
 ( #17, #702 ),
 ( #76, #8 ) ),
 .UNSPECIFIED., .F., .F., .F.,
 ( 4, 2, 2, 2, 4 ),
 ( 2, 2 ),
 ( 0.000000000000000000, 0.2500000000000000000, 0.5000000000000000000, 0.7500000000000000000, 1.000000000000000000 ),
 ( 0.000000000000000000, 1.000000000000000000 ),
 .UNSPECIFIED. ) ;
#134 = LINE ( 'NONE', #63, #924 ) ;
#135 = CARTESIAN_POINT ( 'NONE',  ( -0.02399943296319220071, -0.4343468941349951651, 0.5763378611589389244 ) ) ;
#136 = CARTESIAN_POINT ( 'NONE',  ( -0.2245265369492121521, -0.07877410301256955460, 0.8714913259686978275 ) ) ;
#137 = DIRECTION ( 'NONE',  ( 0.000000000000000000, 0.000000000000000000, 1.000000000000000000 ) ) ;
#138 = ORIENTED_EDGE ( 'NONE', *, *, #958, .T. ) ;
#139 = PLANE ( 'NONE',  #102 ) ;
#140 = CARTESIAN_POINT ( 'NONE',  ( -0.3488234306787008077, -0.1080974237775730318, 1.391071172310486936 ) ) ;
#141 = CARTESIAN_POINT ( 'NONE',  ( 0.06932071930291165696, 0.4294622046025085571, 0.6956075216378897474 ) ) ;
#142 = CARTESIAN_POINT ( 'NONE',  ( -0.06510468056540494319, 0.3594234091315737234, 0.5956811532491075312 ) ) ;
#143 = B_SPLINE_SURFACE_WITH_KNOTS ( 'NONE', 3, 1, ( 
 ( #856, #775 ),
 ( #236, #475 ),
 ( #630, #399 ),
 ( #935, #772 ),
 ( #562, #553 ),
 ( #863, #158 ),
 ( #75, #14 ),
 ( #320, #781 ),
 ( #164, #482 ),
 ( #636, #942 ),
 ( #385, #867 ),
 ( #170, #471 ),
 ( #80, #487 ),
 ( #326, #644 ),
 ( #222, #540 ),
 ( #845, #466 ),
 ( #618, #698 ),
 ( #926, #700 ),
 ( #7, #310 ),
 ( #625, #4 ),
 ( #100, #408 ),
 ( #647, #721 ) ),
 .UNSPECIFIED., .F., .F., .F.,
 ( 4, 2, 2, 2, 2, 2, 2, 2, 2, 2, 4 ),
 ( 2, 2 ),
 ( 0.000000000000000000, 0.2499999999999993894, 0.4999999999999987788, 0.6249999999999990008, 0.7499999999999992228, 0.8125000000000000000, 0.8750000000000007772, 0.9062500000000005551, 0.9375000000000003331, 0.9687500000000002220, 1.000000000000000000 ),
 ( 0.000000000000000000, 1.000000000000000000 ),
 .UNSPECIFIED. ) ;
#144 = VERTEX_POINT ( 'NONE', #695 ) ;
#145 = CARTESIAN_POINT ( 'NONE',  ( -0.3450661804456239823, -0.2648745569858401150, 1.438439359936233952 ) ) ;
#146 = CARTESIAN_POINT ( 'NONE',  ( 0.06386517570974249713, 0.4303309483122526036, 0.9581768667809492657 ) ) ;
#147 = VERTEX_POINT ( 'NONE', #206 ) ;
#148 = VECTOR ( 'NONE', #9, 100.0000000000000000 ) ;
#149 = CARTESIAN_POINT ( 'NONE',  ( -0.02399943296319220071, -0.4343468941349951651, 0.5763378611589389244 ) ) ;
#150 = EDGE_CURVE ( 'NONE', #429, #53, #580, .T. ) ;
#151 = DIRECTION ( 'NONE',  ( -1.000000000000000000, 0.000000000000000000, 0.000000000000000000 ) ) ;
#152 = VERTEX_POINT ( 'NONE', #442 ) ;
#153 = CARTESIAN_POINT ( 'NONE',  ( -0.06683887185990006197, -0.4298858039573134060, 0.6024367994686512517 ) ) ;
#154 = CARTESIAN_POINT ( 'NONE',  ( -0.2475437970524302367, 0.3595810209230801413, 0.8714913259686951630 ) ) ;
#155 = CARTESIAN_POINT ( 'NONE',  ( 0.3650193729720022096, 2.174486993823430198E-06, -0.7954511857740851344 ) ) ;
#156 = ORIENTED_EDGE ( 'NONE', *, *, #809, .T. ) ;
#157 = B_SPLINE_CURVE_WITH_KNOTS ( 'NONE', 3,
 ( #301, #694, #126, #765, #362, #671, #441, #607, #915, #613, #985, #122, #460, #282, #535, #595, #217, #50, #839, #593 ),
 .UNSPECIFIED., .F., .F.,
 ( 4, 2, 2, 2, 2, 2, 2, 2, 2, 4 ),
 ( 7.294264855502809625E-17, 0.0002849320383582966301, 0.0005698640767165201850, 0.001139728153432965126, 0.001709592230149410176, 0.002279456306865855660, 0.003419184460298745325, 0.004558912613731635859, 0.006838368920597422129, 0.009117825227463207532 ),
 .UNSPECIFIED. ) ;
#158 = CARTESIAN_POINT ( 'NONE',  ( 0.06352766767027225037, 0.4394590784329267530, 0.9570053213759376343 ) ) ;
#159 = CARTESIAN_POINT ( 'NONE',  ( 0.03368686180633838345, -0.4395106061933264918, 0.5956400212883923295 ) ) ;
#160 = DIRECTION ( 'NONE',  ( 0.000000000000000000, 0.000000000000000000, 1.000000000000000000 ) ) ;
#161 = CARTESIAN_POINT ( 'NONE',  ( -0.01446892955245191945, 0.3648090268707658845, 0.5742767211158752438 ) ) ;
#162 = ORIENTED_EDGE ( 'NONE', *, *, #872, .F. ) ;
#163 = EDGE_CURVE ( 'NONE', #78, #72, #42, .T. ) ;
#164 = CARTESIAN_POINT ( 'NONE',  ( 0.07981052510793382182, 0.3542454968809712335, 0.8068387293646617220 ) ) ;
#165 = PRODUCT_DEFINITION_CONTEXT ( 'detailed design', #55, 'design' ) ;
#166 = CARTESIAN_POINT ( 'NONE',  ( 0.2565910785631698721, -0.3862266435423487576, 1.066857402300990021 ) ) ;
#167 = CARTESIAN_POINT ( 'NONE',  ( -0.2629327577040266872, -0.3469648998413628060, 1.059401482930730110 ) ) ;
#168 = ORIENTED_EDGE ( 'NONE', *, *, #561, .T. ) ;
#169 = EDGE_CURVE ( 'NONE', #293, #225, #858, .T. ) ;
#170 = CARTESIAN_POINT ( 'NONE',  ( 0.07305174744820561172, 0.3538906052990561935, 0.6940867192409256869 ) ) ;
#171 = CARTESIAN_POINT ( 'NONE',  ( -0.3023238015598596062, -0.3132459950423020500, 1.199160861315585525 ) ) ;
#172 = VERTEX_POINT ( 'NONE', #354 ) ;
#173 = ADVANCED_FACE ( 'NONE', ( #188 ), #67, .T. ) ;
#174 = ORIENTED_EDGE ( 'NONE', *, *, #309, .T. ) ;
#175 = AXIS2_PLACEMENT_3D ( 'NONE', #741, #219, #52 ) ;
#176 = CARTESIAN_POINT ( 'NONE',  ( 0.04595294805206755206, -0.4405037543878060347, 0.6051679471650948106 ) ) ;
#177 = CARTESIAN_POINT ( 'NONE',  ( -0.08107283213559002277, -0.4304139141639158894, 0.6227541184295513066 ) ) ;
#178 = FACE_OUTER_BOUND ( 'NONE', #418, .T. ) ;
#179 = CARTESIAN_POINT ( 'NONE',  ( -0.01734996807490597065, -0.3522212755606247692, 0.5763378611589455858 ) ) ;
#180 = CARTESIAN_POINT ( 'NONE',  ( 0.2098048583805836032, -0.3810758428011145060, 0.8714913259687071534 ) ) ;
#181 = CARTESIAN_POINT ( 'NONE',  ( -0.09246851212982687418, -0.4294912401516503553, 0.6484388929721880412 ) ) ;
#182 = CARTESIAN_POINT ( 'NONE',  ( -0.2429658062358111270, 0.2723948952591303541, 0.8714913259687064873 ) ) ;
#183 = CARTESIAN_POINT ( 'NONE',  ( -0.1824699303394832495, -0.3162904978124563282, 0.7913132637718638396 ) ) ;
#184 = CARTESIAN_POINT ( 'NONE',  ( -0.05748955450927768773, -0.4323233813831468542, 0.5931476001058317848 ) ) ;
#185 = CARTESIAN_POINT ( 'NONE',  ( -0.1021148437014062077, -0.2897084823337742199, 0.6631508402256052204 ) ) ;
#186 = VERTEX_POINT ( 'NONE', #116 ) ;
#187 = ADVANCED_FACE ( 'NONE', ( #427 ), #355, .T. ) ;
#188 = FACE_OUTER_BOUND ( 'NONE', #430, .T. ) ;
#189 = CIRCLE ( 'NONE', #175, 0.4350119999999994547 ) ;
#190 = CARTESIAN_POINT ( 'NONE',  ( -0.2120880034036049799, 0.3799919459014724499, 0.7768620917788763292 ) ) ;
#191 = VERTEX_POINT ( 'NONE', #268 ) ;
#192 = CARTESIAN_POINT ( 'NONE',  ( 0.3153690028348375973, -0.2996350771261124257, 1.438439359936223516 ) ) ;
#193 = CARTESIAN_POINT ( 'NONE',  ( -0.1569416059685772857, 0.3299805598831169751, 0.6912334726728716072 ) ) ;
#194 = DIRECTION ( 'NONE',  ( -1.000000000000000000, 0.000000000000000000, 0.000000000000000000 ) ) ;
#195 = DIRECTION ( 'NONE',  ( 1.000000000000000000, 0.000000000000000000, -2.471305621480776641E-14 ) ) ;
#196 = LINE ( 'NONE', #124, #878 ) ;
#197 = CARTESIAN_POINT ( 'NONE',  ( 0.1493321520535843550, -0.2872183822012171484, 0.7120796211116393604 ) ) ;
#198 = LINE ( 'NONE', #516, #375 ) ;
#199 = CARTESIAN_POINT ( 'NONE',  ( -0.006734440436992637780, 0.3649519081435043666, 0.5763378611589468070 ) ) ;
#200 = EDGE_CURVE ( 'NONE', #628, #480, #477, .T. ) ;
#201 = CARTESIAN_POINT ( 'NONE',  ( -0.2024732403662001801, 0.4200471686554314021, 0.7551366283434143289 ) ) ;
#202 = UNCERTAINTY_MEASURE_WITH_UNIT (LENGTH_MEASURE( 1.000000000000000082E-05 ), #719, 'distance_accuracy_value', 'NONE');
#203 = DIRECTION ( 'NONE',  ( -0.05243601290533553977, 0.9986242859807643590, -6.167741219262809573E-15 ) ) ;
#204 = ORIENTED_EDGE ( 'NONE', *, *, #561, .F. ) ;
#205 = CARTESIAN_POINT ( 'NONE',  ( -0.3615899011400322549, 0.04981353362068301205, 1.438439359936232176 ) ) ;
#206 = CARTESIAN_POINT ( 'NONE',  ( -0.2086194844776778912, -0.3817179775808137165, 0.8714913259687104841 ) ) ;
#207 = CIRCLE ( 'NONE', #338, 0.3650119999999993925 ) ;
#208 = CARTESIAN_POINT ( 'NONE',  ( -0.04837940982079767804, 0.4335497046290605616, 0.5839356799792485564 ) ) ;
#209 = CARTESIAN_POINT ( 'NONE',  ( -0.3543848204319835493, -0.08740453806021911132, 1.438439359936230622 ) ) ;
#210 = VERTEX_POINT ( 'NONE', #274 ) ;
#211 = DIRECTION ( 'NONE',  ( 1.000000000000000000, 0.000000000000000000, 0.000000000000000000 ) ) ;
#212 = CARTESIAN_POINT ( 'NONE',  ( -0.3438877612491785252, 0.2667987391227404914, 1.246027180693145553 ) ) ;
#213 = CARTESIAN_POINT ( 'NONE',  ( 0.03605953348571012962, 0.4337453893639277025, 1.143633768138879292 ) ) ;
#214 = CARTESIAN_POINT ( 'NONE',  ( -0.2085246114012982432, -0.3835247998943466796, 0.8714913259686997149 ) ) ;
#215 = ORIENTED_EDGE ( 'NONE', *, *, #200, .T. ) ;
#216 = DIRECTION ( 'NONE',  ( 1.000000000000000000, 0.000000000000000000, -2.477134467922228004E-14 ) ) ;
#217 = CARTESIAN_POINT ( 'NONE',  ( 0.03977650864476389020, 0.3631145490283804733, 1.143587780425132649 ) ) ;
#218 = CARTESIAN_POINT ( 'NONE',  ( -0.09316645955664371037, 0.4249187275605630365, 0.6152230060746340934 ) ) ;
#219 = DIRECTION ( 'NONE',  ( 2.477134467922228004E-14, -2.005661443279336664E-15, 1.000000000000000000 ) ) ;
#220 = EDGE_LOOP ( 'NONE', ( #848, #680, #323, #138 ) ) ;
#221 = EDGE_CURVE ( 'NONE', #836, #293, #661, .T. ) ;
#222 = CARTESIAN_POINT ( 'NONE',  ( 0.05849384890125445408, 0.3531261955337428038, 0.6396648483320283018 ) ) ;
#223 =( NAMED_UNIT ( * ) PLANE_ANGLE_UNIT ( ) SI_UNIT ( $, .RADIAN. ) );
#224 = CARTESIAN_POINT ( 'NONE',  ( 7.372972002789946574E-06, 2.174486993823430198E-06, -0.6965825861076591075 ) ) ;
#225 = VERTEX_POINT ( 'NONE', #965 ) ;
#226 = CIRCLE ( 'NONE', #290, 0.4350119999999994547 ) ;
#227 = CARTESIAN_POINT ( 'NONE',  ( -0.04314328818674079136, -0.4329452919924325904, 0.5832411249024389566 ) ) ;
#228 = DIRECTION ( 'NONE',  ( 1.000000000000000000, 0.000000000000000000, 0.000000000000000000 ) ) ;
#229 = DIRECTION ( 'NONE',  ( 2.477134467922228004E-14, -2.005661443279336664E-15, 1.000000000000000000 ) ) ;
#230 = ORIENTED_EDGE ( 'NONE', *, *, #746, .F. ) ;
#231 = DIRECTION ( 'NONE',  ( -0.000000000000000000, -0.000000000000000000, 1.000000000000000000 ) ) ;
#232 = CARTESIAN_POINT ( 'NONE',  ( -0.2743685463397203539, 0.3581725003017047770, 0.9702694108281497698 ) ) ;
#233 = SURFACE_STYLE_FILL_AREA ( #783 ) ;
#234 = ORIENTED_EDGE ( 'NONE', *, *, #40, .T. ) ;
#235 = CARTESIAN_POINT ( 'NONE',  ( -0.03713522210559998954, 0.3561696511849854474, 0.5804340310354983989 ) ) ;
#236 = CARTESIAN_POINT ( 'NONE',  ( -0.002760823000669504305, 0.3499098199544102838, 1.364741872380738741 ) ) ;
#237 = LINE ( 'NONE', #846, #844 ) ;
#238 = B_SPLINE_CURVE_WITH_KNOTS ( 'NONE', 3,
 ( #247, #18, #89, #167, #710, #171, #473, #791, #932, #777 ),
 .UNSPECIFIED., .F., .F.,
 ( 4, 2, 2, 2, 4 ),
 ( 1.339119166492069963E-16, 0.001489971317226843842, 0.002979942634453553677, 0.004469913951680263078, 0.005959885268906972913 ),
 .UNSPECIFIED. ) ;
#239 = ORIENTED_EDGE ( 'NONE', *, *, #341, .F. ) ;
#240 = EDGE_CURVE ( 'NONE', #788, #407, #198, .T. ) ;
#241 = AXIS2_PLACEMENT_3D ( 'NONE', #286, #54, #451 ) ;
#242 = DIRECTION ( 'NONE',  ( 1.000000000000000000, 0.000000000000000000, 0.000000000000000000 ) ) ;
#243 = CARTESIAN_POINT ( 'NONE',  ( 0.02026180690103995125, -0.3552665881126651493, 0.5839356799792490005 ) ) ;
#244 = CARTESIAN_POINT ( 'NONE',  ( 0.3127439021480425407, -0.1609376987003473813, 1.255465620127961479 ) ) ;
#245 = CARTESIAN_POINT ( 'NONE',  ( -0.04125932528649393222, 0.4331175980417844018, 0.5804689748627981372 ) ) ;
#246 = ORIENTED_EDGE ( 'NONE', *, *, #240, .T. ) ;
#247 = CARTESIAN_POINT ( 'NONE',  ( -0.2086194844776778912, -0.3817179775808137165, 0.8714913259687104841 ) ) ;
#248 = ORIENTED_EDGE ( 'NONE', *, *, #746, .T. ) ;
#249 = DIRECTION ( 'NONE',  ( -0.05243601290533553977, 0.9986242859807643590, -6.167741219262809573E-15 ) ) ;
#250 = EDGE_CURVE ( 'NONE', #628, #330, #462, .T. ) ;
#251 = B_SPLINE_SURFACE_WITH_KNOTS ( 'NONE', 3, 1, ( 
 ( #214, #136 ),
 ( #988, #982 ),
 ( #291, #443 ),
 ( #449, #456 ),
 ( #590, #59 ),
 ( #604, #532 ),
 ( #65, #994 ),
 ( #834, #537 ),
 ( #894, #377 ),
 ( #41, #514 ) ),
 .UNSPECIFIED., .F., .F., .F.,
 ( 4, 2, 2, 2, 4 ),
 ( 2, 2 ),
 ( 0.000000000000000000, 0.2500000000000000000, 0.5000000000000000000, 0.7500000000000000000, 1.000000000000000000 ),
 ( 0.000000000000000000, 1.000000000000000000 ),
 .UNSPECIFIED. ) ;
#252 = CARTESIAN_POINT ( 'NONE',  ( 7.372972002789946574E-06, 2.174486993823430198E-06, 1.438439359936231954 ) ) ;
#253 = DIRECTION ( 'NONE',  ( 1.000000000000000000, 0.000000000000000000, 0.000000000000000000 ) ) ;
#254 = CIRCLE ( 'NONE', #522, 0.3650119999999993925 ) ;
#255 = FACE_OUTER_BOUND ( 'NONE', #90, .T. ) ;
#256 = LINE ( 'NONE', #572, #439 ) ;
#257 = ORIENTED_EDGE ( 'NONE', *, *, #6, .F. ) ;
#258 = CARTESIAN_POINT ( 'NONE',  ( -0.08943663811261291785, 0.3538856708881326085, 0.6152230060746346485 ) ) ;
#259 = CARTESIAN_POINT ( 'NONE',  ( -0.09095200806789355275, -0.3538254142919289302, 0.6635932649105077408 ) ) ;
#260 = DIRECTION ( 'NONE',  ( -0.000000000000000000, -0.000000000000000000, -1.000000000000000000 ) ) ;
#261 = B_SPLINE_CURVE_WITH_KNOTS ( 'NONE', 3,
 ( #835, #614, #142, #538, #457, #841, #161, #93 ),
 .UNSPECIFIED., .F., .F.,
 ( 4, 2, 2, 4 ),
 ( 1.107585619497715978E-17, 0.0004745735005716181709, 0.0007118602508574209137, 0.0009491470011432237650 ),
 .UNSPECIFIED. ) ;
#262 = EDGE_CURVE ( 'NONE', #599, #407, #893, .T. ) ;
#263 = ORIENTED_EDGE ( 'NONE', *, *, #3, .F. ) ;
#264 = CARTESIAN_POINT ( 'NONE',  ( -0.1009708955107850720, -0.3510870306695434429, 0.6650602011063492247 ) ) ;
#265 = ORIENTED_EDGE ( 'NONE', *, *, #273, .F. ) ;
#266 = EDGE_CURVE ( 'NONE', #172, #870, #504, .T. ) ;
#267 = CARTESIAN_POINT ( 'NONE',  ( 0.07673895040498321385, -0.4334586459150581161, 0.6326355335633200294 ) ) ;
#268 = CARTESIAN_POINT ( 'NONE',  ( 0.4350193729720022717, 2.174486993823430198E-06, -0.7492608548719227324 ) ) ;
#269 = AXIS2_PLACEMENT_3D ( 'NONE', #431, #687, #272 ) ;
#270 = ORIENTED_EDGE ( 'NONE', *, *, #373, .T. ) ;
#271 = CARTESIAN_POINT ( 'NONE',  ( -0.4350046270279964711, 2.174486993876703912E-06, 13.55682552695350829 ) ) ;
#272 = DIRECTION ( 'NONE',  ( 1.000000000000000000, 0.000000000000000000, 0.000000000000000000 ) ) ;
#273 = EDGE_CURVE ( 'NONE', #225, #152, #490, .T. ) ;
#274 = CARTESIAN_POINT ( 'NONE',  ( 0.2168883174889630894, -0.2935900870755867031, 0.8714913259687071534 ) ) ;
#275 = CARTESIAN_POINT ( 'NONE',  ( -0.2031828604648952263, -0.4852564518487253453, 0.8714913259687111502 ) ) ;
#276 = CARTESIAN_POINT ( 'NONE',  ( -0.2352024826718216721, 0.4183286134430138636, 0.8230799767742433826 ) ) ;
#277 = CARTESIAN_POINT ( 'NONE',  ( 0.1000750281657925012, -0.3511360689846839689, 0.6513290080645739444 ) ) ;
#278 = LINE ( 'NONE', #120, #31 ) ;
#279 = DIRECTION ( 'NONE',  ( 1.000000000000000000, 0.000000000000000000, 0.000000000000000000 ) ) ;
#280 = ADVANCED_FACE ( 'NONE', ( #610 ), #763, .T. ) ;
#281 = B_SPLINE_SURFACE_WITH_KNOTS ( 'NONE', 3, 1, ( 
 ( #105, #929 ),
 ( #770, #547 ),
 ( #314, #629 ),
 ( #235, #552 ),
 ( #977, #208 ),
 ( #691, #760 ),
 ( #364, #685 ),
 ( #369, #667 ) ),
 .UNSPECIFIED., .F., .F., .F.,
 ( 4, 2, 2, 4 ),
 ( 2, 2 ),
 ( 0.000000000000000000, 0.2500000000000014433, 0.5000000000000027756, 1.000000000000000000 ),
 ( 0.000000000000000000, 1.000000000000000000 ),
 .UNSPECIFIED. ) ;
#282 = CARTESIAN_POINT ( 'NONE',  ( 0.07188288992654984222, 0.3578806387913771037, 0.9208586360470677468 ) ) ;
#283 = CARTESIAN_POINT ( 'NONE',  ( -0.01040674097058949706, 0.4348895005552414483, 0.5763378611589463629 ) ) ;
#284 = CARTESIAN_POINT ( 'NONE',  ( 0.07402823923790523286, -0.3575646842277075410, 0.6235435370756715612 ) ) ;
#285 = ORIENTED_EDGE ( 'NONE', *, *, #779, .T. ) ;
#286 = CARTESIAN_POINT ( 'NONE',  ( 7.372972002789946574E-06, 2.174486993823430198E-06, 1.438439359936231954 ) ) ;
#287 = CARTESIAN_POINT ( 'NONE',  ( -0.3412516386778002841, -0.1300391254463582058, 1.344654013435786055 ) ) ;
#288 = CARTESIAN_POINT ( 'NONE',  ( -0.2429658062358111270, 0.2723948952591303541, 0.8714913259687064873 ) ) ;
#289 = CARTESIAN_POINT ( 'NONE',  ( -0.2366001230394597921, 0.2718611973537666260, 0.8464806800282220767 ) ) ;
#290 = AXIS2_PLACEMENT_3D ( 'NONE', #659, #583, #39 ) ;
#291 = CARTESIAN_POINT ( 'NONE',  ( -0.2353493606885883604, -0.3849333205157220994, 0.9702694108281543217 ) ) ;
#292 = CARTESIAN_POINT ( 'NONE',  ( -0.08634886062864750855, -0.3546474569273213584, 0.6488673901897413776 ) ) ;
#293 = VERTEX_POINT ( 'NONE', #292 ) ;
#294 = CARTESIAN_POINT ( 'NONE',  ( 0.05833213586480079371, -0.4319683013780575287, 0.6152230060746360918 ) ) ;
#295 = CARTESIAN_POINT ( 'NONE',  ( -0.1223098522332549815, -0.4182487022697438661, 0.6964155722273279725 ) ) ;
#296 = CARTESIAN_POINT ( 'NONE',  ( -0.2429203570732933193, 0.2715293329298634761, 0.8714913259687064873 ) ) ;
#297 = CYLINDRICAL_SURFACE ( 'NONE', #128, 0.3650119999999993925 ) ;
#298 = VERTEX_POINT ( 'NONE', #918 ) ;
#299 = EDGE_CURVE ( 'NONE', #72, #533, #261, .T. ) ;
#300 = DIRECTION ( 'NONE',  ( -1.000000000000000000, 0.000000000000000000, 0.000000000000000000 ) ) ;
#301 = CARTESIAN_POINT ( 'NONE',  ( -0.006734440436992637780, 0.3649519081435043666, 0.5763378611589468070 ) ) ;
#302 = CARTESIAN_POINT ( 'NONE',  ( -0.3505012856467875082, 0.3541749034508516192, 1.255465620127941273 ) ) ;
#303 = ORIENTED_EDGE ( 'NONE', *, *, #648, .F. ) ;
#304 = LINE ( 'NONE', #548, #463 ) ;
#305 =( NAMED_UNIT ( * ) SI_UNIT ( $, .STERADIAN. ) SOLID_ANGLE_UNIT ( ) );
#306 = LINE ( 'NONE', #703, #148 ) ;
#307 = ORIENTED_EDGE ( 'NONE', *, *, #221, .F. ) ;
#308 = AXIS2_PLACEMENT_3D ( 'NONE', #360, #934, #705 ) ;
#309 = EDGE_CURVE ( 'NONE', #147, #225, #322, .T. ) ;
#310 = CARTESIAN_POINT ( 'NONE',  ( 0.02284440262949154893, 0.4373228714122686100, 0.5931476001057640612 ) ) ;
#311 = CARTESIAN_POINT ( 'NONE',  ( -0.09727266627737064797, -0.4239931487273550514, 0.6659953971233730785 ) ) ;
#312 = CARTESIAN_POINT ( 'NONE',  ( 0.05232624025395186951, -0.3614426164838266953, 0.6051438154986799045 ) ) ;
#313 = EDGE_LOOP ( 'NONE', ( #756, #723, #696, #842 ) ) ;
#314 = CARTESIAN_POINT ( 'NONE',  ( -0.02214442018485055647, 0.3569567919485467922, 0.5756769458840871323 ) ) ;
#315 = CARTESIAN_POINT ( 'NONE',  ( -0.09727266627737064797, -0.4239931487273550514, 0.6659953971233730785 ) ) ;
#316 = CARTESIAN_POINT ( 'NONE',  ( -0.2860059475670699847, 0.05197051076076125709, 1.066857402300974700 ) ) ;
#317 = CARTESIAN_POINT ( 'NONE',  ( -0.08125119911754016822, 0.4275314534538184330, 0.6051637564135873282 ) ) ;
#318 = ORIENTED_EDGE ( 'NONE', *, *, #299, .F. ) ;
#319 = CARTESIAN_POINT ( 'NONE',  ( 0.01367523191792426734, -0.4348482567130471099, 0.5838604097935549131 ) ) ;
#320 = CARTESIAN_POINT ( 'NONE',  ( 0.07808423870164110658, 0.3541548526040902978, 0.8445143365747840303 ) ) ;
#321 = CARTESIAN_POINT ( 'NONE',  ( -0.3155023131401232805, 0.3560126382223725017, 1.114515310850282104 ) ) ;
#322 = LINE ( 'NONE', #639, #101 ) ;
#323 = ORIENTED_EDGE ( 'NONE', *, *, #389, .T. ) ;
#324 = CARTESIAN_POINT ( 'NONE',  ( -0.3650046270279966310, 2.174486993872417502E-06, -0.7954511857740851344 ) ) ;
#325 = AXIS2_PLACEMENT_3D ( 'NONE', #224, #137, #847 ) ;
#326 = CARTESIAN_POINT ( 'NONE',  ( 0.06169524156045633895, 0.3532942950574071705, 0.6484388929721547346 ) ) ;
#327 = B_SPLINE_CURVE_WITH_KNOTS ( 'NONE', 3,
 ( #798, #645, #491, #708, #793, #411, #722, #332, #650, #954 ),
 .UNSPECIFIED., .F., .F.,
 ( 4, 2, 2, 2, 4 ),
 ( 9.888114022145775592E-17, 0.001477952571114481270, 0.002955905142228863660, 0.004433857713343245834, 0.005911810284457628441 ),
 .UNSPECIFIED. ) ;
#328 = CARTESIAN_POINT ( 'NONE',  ( 0.05756492175544160317, -0.4414439410526327379, 0.6152230060746360918 ) ) ;
#329 = FILL_AREA_STYLE_COLOUR ( '', #795 ) ;
#330 = VERTEX_POINT ( 'NONE', #155 ) ;
#331 = EDGE_CURVE ( 'NONE', #186, #429, #950, .T. ) ;
#332 = CARTESIAN_POINT ( 'NONE',  ( 0.2409858274388924360, -0.2746916927650444595, 0.9658533708713180621 ) ) ;
#333 = CARTESIAN_POINT ( 'NONE',  ( -0.01066970177673961899, -0.3649346232806870427, 0.5742897462610154768 ) ) ;
#334 = EDGE_LOOP ( 'NONE', ( #174, #761, #874, #792 ) ) ;
#335 = DIRECTION ( 'NONE',  ( -0.08070290107801876556, -0.9967382012131328350, -0.000000000000000000 ) ) ;
#336 = B_SPLINE_CURVE_WITH_KNOTS ( 'NONE', 3,
 ( #205, #753, #523, #827, #744, #367, #749, #69, #433, #683, #45, #288 ),
 .UNSPECIFIED., .F., .F.,
 ( 4, 2, 2, 2, 2, 4 ),
 ( 0.000000000000000000, 0.0007789817353919795042, 0.001557963470783959008, 0.003115926941567922354, 0.004673890412351886132, 0.006231853883135849911 ),
 .UNSPECIFIED. ) ;
#337 = ORIENTED_EDGE ( 'NONE', *, *, #97, .F. ) ;
#338 = AXIS2_PLACEMENT_3D ( 'NONE', #735, #111, #195 ) ;
#339 = MECHANICAL_DESIGN_GEOMETRIC_PRESENTATION_REPRESENTATION (  '', ( #85 ), #731 ) ;
#340 = DIRECTION ( 'NONE',  ( 0.000000000000000000, 0.000000000000000000, 1.000000000000000000 ) ) ;
#341 = EDGE_CURVE ( 'NONE', #720, #599, #74, .T. ) ;
#342 = CARTESIAN_POINT ( 'NONE',  ( -0.08309023360163288185, -0.3544619585783584381, 0.6396648483320708234 ) ) ;
#343 = ORIENTED_EDGE ( 'NONE', *, *, #920, .T. ) ;
#344 = ORIENTED_EDGE ( 'NONE', *, *, #341, .T. ) ;
#345 = CARTESIAN_POINT ( 'NONE',  ( 0.05840468318239196155, -0.4310722904308335046, 0.6152230060746360918 ) ) ;
#346 = DIRECTION ( 'NONE',  ( 0.000000000000000000, -1.000000000000000000, 0.000000000000000000 ) ) ;
#347 = ORIENTED_EDGE ( 'NONE', *, *, #163, .F. ) ;
#348 = DIRECTION ( 'NONE',  ( 0.000000000000000000, 0.000000000000000000, 1.000000000000000000 ) ) ;
#349 = CARTESIAN_POINT ( 'NONE',  ( -0.1254744518144330634, 0.3428872308846385719, 0.6514105839849874124 ) ) ;
#350 = CARTESIAN_POINT ( 'NONE',  ( 7.372972002789946574E-06, 2.174486993823430198E-06, 13.60301585785567191 ) ) ;
#351 = DIRECTION ( 'NONE',  ( -0.000000000000000000, -0.000000000000000000, 1.000000000000000000 ) ) ;
#352 = ADVANCED_FACE ( 'NONE', ( #927 ), #715, .F. ) ;
#353 = CARTESIAN_POINT ( 'NONE',  ( -0.3650046270279966310, 2.174486993868131091E-06, -0.7965825861076580860 ) ) ;
#354 = CARTESIAN_POINT ( 'NONE',  ( 0.4350193729720021052, 2.174486993823430198E-06, 13.55682552695350829 ) ) ;
#355 = TOROIDAL_SURFACE ( 'NONE', #409, 0.3500119999999994347, 0.1000000000000000056 ) ;
#356 = DIRECTION ( 'NONE',  ( -0.05243601290533553977, 0.9986242859807643590, -6.167741219262809573E-15 ) ) ;
#357 = CARTESIAN_POINT ( 'NONE',  ( -0.1604366333557587787, 0.4046793875792491502, 0.6906596313360938710 ) ) ;
#358 = CARTESIAN_POINT ( 'NONE',  ( 0.1709623561568026084, -0.3228120182821505035, 0.7552176903819510789 ) ) ;
#359 = CARTESIAN_POINT ( 'NONE',  ( 0.1236195713815559927, -0.4372544291132375305, 0.6911363459168755607 ) ) ;
#360 = CARTESIAN_POINT ( 'NONE',  ( 0.000000000000000000, 0.000000000000000000, 0.000000000000000000 ) ) ;
#361 = DIRECTION ( 'NONE',  ( 1.000000000000000000, 0.000000000000000000, 0.000000000000000000 ) ) ;
#362 = CARTESIAN_POINT ( 'NONE',  ( 0.03398079994806276621, 0.3634780145754439307, 0.6001554361985178554 ) ) ;
#363 = CARTESIAN_POINT ( 'NONE',  ( -0.2275367239271436914, 0.2723371005733170591, 0.8230799767742442707 ) ) ;
#364 = CARTESIAN_POINT ( 'NONE',  ( -0.07739812744001035860, 0.3540555165165623075, 0.6051679471650998066 ) ) ;
#365 = ORIENTED_EDGE ( 'NONE', *, *, #309, .F. ) ;
#366 = CARTESIAN_POINT ( 'NONE',  ( -0.3709085411263931542, 0.2272835525463300088, 1.438439359936228845 ) ) ;
#367 = CARTESIAN_POINT ( 'NONE',  ( -0.3384621976037656688, 0.1386798822931193387, 1.252107420148289574 ) ) ;
#368 = CARTESIAN_POINT ( 'NONE',  ( -0.1540437629465008507, 0.2761960872858690852, 0.6911363459168703427 ) ) ;
#369 = CARTESIAN_POINT ( 'NONE',  ( -0.08941243157617646820, 0.3534246664405361060, 0.6152230060746346485 ) ) ;
#370 = ORIENTED_EDGE ( 'NONE', *, *, #117, .F. ) ;
#371 = DIRECTION ( 'NONE',  ( 2.477134467922228004E-14, -2.005661443279336664E-15, 1.000000000000000000 ) ) ;
#372 = CARTESIAN_POINT ( 'NONE',  ( -0.1726881615385287283, -0.3993927218501911458, 0.7804168528917576619 ) ) ;
#373 = EDGE_CURVE ( 'NONE', #147, #508, #238, .T. ) ;
#374 = CARTESIAN_POINT ( 'NONE',  ( 0.007566809389681108423, 0.4350215014721823814, 0.5826944201431061288 ) ) ;
#375 = VECTOR ( 'NONE', #727, 99.99999999999998579 ) ;
#376 = VECTOR ( 'NONE', #38, 100.0000000000000142 ) ;
#377 = CARTESIAN_POINT ( 'NONE',  ( -0.3509611227232762309, -0.08541296175493960641, 1.393120264800850494 ) ) ;
#378 = ORIENTED_EDGE ( 'NONE', *, *, #6, .T. ) ;
#379 =( GEOMETRIC_REPRESENTATION_CONTEXT ( 3 ) GLOBAL_UNCERTAINTY_ASSIGNED_CONTEXT ( ( #525 ) ) GLOBAL_UNIT_ASSIGNED_CONTEXT ( ( #1, #223, #305 ) ) REPRESENTATION_CONTEXT ( 'NONE', 'WORKASPACE' ) );
#380 = CARTESIAN_POINT ( 'NONE',  ( -0.02713646024536236698, -0.3589923676974400846, 0.5787920667749208992 ) ) ;
#381 = CARTESIAN_POINT ( 'NONE',  ( 0.02349651609787870021, 0.4344526550769124973, 0.5935394601558491301 ) ) ;
#382 = ORIENTED_EDGE ( 'NONE', *, *, #97, .T. ) ;
#383 = MANIFOLD_SOLID_BREP ( 'Cut-Extrude4', #656 ) ;
#384 = CARTESIAN_POINT ( 'NONE',  ( -0.3368498123876122463, -0.1410665659690908957, 1.321588770078589326 ) ) ;
#385 = CARTESIAN_POINT ( 'NONE',  ( 0.07745701004068809847, 0.3541219179252298455, 0.7315678656395880886 ) ) ;
#386 = CARTESIAN_POINT ( 'NONE',  ( 0.2096952463956627821, -0.3824296287396860006, 0.8714913259687071534 ) ) ;
#387 = SURFACE_SIDE_STYLE ('',( #233 ) ) ;
#388 = EDGE_LOOP ( 'NONE', ( #257, #458, #246, #5 ) ) ;
#389 = EDGE_CURVE ( 'NONE', #330, #964, #306, .T. ) ;
#390 = B_SPLINE_CURVE_WITH_KNOTS ( 'NONE', 3,
 ( #898, #295, #57, #372, #454, #447, #821, #758 ),
 .UNSPECIFIED., .F., .F.,
 ( 4, 2, 2, 4 ),
 ( 0.0002938862030204476600, 0.001487686618040784132, 0.002084586825550952503, 0.002681487033061120875 ),
 .UNSPECIFIED. ) ;
#391 = CARTESIAN_POINT ( 'NONE',  ( -0.2474489239760591930, 0.3577741986095517301, 0.8714913259686951630 ) ) ;
#392 = CARTESIAN_POINT ( 'NONE',  ( -0.3516010393730889527, 0.04852622733129575289, 1.347582151190730659 ) ) ;
#393 = ORIENTED_EDGE ( 'NONE', *, *, #496, .F. ) ;
#394 = CIRCLE ( 'NONE', #22, 0.4350119999999994547 ) ;
#395 = CARTESIAN_POINT ( 'NONE',  ( -0.03391904085184266338, -0.4337986298039776534, 0.5789848650675896158 ) ) ;
#396 = CARTESIAN_POINT ( 'NONE',  ( -0.2601714758672351024, 0.3589179636165507059, 0.9214620077814708043 ) ) ;
#397 = CARTESIAN_POINT ( 'NONE',  ( 0.07648637923022125196, 0.4803661167690562728, 1.438439359936230844 ) ) ;
#398 = EDGE_LOOP ( 'NONE', ( #94, #285, #485, #855 ) ) ;
#399 = CARTESIAN_POINT ( 'NONE',  ( 0.007979062329381740939, 0.4365423184187582351, 1.291008134042003874 ) ) ;
#400 = CARTESIAN_POINT ( 'NONE',  ( -0.2583666207918050017, 0.05342180341990042380, 0.9702694108281516572 ) ) ;
#401 = CARTESIAN_POINT ( 'NONE',  ( -0.09316645955664371037, 0.4249187275605630365, 0.6152230060746340934 ) ) ;
#402 = EDGE_LOOP ( 'NONE', ( #162, #906, #866, #265, #492, #307, #465 ) ) ;
#403 = ADVANCED_BREP_SHAPE_REPRESENTATION ( '15cm_auger_penetrolzyer_drillcover', ( #383, #308 ), #379 ) ;
#404 = CARTESIAN_POINT ( 'NONE',  ( -0.08474546109452062159, -0.4268455905556894359, 0.6271480253253516324 ) ) ;
#405 = CARTESIAN_POINT ( 'NONE',  ( -0.001626247518327148932, -0.3534943780293689497, 0.5756769458841025644 ) ) ;
#406 = EDGE_CURVE ( 'NONE', #788, #836, #849, .T. ) ;
#407 = VERTEX_POINT ( 'NONE', #739 ) ;
#408 = CARTESIAN_POINT ( 'NONE',  ( -0.001249670339340883552, 0.4360577338236157896, 0.5787920667748626125 ) ) ;
#409 = AXIS2_PLACEMENT_3D ( 'NONE', #662, #340, #969 ) ;
#410 = CIRCLE ( 'NONE', #241, 0.3650119999999993925 ) ;
#411 = CARTESIAN_POINT ( 'NONE',  ( 0.2776534112156217038, -0.2375865589403002021, 1.105237254811381575 ) ) ;
#412 = CARTESIAN_POINT ( 'NONE',  ( -0.09787187749652791202, -0.4290537458726645936, 0.6667020346734812142 ) ) ;
#413 = ORIENTED_EDGE ( 'NONE', *, *, #528, .F. ) ;
#414 = B_SPLINE_CURVE_WITH_KNOTS ( 'NONE', 3,
 ( #971, #598, #47, #609, #358, #917, #905, #829, #277, #900, #284, #519 ),
 .UNSPECIFIED., .F., .F.,
 ( 4, 2, 2, 2, 2, 4 ),
 ( 8.688891182318484637E-17, 0.0007698701755477141417, 0.001539740351095339379, 0.002309610526642964616, 0.002694545614416776150, 0.003079480702190587685 ),
 .UNSPECIFIED. ) ;
#415 = FACE_OUTER_BOUND ( 'NONE', #388, .T. ) ;
#416 = CARTESIAN_POINT ( 'NONE',  ( -0.09704841863825255932, -0.4291204188653324758, 0.6635932649105077408 ) ) ;
#417 = CARTESIAN_POINT ( 'NONE',  ( -0.1746429531463000173, 0.3986714046341479079, 0.7116033952882804270 ) ) ;
#418 = EDGE_LOOP ( 'NONE', ( #13, #901, #365, #963 ) ) ;
#419 = EDGE_CURVE ( 'NONE', #615, #784, #653, .T. ) ;
#420 = CARTESIAN_POINT ( 'NONE',  ( 0.1644074729676247848, -0.4029761442487784784, 0.7550883517355656549 ) ) ;
#421 = CARTESIAN_POINT ( 'NONE',  ( -0.07616536068587118069, -0.4308112574005529827, 0.6145278106649456618 ) ) ;
#422 = CARTESIAN_POINT ( 'NONE',  ( -0.1997373888329669056, -0.4301758109274612663, 0.8464806800282264065 ) ) ;
#423 = PRESENTATION_LAYER_ASSIGNMENT (  '', '', ( #85 ) ) ;
#424 = CARTESIAN_POINT ( 'NONE',  ( 0.07701868802784987700, -0.4282260444320505344, 0.6324857536546946157 ) ) ;
#425 = CARTESIAN_POINT ( 'NONE',  ( -0.02280292187398331311, 0.4344157223800571566, 1.438439359936251938 ) ) ;
#426 = DIRECTION ( 'NONE',  ( 1.000000000000000000, 0.000000000000000000, 0.000000000000000000 ) ) ;
#427 = FACE_OUTER_BOUND ( 'NONE', #576, .T. ) ;
#428 = CARTESIAN_POINT ( 'NONE',  ( 0.01239240422069215475, -0.3648761715110016013, 0.5804382378829510136 ) ) ;
#429 = VERTEX_POINT ( 'NONE', #110 ) ;
#430 = EDGE_LOOP ( 'NONE', ( #830, #99, #156, #769 ) ) ;
#431 = CARTESIAN_POINT ( 'NONE',  ( 7.372972002789946574E-06, 2.174486993823430198E-06, -0.7965825861076580860 ) ) ;
#432 = CARTESIAN_POINT ( 'NONE',  ( 7.372972002789946574E-06, 2.174486993823430198E-06, 13.50414725818924389 ) ) ;
#433 = CARTESIAN_POINT ( 'NONE',  ( -0.2940999743966597468, 0.2171279360893696442, 1.064827262675624997 ) ) ;
#434 = CARTESIAN_POINT ( 'NONE',  ( 0.2782306628666552650, 0.4640314875298530151, 0.8714913259687071534 ) ) ;
#435 = EDGE_CURVE ( 'NONE', #474, #964, #493, .T. ) ;
#436 = CARTESIAN_POINT ( 'NONE',  ( 7.372972002789946574E-06, 2.174486993823430198E-06, -0.7492608548719227324 ) ) ;
#437 = CARTESIAN_POINT ( 'NONE',  ( 0.08021397080737187324, -0.2816220904798638069, 0.6235752708504803676 ) ) ;
#438 = DIRECTION ( 'NONE',  ( -0.000000000000000000, -0.000000000000000000, -1.000000000000000000 ) ) ;
#439 = VECTOR ( 'NONE', #351, 100.0000000000000000 ) ;
#440 = APPLICATION_CONTEXT ( 'automotive_design' ) ;
#441 = CARTESIAN_POINT ( 'NONE',  ( 0.05910595520781986023, 0.3602395203687316361, 0.6406407317076859842 ) ) ;
#442 = CARTESIAN_POINT ( 'NONE',  ( -0.3543848204319835493, -0.08740453806021911132, 1.438439359936230622 ) ) ;
#443 = CARTESIAN_POINT ( 'NONE',  ( -0.2513512862365022693, -0.08018262363394496051, 0.9702694108281524343 ) ) ;
#444 = B_SPLINE_SURFACE_WITH_KNOTS ( 'NONE', 3, 1, ( 
 ( #754, #833 ),
 ( #461, #828 ),
 ( #690, #58 ),
 ( #524, #899 ),
 ( #993, #822 ),
 ( #368, #597 ),
 ( #910, #684 ),
 ( #536, #201 ),
 ( #987, #51 ),
 ( #363, #276 ),
 ( #289, #976 ),
 ( #296, #678 ) ),
 .UNSPECIFIED., .F., .F., .F.,
 ( 4, 2, 2, 2, 2, 4 ),
 ( 2, 2 ),
 ( 0.000000000000000000, 0.1249999999999990563, 0.2499999999999981126, 0.4999999999999987788, 0.7499999999999993339, 1.000000000000000000 ),
 ( 0.000000000000000000, 1.000000000000000000 ),
 .UNSPECIFIED. ) ;
#445 = ORIENTED_EDGE ( 'NONE', *, *, #948, .T. ) ;
#446 = CARTESIAN_POINT ( 'NONE',  ( 0.09336575524137931403, -0.4348048684079073301, 0.6514059583171423196 ) ) ;
#447 = CARTESIAN_POINT ( 'NONE',  ( -0.1968962958357813042, -0.3879906875686968681, 0.8339071750121563875 ) ) ;
#448 = CARTESIAN_POINT ( 'NONE',  ( -0.1030060536419548645, 0.4227611446544171647, 0.6235299108186274086 ) ) ;
#449 = CARTESIAN_POINT ( 'NONE',  ( -0.2629886874638532879, -0.3863846131748612800, 1.066857402300977364 ) ) ;
#450 = ORIENTED_EDGE ( 'NONE', *, *, #16, .F. ) ;
#451 = DIRECTION ( 'NONE',  ( 1.000000000000000000, 0.000000000000000000, -2.471305621480776641E-14 ) ) ;
#452 = ADVANCED_FACE ( 'NONE', ( #255 ), #908, .F. ) ;
#453 = CARTESIAN_POINT ( 'NONE',  ( -0.3520035725177446118, -0.09705935342636526353, 1.414364926234479292 ) ) ;
#454 = CARTESIAN_POINT ( 'NONE',  ( -0.1813953154798511047, -0.3954754865996615298, 0.7979957655481910717 ) ) ;
#455 = CARTESIAN_POINT ( 'NONE',  ( 0.07365072641360789762, 0.4287409223746582732, 0.7330488186745569568 ) ) ;
#456 = CARTESIAN_POINT ( 'NONE',  ( -0.2789906130117672522, -0.08163391629308412722, 1.066857402300975366 ) ) ;
#457 = CARTESIAN_POINT ( 'NONE',  ( -0.03761900826952477989, 0.3631476081910859355, 0.5804825918267410012 ) ) ;
#458 = ORIENTED_EDGE ( 'NONE', *, *, #872, .T. ) ;
#459 = CARTESIAN_POINT ( 'NONE',  ( -0.2131026022179253188, -0.2963386742304041643, 0.8714913259686991598 ) ) ;
#460 = CARTESIAN_POINT ( 'NONE',  ( 0.07786042692412828425, 0.3566280108206425492, 0.8461149395102335324 ) ) ;
#461 = CARTESIAN_POINT ( 'NONE',  ( -0.09552586766143032759, 0.2792687595164938252, 0.6235752708504781472 ) ) ;
#462 = CIRCLE ( 'NONE', #20, 0.3650119999999993925 ) ;
#463 = VECTOR ( 'NONE', #543, 99.99999999999998579 ) ;
#464 = CARTESIAN_POINT ( 'NONE',  ( 0.3265086762447851898, -0.1620521911527673387, 1.393120264800850494 ) ) ;
#465 = ORIENTED_EDGE ( 'NONE', *, *, #406, .F. ) ;
#466 = CARTESIAN_POINT ( 'NONE',  ( 0.04604986556127162872, 0.4385413496436189607, 0.6227541184294957954 ) ) ;
#467 = EDGE_CURVE ( 'NONE', #533, #429, #134, .T. ) ;
#468 = CARTESIAN_POINT ( 'NONE',  ( 0.3050174657324647431, -0.3901475827905213078, 1.347582151190746425 ) ) ;
#469 = VERTEX_POINT ( 'NONE', #992 ) ;
#470 = CARTESIAN_POINT ( 'NONE',  ( -0.2261338732835029841, -0.2869673915824056953, 0.9209754485379471056 ) ) ;
#471 = CARTESIAN_POINT ( 'NONE',  ( 0.06854486374105406288, 0.4397225226146954102, 0.6940867192409251318 ) ) ;
#472 = CARTESIAN_POINT ( 'NONE',  ( -0.3237369457057715505, 0.04998932210642349772, 1.208776106430185182 ) ) ;
#473 = CARTESIAN_POINT ( 'NONE',  ( -0.3140577867818014624, -0.3013402788472027138, 1.246037323553405018 ) ) ;
#474 = VERTEX_POINT ( 'NONE', #689 ) ;
#475 = CARTESIAN_POINT ( 'NONE',  ( -0.007267706707821047080, 0.4357417372700494451, 1.364741872380738075 ) ) ;
#476 = CARTESIAN_POINT ( 'NONE',  ( 0.05264207177666382215, -0.3578883209909244911, 0.6051679471650948106 ) ) ;
#477 = CIRCLE ( 'NONE', #30, 0.09999999999999996392 ) ;
#478 = CARTESIAN_POINT ( 'NONE',  ( -0.3676029649210043049, 0.3532769242131000853, 1.347582151190728883 ) ) ;
#479 = CARTESIAN_POINT ( 'NONE',  ( 0.2332910651244755329, -0.3674573685019333347, 0.9651209636159322480 ) ) ;
#480 = VERTEX_POINT ( 'NONE', #921 ) ;
#481 = TOROIDAL_SURFACE ( 'NONE', #586, 0.3500119999999994347, 0.1000000000000000056 ) ;
#482 = CARTESIAN_POINT ( 'NONE',  ( 0.07530364140078228685, 0.4400774141966104502, 0.8068387293646611669 ) ) ;
#483 = CARTESIAN_POINT ( 'NONE',  ( -0.2441695503193197503, 0.05416726673474637349, 0.9214620077814726917 ) ) ;
#484 = CARTESIAN_POINT ( 'NONE',  ( 0.03985143643488711640, -0.3630853539825606990, 0.5956191173299364428 ) ) ;
#485 = ORIENTED_EDGE ( 'NONE', *, *, #419, .T. ) ;
#486 = EDGE_CURVE ( 'NONE', #939, #147, #390, .T. ) ;
#487 = CARTESIAN_POINT ( 'NONE',  ( 0.06524832794292510785, 0.4395494272913786915, 0.6754123841349648494 ) ) ;
#488 = DIRECTION ( 'NONE',  ( -0.05243601290533553977, 0.9986242859807643590, -6.167741219262809573E-15 ) ) ;
#489 = EDGE_LOOP ( 'NONE', ( #704, #546, #378, #239 ) ) ;
#490 = B_SPLINE_CURVE_WITH_KNOTS ( 'NONE', 3,
 ( #459, #470, #68, #612, #771, #693, #73, #384, #287, #140, #453, #209 ),
 .UNSPECIFIED., .F., .F.,
 ( 4, 2, 2, 2, 2, 4 ),
 ( 0.000000000000000000, 0.001557639157571259845, 0.003115278315142519690, 0.004672917472713779968, 0.005451737051499412276, 0.006230556630285043716 ),
 .UNSPECIFIED. ) ;
#491 = CARTESIAN_POINT ( 'NONE',  ( 0.3220472630054041496, -0.1723605552034629396, 1.340034549146657428 ) ) ;
#492 = ORIENTED_EDGE ( 'NONE', *, *, #169, .F. ) ;
#493 = CIRCLE ( 'NONE', #943, 0.3650119999999993925 ) ;
#494 = FACE_OUTER_BOUND ( 'NONE', #313, .T. ) ;
#495 = CARTESIAN_POINT ( 'NONE',  ( -0.2060576228668004328, -0.4305076753513643606, 0.8714913259687108171 ) ) ;
#496 = EDGE_CURVE ( 'NONE', #533, #298, #157, .T. ) ;
#497 = CARTESIAN_POINT ( 'NONE',  ( 0.2039572594645829018, -0.3842951613988790371, 0.8466626874522413804 ) ) ;
#498 = CARTESIAN_POINT ( 'NONE',  ( -0.08918664417199188843, -0.4297569631517620392, 0.6396648483320708234 ) ) ;
#499 = CARTESIAN_POINT ( 'NONE',  ( -0.08167056481184954697, -0.4239763287047934592, 0.6477070589135441869 ) ) ;
#500 = DIRECTION ( 'NONE',  ( -1.000000000000000000, 1.224657440497009026E-16, 0.000000000000000000 ) ) ;
#501 = B_SPLINE_SURFACE_WITH_KNOTS ( 'NONE', 3, 1, ( 
 ( #179, #95 ),
 ( #107, #631 ),
 ( #405, #936 ),
 ( #857, #15 ),
 ( #243, #718 ),
 ( #23, #159 ),
 ( #476, #176 ),
 ( #554, #328 ) ),
 .UNSPECIFIED., .F., .F., .F.,
 ( 4, 2, 2, 4 ),
 ( 2, 2 ),
 ( 0.000000000000000000, 0.2500000000000000555, 0.4999999999999999445, 1.000000000000000000 ),
 ( 0.000000000000000000, 1.000000000000000000 ),
 .UNSPECIFIED. ) ;
#502 = CARTESIAN_POINT ( 'NONE',  ( -0.03582008207517052567, -0.3582892808962349074, 0.5826848695918942500 ) ) ;
#503 = CARTESIAN_POINT ( 'NONE',  ( -0.1171810287400079920, -0.4258409209953588626, 0.6911363459168746726 ) ) ;
#504 = CIRCLE ( 'NONE', #637, 0.4350119999999994547 ) ;
#505 = VECTOR ( 'NONE', #356, 100.0000000000000142 ) ;
#506 = CARTESIAN_POINT ( 'NONE',  ( -0.2081404896626079248, 0.3001092001431179823, 0.7773726307546190428 ) ) ;
#507 = CARTESIAN_POINT ( 'NONE',  ( -0.2004458437505767798, 0.3863419205459833750, 0.7546778320404124996 ) ) ;
#508 = VERTEX_POINT ( 'NONE', #145 ) ;
#509 = CYLINDRICAL_SURFACE ( 'NONE', #48, 0.4350119999999994547 ) ;
#510 = CARTESIAN_POINT ( 'NONE',  ( -0.09929744469509345361, 0.3513933532122982539, 0.6235622848638078253 ) ) ;
#511 = EDGE_CURVE ( 'NONE', #615, #78, #336, .T. ) ;
#512 = CARTESIAN_POINT ( 'NONE',  ( -0.04191649264552951837, -0.4335842854696384530, 0.5826848695918942500 ) ) ;
#513 = CARTESIAN_POINT ( 'NONE',  ( -0.09502784658078276825, -0.4246776961850845522, 0.6631508402256061085 ) ) ;
#514 = CARTESIAN_POINT ( 'NONE',  ( -0.3544796935083584510, -0.08559771574669079730, 1.438439359936232842 ) ) ;
#515 = CARTESIAN_POINT ( 'NONE',  ( 0.08897526463869005753, -0.2823314661499483069, 0.6326355335633200294 ) ) ;
#516 = CARTESIAN_POINT ( 'NONE',  ( 0.1318382481586088117, 0.4758844420452679747, 0.6152230060746360918 ) ) ;
#517 = CARTESIAN_POINT ( 'NONE',  ( -0.03323287081572136314, -0.4342873722708436857, 0.5787920667749208992 ) ) ;
#518 = CARTESIAN_POINT ( 'NONE',  ( 0.07407214639893747177, 0.4286733723499386306, 0.8462075261582759911 ) ) ;
#519 = CARTESIAN_POINT ( 'NONE',  ( 0.06421438664372587646, -0.3593183224782624530, 0.6152230060746360918 ) ) ;
#520 = ORIENTED_EDGE ( 'NONE', *, *, #779, .F. ) ;
#521 = CARTESIAN_POINT ( 'NONE',  ( 0.2032983516750281883, -0.2915878634394251656, 0.8230799767742568163 ) ) ;
#522 = AXIS2_PLACEMENT_3D ( 'NONE', #853, #81, #228 ) ;
#523 = CARTESIAN_POINT ( 'NONE',  ( -0.3582259903234946141, 0.07097762685907207936, 1.391065580900660237 ) ) ;
#524 = CARTESIAN_POINT ( 'NONE',  ( -0.1220562935390231973, 0.2778756933020716247, 0.6514059583171410983 ) ) ;
#525 = UNCERTAINTY_MEASURE_WITH_UNIT (LENGTH_MEASURE( 1.000000000000000082E-05 ), #1, 'distance_accuracy_value', 'NONE');
#526 = FACE_OUTER_BOUND ( 'NONE', #686, .T. ) ;
#527 = ORIENTED_EDGE ( 'NONE', *, *, #240, .F. ) ;
#528 = EDGE_CURVE ( 'NONE', #78, #469, #602, .T. ) ;
#529 = CARTESIAN_POINT ( 'NONE',  ( 0.1736392215879062062, -0.2891864526792398138, 0.7551366283434193249 ) ) ;
#530 = CARTESIAN_POINT ( 'NONE',  ( -0.3334659797552274041, 0.2798665776849993958, 1.199156240990653322 ) ) ;
#531 = CARTESIAN_POINT ( 'NONE',  ( 0.04796319968710843762, 0.4325241980759034210, 0.6229514251937003921 ) ) ;
#532 = CARTESIAN_POINT ( 'NONE',  ( -0.3167216111504688181, -0.08361510494742188659, 1.208776106430185848 ) ) ;
#533 = VERTEX_POINT ( 'NONE', #199 ) ;
#534 = CARTESIAN_POINT ( 'NONE',  ( 0.3500193729720021962, 2.174486993823430198E-06, 13.50414725818924389 ) ) ;
#535 = CARTESIAN_POINT ( 'NONE',  ( 0.06763493303779194443, 0.3587303341380637667, 0.9580927470681850355 ) ) ;
#536 = CARTESIAN_POINT ( 'NONE',  ( -0.1948074816215221994, 0.2740556557857345976, 0.7551366283434151061 ) ) ;
#537 = CARTESIAN_POINT ( 'NONE',  ( -0.3445857048177862203, -0.08507819972254962448, 1.347582151190731325 ) ) ;
#538 = CARTESIAN_POINT ( 'NONE',  ( -0.04466533452944471821, 0.3623355433199139664, 0.5839478902656564108 ) ) ;
#539 = EDGE_LOOP ( 'NONE', ( #812, #716, #25, #270, #108, #344, #692 ) ) ;
#540 = CARTESIAN_POINT ( 'NONE',  ( 0.05398696519410291911, 0.4389581128493819651, 0.6396648483320278578 ) ) ;
#541 = CARTESIAN_POINT ( 'NONE',  ( -0.2315418715045149123, 0.05483032404127582971, 0.8714913259686971614 ) ) ;
#542 = ORIENTED_EDGE ( 'NONE', *, *, #794, .T. ) ;
#543 = DIRECTION ( 'NONE',  ( -0.08070290107801876556, -0.9967382012131328350, -0.000000000000000000 ) ) ;
#544 = DIRECTION ( 'NONE',  ( -0.000000000000000000, -0.000000000000000000, -1.000000000000000000 ) ) ;
#545 = DIRECTION ( 'NONE',  ( 1.000000000000000000, 0.000000000000000000, -2.477134467922228004E-14 ) ) ;
#546 = ORIENTED_EDGE ( 'NONE', *, *, #664, .T. ) ;
#547 = CARTESIAN_POINT ( 'NONE',  ( -0.01816724664409805415, 0.4351360924232204330, 0.5742752392857380928 ) ) ;
#548 = CARTESIAN_POINT ( 'NONE',  ( 0.3765562045924754631, 0.4560703634777362736, 1.438439359936233730 ) ) ;
#549 = CARTESIAN_POINT ( 'NONE',  ( -0.3020078731149853368, 0.3567212076425655964, 1.066857402300972701 ) ) ;
#550 = CARTESIAN_POINT ( 'NONE',  ( -0.06875818698973065746, 0.4297645157846459729, 0.5956540965871581772 ) ) ;
#551 = EDGE_LOOP ( 'NONE', ( #699, #611, #382, #33 ) ) ;
#552 = CARTESIAN_POINT ( 'NONE',  ( -0.04121805791766131044, 0.4339257346796853154, 0.5804340310354978438 ) ) ;
#553 = CARTESIAN_POINT ( 'NONE',  ( 0.04873265896122526419, 0.4386822184281257142, 1.068858885543254589 ) ) ;
#554 = CARTESIAN_POINT ( 'NONE',  ( 0.06425404548003786631, -0.3588285076557511943, 0.6152230060746360918 ) ) ;
#555 = AXIS2_PLACEMENT_3D ( 'NONE', #106, #346, #46 ) ;
#556 = CARTESIAN_POINT ( 'NONE',  ( 0.3650193729720022651, 2.174486993823430198E-06, 13.60301585785567191 ) ) ;
#557 = CARTESIAN_POINT ( 'NONE',  ( 0.3115352749020848244, -0.3037530531429190050, 1.341309278541308991 ) ) ;
#558 = ORIENTED_EDGE ( 'NONE', *, *, #435, .T. ) ;
#559 = AXIS2_PLACEMENT_3D ( 'NONE', #91, #231, #242 ) ;
#560 = CARTESIAN_POINT ( 'NONE',  ( -0.02399943296319220071, -0.4343468941349951651, 0.5763378611589389244 ) ) ;
#561 = EDGE_CURVE ( 'NONE', #784, #469, #649, .T. ) ;
#562 = CARTESIAN_POINT ( 'NONE',  ( 0.05323954266837680610, 0.3528503011124865529, 1.068858885543255255 ) ) ;
#563 = CARTESIAN_POINT ( 'NONE',  ( 0.2942560140247381106, -0.3892762603393826182, 1.255465620127961479 ) ) ;
#564 = CARTESIAN_POINT ( 'NONE',  ( 0.2208969146525923688, -0.3749692572508950272, 0.9185876914236729140 ) ) ;
#565 = EDGE_LOOP ( 'NONE', ( #83, #26, #774, #10 ) ) ;
#566 = PRODUCT_RELATED_PRODUCT_CATEGORY ( 'part', '', ( #682 ) ) ;
#567 = CARTESIAN_POINT ( 'NONE',  ( 0.06421438664372587646, -0.3593183224782624530, 0.6152230060746360918 ) ) ;
#568 = ORIENTED_EDGE ( 'NONE', *, *, #62, .F. ) ;
#569 = PRODUCT_DEFINITION_SHAPE ( 'NONE', 'NONE',  #738 ) ;
#570 = ADVANCED_FACE ( 'NONE', ( #717, #930 ), #713, .F. ) ;
#571 = DIRECTION ( 'NONE',  ( 2.477134467922228004E-14, -2.005661443279336664E-15, 1.000000000000000000 ) ) ;
#572 = CARTESIAN_POINT ( 'NONE',  ( 0.4350193729720022717, 2.174486993823430198E-06, -0.7965825861076580860 ) ) ;
#573 = CARTESIAN_POINT ( 'NONE',  ( 0.05840468318239196155, -0.4310722904308335046, 0.6152230060746360918 ) ) ;
#574 = CIRCLE ( 'NONE', #701, 0.4350119999999994547 ) ;
#575 = CARTESIAN_POINT ( 'NONE',  ( -0.4350046270279966376, 2.174486993876703912E-06, -0.7965825861076580860 ) ) ;
#576 = EDGE_LOOP ( 'NONE', ( #796, #215, #824, #337 ) ) ;
#577 = CARTESIAN_POINT ( 'NONE',  ( -0.2131026022179253188, -0.2963386742304041643, 0.8714913259686991598 ) ) ;
#578 = CARTESIAN_POINT ( 'NONE',  ( -0.08637210155946788148, -0.3541962355782467542, 0.6484388929721880412 ) ) ;
#579 = DIRECTION ( 'NONE',  ( 1.224646799147353207E-16, 1.000000000000000000, -0.000000000000000000 ) ) ;
#580 = B_SPLINE_CURVE_WITH_KNOTS ( 'NONE', 3,
 ( #283, #840, #374, #381, #767, #531, #998, #608, #141, #455, #916, #594, #518, #603, #146, #127, #213, #981, #70, #759 ),
 .UNSPECIFIED., .F., .F.,
 ( 4, 2, 2, 2, 2, 2, 2, 2, 2, 4 ),
 ( 7.256156310558722205E-17, 0.0002848808066527782072, 0.0005697616133054837729, 0.001139523226610893170, 0.001709284839916302458, 0.002279046453221711746, 0.003418569679832527720, 0.004558092906443344562, 0.006837139359664976511, 0.009116185812886609327 ),
 .UNSPECIFIED. ) ;
#581 = ORIENTED_EDGE ( 'NONE', *, *, #838, .F. ) ;
#582 = CARTESIAN_POINT ( 'NONE',  ( -0.1143678469418872023, -0.3468858112956741402, 0.6820430278747720010 ) ) ;
#583 = DIRECTION ( 'NONE',  ( 0.000000000000000000, 0.000000000000000000, 1.000000000000000000 ) ) ;
#584 = CARTESIAN_POINT ( 'NONE',  ( 0.1614029073541993486, -0.4403136324443495675, 0.7551366283434193249 ) ) ;
#585 = EDGE_CURVE ( 'NONE', #144, #720, #304, .T. ) ;
#586 = AXIS2_PLACEMENT_3D ( 'NONE', #742, #348, #211 ) ;
#587 = DIRECTION ( 'NONE',  ( 1.224646799147353207E-16, 1.000000000000000000, -0.000000000000000000 ) ) ;
#588 = CARTESIAN_POINT ( 'NONE',  ( -0.3331360170240292851, -0.4920800645828458109, 1.438439359936233286 ) ) ;
#589 = CARTESIAN_POINT ( 'NONE',  ( -0.1316254773863303473, -0.4265993737050133849, 0.7120796211116403596 ) ) ;
#590 = CARTESIAN_POINT ( 'NONE',  ( -0.2764831274889912871, -0.3870931825950543193, 1.114515310850286545 ) ) ;
#591 = DIRECTION ( 'NONE',  ( -0.000000000000000000, -0.000000000000000000, 1.000000000000000000 ) ) ;
#592 = CARTESIAN_POINT ( 'NONE',  ( -0.08634886062864750855, -0.3546474569273213584, 0.6488673901897413776 ) ) ;
#593 = CARTESIAN_POINT ( 'NONE',  ( -0.01913240097060982248, 0.3645120223614035093, 1.438439359936252160 ) ) ;
#594 = CARTESIAN_POINT ( 'NONE',  ( 0.07588242486730285841, 0.4283467204092475389, 0.8087085062620135156 ) ) ;
#595 = CARTESIAN_POINT ( 'NONE',  ( 0.05267556535130392403, 0.3613362286638436838, 1.069558237616938356 ) ) ;
#596 = EDGE_CURVE ( 'NONE', #130, #939, #820, .T. ) ;
#597 = CARTESIAN_POINT ( 'NONE',  ( -0.1617095216911788591, 0.4221876001555658897, 0.6911363459168694545 ) ) ;
#598 = CARTESIAN_POINT ( 'NONE',  ( 0.2109176136708307003, -0.2980007342657257086, 0.8465442686428400476 ) ) ;
#599 = VERTEX_POINT ( 'NONE', #21 ) ;
#600 = CARTESIAN_POINT ( 'NONE',  ( 0.06797765657366502956, -0.4327492702449736162, 0.6235752708504803676 ) ) ;
#601 = CIRCLE ( 'NONE', #623, 0.3650119999999993925 ) ;
#602 = LINE ( 'NONE', #275, #505 ) ;
#603 = CARTESIAN_POINT ( 'NONE',  ( 0.06810483873347972228, 0.4296617160974410821, 0.9209462448962394410 ) ) ;
#604 = CARTESIAN_POINT ( 'NONE',  ( -0.3007196856025548537, -0.3883658018291989977, 1.208776106430187625 ) ) ;
#605 = ORIENTED_EDGE ( 'NONE', *, *, #406, .T. ) ;
#606 = CARTESIAN_POINT ( 'NONE',  ( 0.1722898238505903845, -0.4411951134029237220, 0.7773814295723925349 ) ) ;
#607 = CARTESIAN_POINT ( 'NONE',  ( 0.06985714449701942164, 0.3583101386855383486, 0.6769605732660131103 ) ) ;
#608 = CARTESIAN_POINT ( 'NONE',  ( 0.06611620389343811355, 0.4299956215626120626, 0.6770666683969766009 ) ) ;
#609 = CARTESIAN_POINT ( 'NONE',  ( 0.1824154836322887940, -0.3163803901973101795, 0.7774249394821033388 ) ) ;
#610 = FACE_OUTER_BOUND ( 'NONE', #551, .T. ) ;
#611 = ORIENTED_EDGE ( 'NONE', *, *, #920, .F. ) ;
#612 = CARTESIAN_POINT ( 'NONE',  ( -0.2698008745405352515, -0.2466712029937361828, 1.065017086292873172 ) ) ;
#613 = CARTESIAN_POINT ( 'NONE',  ( 0.07742488750107577589, 0.3567166648761713188, 0.7329444863643046482 ) ) ;
#614 = CARTESIAN_POINT ( 'NONE',  ( -0.07756866943475011766, 0.3568852985417809709, 0.6051862713878692901 ) ) ;
#615 = VERTEX_POINT ( 'NONE', #785 ) ;
#616 = PRODUCT_CONTEXT ( 'NONE', #440, 'mechanical' ) ;
#617 = ADVANCED_FACE ( 'NONE', ( #96 ), #143, .F. ) ;
#618 = CARTESIAN_POINT ( 'NONE',  ( 0.04574717398106582789, 0.3524568899500528651, 0.6145278106648865979 ) ) ;
#619 = AXIS2_PLACEMENT_3D ( 'NONE', #534, #973, #36 ) ;
#620 = CARTESIAN_POINT ( 'NONE',  ( 0.2517166261612729383, -0.1559965032981576738, 0.9702694108281673113 ) ) ;
#621 = CARTESIAN_POINT ( 'NONE',  ( -0.01040674097058949706, 0.4348895005552414483, 0.5763378611589463629 ) ) ;
#622 = ORIENTED_EDGE ( 'NONE', *, *, #596, .F. ) ;
#623 = AXIS2_PLACEMENT_3D ( 'NONE', #859, #160, #151 ) ;
#624 = SHAPE_DEFINITION_REPRESENTATION ( #569, #403 ) ;
#625 = CARTESIAN_POINT ( 'NONE',  ( 0.01190548844893644063, 0.3506799222914319669, 0.5826848695918305232 ) ) ;
#626 = DIRECTION ( 'NONE',  ( -0.05243601290533553977, 0.9986242859807643590, -6.167741219262809573E-15 ) ) ;
#627 = CARTESIAN_POINT ( 'NONE',  ( 0.2098048583805836032, -0.3810758428011145060, 0.8714913259687071534 ) ) ;
#628 = VERTEX_POINT ( 'NONE', #324 ) ;
#629 = CARTESIAN_POINT ( 'NONE',  ( -0.02622725599691187737, 0.4347128754432466602, 0.5756769458840865772 ) ) ;
#630 = CARTESIAN_POINT ( 'NONE',  ( 0.01248594603653328285, 0.3507104011031190183, 1.291008134042004540 ) ) ;
#631 = CARTESIAN_POINT ( 'NONE',  ( -0.01632542406909054042, -0.4354612614859821873, 0.5742752392857631838 ) ) ;
#632 = EDGE_CURVE ( 'NONE', #508, #152, #725, .T. ) ;
#633 = CARTESIAN_POINT ( 'NONE',  ( -0.2995003875922079839, 0.05126194134056818313, 1.114515310850284102 ) ) ;
#634 =( NAMED_UNIT ( * ) PLANE_ANGLE_UNIT ( ) SI_UNIT ( $, .RADIAN. ) );
#635 = EDGE_LOOP ( 'NONE', ( #952, #60, #646, #581 ) ) ;
#636 = CARTESIAN_POINT ( 'NONE',  ( 0.07853831641701529420, 0.3541786954299429580, 0.7504183140383271500 ) ) ;
#637 = AXIS2_PLACEMENT_3D ( 'NONE', #850, #762, #300 ) ;
#638 = CARTESIAN_POINT ( 'NONE',  ( 0.2281831345189672677, -0.1540910671006507637, 0.8714913259687071534 ) ) ;
#639 = CARTESIAN_POINT ( 'NONE',  ( -0.2031828604648952263, -0.4852564518487253453, 0.8714913259687111502 ) ) ;
#640 = ORIENTED_EDGE ( 'NONE', *, *, #467, .T. ) ;
#641 = EDGE_CURVE ( 'NONE', #939, #293, #764, .T. ) ;
#642 = CIRCLE ( 'NONE', #619, 0.1000000000000000888 ) ;
#643 = CARTESIAN_POINT ( 'NONE',  ( -0.09386415155209053285, -0.4008357310210269309, 0.6603081508868074989 ) ) ;
#644 = CARTESIAN_POINT ( 'NONE',  ( 0.05718835785330479704, 0.4391262123730463318, 0.6484388929721542905 ) ) ;
#645 = CARTESIAN_POINT ( 'NONE',  ( 0.3263990642598635361, -0.1634059770913448562, 1.388292643885260969 ) ) ;
#646 = ORIENTED_EDGE ( 'NONE', *, *, #585, .T. ) ;
#647 = CARTESIAN_POINT ( 'NONE',  ( -0.005935852795030030667, 0.3497431046986189118, 0.5763378611588823031 ) ) ;
#648 = EDGE_CURVE ( 'NONE', #407, #130, #949, .T. ) ;
#649 = B_SPLINE_CURVE_WITH_KNOTS ( 'NONE', 3,
 ( #677, #909, #980, #212, #530, #832, #87, #11, #851, #391 ),
 .UNSPECIFIED., .F., .F.,
 ( 4, 2, 2, 2, 4 ),
 ( 3.747263710653777692E-17, 0.001487079739350746516, 0.002974159478701455302, 0.004461239218052164522, 0.005948318957402873308 ),
 .UNSPECIFIED. ) ;
#650 = CARTESIAN_POINT ( 'NONE',  ( 0.2282785726738088272, -0.2851759371602222148, 0.9190825912044209289 ) ) ;
#651 = ORIENTED_EDGE ( 'NONE', *, *, #641, .F. ) ;
#652 = ADVANCED_FACE ( 'NONE', ( #957 ), #501, .F. ) ;
#653 = LINE ( 'NONE', #588, #376 ) ;
#654 = CARTESIAN_POINT ( 'NONE',  ( -0.1387124745069537868, -0.2916301598537030526, 0.7120796211116394714 ) ) ;
#655 = CARTESIAN_POINT ( 'NONE',  ( 0.04652047324266865569, -0.4326822347697719673, 0.6051113752156587200 ) ) ;
#656 = CLOSED_SHELL ( 'NONE', ( #852, #733, #187, #697, #352, #925, #452, #173, #280, #986, #803, #652, #706, #79, #617, #816, #131, #883, #766, #570 ) ) ;
#657 = CARTESIAN_POINT ( 'NONE',  ( 0.1019970393753293070, -0.4229597258185393005, 0.6608800949809725545 ) ) ;
#658 = CARTESIAN_POINT ( 'NONE',  ( -0.01834802704091235970, -0.3645480133258303668, 0.5763378611589389244 ) ) ;
#659 = CARTESIAN_POINT ( 'NONE',  ( 7.372972002789946574E-06, 2.174486993823430198E-06, 13.55682552695350829 ) ) ;
#660 = B_SPLINE_SURFACE_WITH_KNOTS ( 'NONE', 3, 1, ( 
 ( #499, #970 ),
 ( #123, #35 ),
 ( #513, #185 ),
 ( #503, #811 ),
 ( #589, #654 ),
 ( #802, #892 ),
 ( #745, #817 ),
 ( #724, #806 ),
 ( #422, #118 ),
 ( #495, #115 ) ),
 .UNSPECIFIED., .F., .F., .F.,
 ( 4, 2, 2, 2, 4 ),
 ( 2, 2 ),
 ( 0.1500581911425619419, 0.2499999999999981126, 0.4999999999999987788, 0.7499999999999993339, 1.000000000000000000 ),
 ( 0.000000000000000000, 1.000000000000000000 ),
 .UNSPECIFIED. ) ;
#661 = B_SPLINE_CURVE_WITH_KNOTS ( 'NONE', 3,
 ( #897, #743, #676, #819, #891, #979, #44, #592 ),
 .UNSPECIFIED., .F., .F.,
 ( 4, 2, 2, 4 ),
 ( 0.000000000000000000, 0.0002595878699652355722, 0.0005191757399304711444, 0.001038351479860940337 ),
 .UNSPECIFIED. ) ;
#662 = CARTESIAN_POINT ( 'NONE',  ( 7.372972002789946574E-06, 2.174486993823430198E-06, -0.6965825861076591075 ) ) ;
#663 = CARTESIAN_POINT ( 'NONE',  ( -0.2474489239760591930, 0.3577741986095517301, 0.8714913259686951630 ) ) ;
#664 = EDGE_CURVE ( 'NONE', #144, #210, #327, .T. ) ;
#665 = CARTESIAN_POINT ( 'NONE',  ( 0.1370958378198774974, -0.4383455619663269021, 0.7120796211116393604 ) ) ;
#666 = CARTESIAN_POINT ( 'NONE',  ( -0.3500046270279966176, 2.174486993866294300E-06, 13.50414725818924389 ) ) ;
#667 = CARTESIAN_POINT ( 'NONE',  ( -0.09349526738823778216, 0.4311807499352359740, 0.6152230060746340934 ) ) ;
#668 = FACE_OUTER_BOUND ( 'NONE', #66, .T. ) ;
#669 = AXIS2_PLACEMENT_3D ( 'NONE', #397, #229, #545 ) ;
#670 = CARTESIAN_POINT ( 'NONE',  ( -0.2075455156799130008, -0.3003349865152944997, 0.8503891978653379535 ) ) ;
#671 = CARTESIAN_POINT ( 'NONE',  ( 0.05165307389551141576, 0.3615363518729357573, 0.6228892006423035754 ) ) ;
#672 = CARTESIAN_POINT ( 'NONE',  ( -0.1371764983631615087, 0.4128988286804507468, 0.6608601815398251755 ) ) ;
#673 = CARTESIAN_POINT ( 'NONE',  ( -0.01834802704091235970, -0.3645480133258303668, 0.5763378611589389244 ) ) ;
#674 = CARTESIAN_POINT ( 'NONE',  ( 0.1910620374413213307, -0.4427150432045349748, 0.8230799767742568163 ) ) ;
#675 = EDGE_CURVE ( 'NONE', #53, #784, #394, .T. ) ;
#676 = CARTESIAN_POINT ( 'NONE',  ( -0.03474063596899673589, -0.3634272948521509172, 0.5820156644270778612 ) ) ;
#677 = CARTESIAN_POINT ( 'NONE',  ( -0.3709085411263931542, 0.2272835525463300088, 1.438439359936228845 ) ) ;
#678 = CARTESIAN_POINT ( 'NONE',  ( -0.2505861158179713000, 0.4175208457995602807, 0.8714913259687055991 ) ) ;
#679 = FACE_BOUND ( 'NONE', #402, .T. ) ;
#680 = ORIENTED_EDGE ( 'NONE', *, *, #250, .T. ) ;
#681 = CARTESIAN_POINT ( 'NONE',  ( 0.06421438664372587646, -0.3593183224782624530, 0.6152230060746360918 ) ) ;
#682 = PRODUCT ( '15cm_auger_penetrolzyer_drillcover', '15cm_auger_penetrolzyer_drillcover', '', ( #616 ) ) ;
#683 = CARTESIAN_POINT ( 'NONE',  ( -0.2683144970238098836, 0.2482885055839614830, 0.9692948407308558112 ) ) ;
#684 = CARTESIAN_POINT ( 'NONE',  ( -0.1761539703375012145, 0.4214291474459113673, 0.7120796211116351415 ) ) ;
#685 = CARTESIAN_POINT ( 'NONE',  ( -0.08148096325207167256, 0.4318116000112621755, 0.6051679471650992514 ) ) ;
#686 = EDGE_LOOP ( 'NONE', ( #343, #542, #558, #751 ) ) ;
#687 = DIRECTION ( 'NONE',  ( -0.000000000000000000, -0.000000000000000000, 1.000000000000000000 ) ) ;
#688 = CIRCLE ( 'NONE', #555, 0.1000000000000000056 ) ;
#689 = CARTESIAN_POINT ( 'NONE',  ( -0.3650046270279966310, 2.174486993872417502E-06, 13.60301585785567191 ) ) ;
#690 = CARTESIAN_POINT ( 'NONE',  ( -0.1046500607541080291, 0.2787896641114702700, 0.6326355335633196963 ) ) ;
#691 = CARTESIAN_POINT ( 'NONE',  ( -0.06479300811434211826, 0.3547173892638135762, 0.5956400212884011003 ) ) ;
#692 = ORIENTED_EDGE ( 'NONE', *, *, #262, .T. ) ;
#693 = CARTESIAN_POINT ( 'NONE',  ( -0.3102402810899150820, -0.1936140060110487504, 1.205871258196671292 ) ) ;
#694 = CARTESIAN_POINT ( 'NONE',  ( 0.002573506008631341879, 0.3651238563116211422, 0.5788183069712977691 ) ) ;
#695 = CARTESIAN_POINT ( 'NONE',  ( 0.3263990642598667002, -0.1634059770913388332, 1.438439359936223516 ) ) ;
#696 = ORIENTED_EDGE ( 'NONE', *, *, #958, .F. ) ;
#697 = ADVANCED_FACE ( 'NONE', ( #494 ), #481, .T. ) ;
#698 = CARTESIAN_POINT ( 'NONE',  ( 0.04124029027391428598, 0.4382888072656920264, 0.6145278106648861538 ) ) ;
#699 = ORIENTED_EDGE ( 'NONE', *, *, #200, .F. ) ;
#700 = CARTESIAN_POINT ( 'NONE',  ( 0.02972276001634861428, 0.4376840419162991713, 0.5997988708761589072 ) ) ;
#701 = AXIS2_PLACEMENT_3D ( 'NONE', #436, #544, #12 ) ;
#702 = CARTESIAN_POINT ( 'NONE',  ( -0.3739783828264943155, 0.3529421621807101173, 1.393120264800847830 ) ) ;
#703 = CARTESIAN_POINT ( 'NONE',  ( 0.3650193729720022096, 2.174486993823430198E-06, -0.7965825861076580860 ) ) ;
#704 = ORIENTED_EDGE ( 'NONE', *, *, #585, .F. ) ;
#705 = DIRECTION ( 'NONE',  ( 1.000000000000000000, 0.000000000000000000, 0.000000000000000000 ) ) ;
#706 = ADVANCED_FACE ( 'NONE', ( #415 ), #991, .F. ) ;
#707 = CARTESIAN_POINT ( 'NONE',  ( -0.09205633745206927288, -0.4251899654021611408, 0.6462907333328896664 ) ) ;
#708 = CARTESIAN_POINT ( 'NONE',  ( 0.3083327111012572064, -0.1958398210771636894, 1.244907539477918768 ) ) ;
#709 = CARTESIAN_POINT ( 'NONE',  ( 0.2332287380379684527, -0.3843350649371929384, 0.9702694108281673113 ) ) ;
#710 = CARTESIAN_POINT ( 'NONE',  ( -0.2767700324656062749, -0.3360377377950076738, 1.105886918353917059 ) ) ;
#711 = EDGE_LOOP ( 'NONE', ( #568, #119, #234, #450 ) ) ;
#712 = CARTESIAN_POINT ( 'NONE',  ( -0.09025434203181555148, -0.3777134962133987806, 0.6546070705872526485 ) ) ;
#713 = CYLINDRICAL_SURFACE ( 'NONE', #559, 0.3650119999999993925 ) ;
#714 = CARTESIAN_POINT ( 'NONE',  ( 0.3049547671078831623, -0.1603070358102682835, 1.208776106430206942 ) ) ;
#715 = PLANE ( 'NONE',  #669 ) ;
#716 = ORIENTED_EDGE ( 'NONE', *, *, #596, .T. ) ;
#717 = FACE_OUTER_BOUND ( 'NONE', #220, .T. ) ;
#718 = CARTESIAN_POINT ( 'NONE',  ( 0.01357268317644368116, -0.4378820215095466928, 0.5839356799792490005 ) ) ;
#719 =( LENGTH_UNIT ( ) NAMED_UNIT ( * ) SI_UNIT ( .CENTI., .METRE. ) );
#720 = VERTEX_POINT ( 'NONE', #192 ) ;
#721 = CARTESIAN_POINT ( 'NONE',  ( -0.01044273650218157344, 0.4355750220142580731, 0.5763378611588818590 ) ) ;
#722 = CARTESIAN_POINT ( 'NONE',  ( 0.2656583469607982639, -0.2509099540399778450, 1.058936618933940865 ) ) ;
#723 = ORIENTED_EDGE ( 'NONE', *, *, #56, .T. ) ;
#724 = CARTESIAN_POINT ( 'NONE',  ( -0.1906739897206508327, -0.4296999077079107776, 0.8230799767742486006 ) ) ;
#725 = LINE ( 'NONE', #953, #114 ) ;
#726 = ORIENTED_EDGE ( 'NONE', *, *, #299, .T. ) ;
#727 = DIRECTION ( 'NONE',  ( -0.08070290107801876556, -0.9967382012131328350, -0.000000000000000000 ) ) ;
#728 = CARTESIAN_POINT ( 'NONE',  ( -0.05836347229233214418, -0.3564640102399638244, 0.5997988708762267418 ) ) ;
#729 = DIRECTION ( 'NONE',  ( -1.000000000000000000, 1.224657440497009026E-16, 0.000000000000000000 ) ) ;
#730 = ORIENTED_EDGE ( 'NONE', *, *, #419, .F. ) ;
#731 =( GEOMETRIC_REPRESENTATION_CONTEXT ( 3 ) GLOBAL_UNCERTAINTY_ASSIGNED_CONTEXT ( ( #202 ) ) GLOBAL_UNIT_ASSIGNED_CONTEXT ( ( #719, #634, #82 ) ) REPRESENTATION_CONTEXT ( 'NONE', 'WORKASPACE' ) );
#732 = CARTESIAN_POINT ( 'NONE',  ( 0.06812698132902902937, -0.4297552185394718505, 0.6234951832288787577 ) ) ;
#733 = ADVANCED_FACE ( 'NONE', ( #132, #902 ), #509, .T. ) ;
#734 = CARTESIAN_POINT ( 'NONE',  ( -0.002550971055683021529, -0.3650773391166864945, 0.5756798847013864240 ) ) ;
#735 = CARTESIAN_POINT ( 'NONE',  ( 7.372972002789946574E-06, 2.174486993823430198E-06, 1.438439359936231954 ) ) ;
#736 = FACE_OUTER_BOUND ( 'NONE', #635, .T. ) ;
#737 = CARTESIAN_POINT ( 'NONE',  ( -0.3500046270279966176, 2.174486993866294300E-06, -0.6965825861076591075 ) ) ;
#738 = PRODUCT_DEFINITION ( 'UNKNOWN', '', #86, #165 ) ;
#739 = CARTESIAN_POINT ( 'NONE',  ( 0.05840468318239196155, -0.4310722904308335046, 0.6152230060746360918 ) ) ;
#740 = LINE ( 'NONE', #434, #113 ) ;
#741 = CARTESIAN_POINT ( 'NONE',  ( 7.372972002789946574E-06, 2.174486993823430198E-06, 1.438439359936231954 ) ) ;
#742 = CARTESIAN_POINT ( 'NONE',  ( 7.372972002789946574E-06, 2.174486993823430198E-06, 13.50414725818924389 ) ) ;
#743 = CARTESIAN_POINT ( 'NONE',  ( -0.02681983492249036954, -0.3641214508724358589, 0.5785976294466582681 ) ) ;
#744 = CARTESIAN_POINT ( 'NONE',  ( -0.3497618859041799477, 0.1050501390804771118, 1.321521425630410418 ) ) ;
#745 = CARTESIAN_POINT ( 'NONE',  ( -0.1698837544724819959, -0.4286082488537432678, 0.7773814295723863177 ) ) ;
#746 = EDGE_CURVE ( 'NONE', #836, #130, #278, .T. ) ;
#747 = CARTESIAN_POINT ( 'NONE',  ( 0.1056020694750861577, -0.2836776886427975208, 0.6514059583171423196 ) ) ;
#748 = DIRECTION ( 'NONE',  ( 0.000000000000000000, 0.000000000000000000, 1.000000000000000000 ) ) ;
#749 = CARTESIAN_POINT ( 'NONE',  ( -0.3287803430948760264, 0.1601253415832567251, 1.205729667798836724 ) ) ;
#750 = FACE_OUTER_BOUND ( 'NONE', #956, .T. ) ;
#751 = ORIENTED_EDGE ( 'NONE', *, *, #389, .F. ) ;
#752 = FACE_BOUND ( 'NONE', #539, .T. ) ;
#753 = CARTESIAN_POINT ( 'NONE',  ( -0.3602329239203097555, 0.05966428397597538930, 1.414365794373186880 ) ) ;
#754 = CARTESIAN_POINT ( 'NONE',  ( -0.08554614997448413416, 0.2797927770201442121, 0.6152230060746350926 ) ) ;
#755 = DIRECTION ( 'NONE',  ( -0.000000000000000000, -0.000000000000000000, 1.000000000000000000 ) ) ;
#756 = ORIENTED_EDGE ( 'NONE', *, *, #266, .T. ) ;
#757 = CARTESIAN_POINT ( 'NONE',  ( 0.07648637923022125196, 0.4803661167690562728, 1.438439359936230844 ) ) ;
#758 = CARTESIAN_POINT ( 'NONE',  ( -0.2086194844776778912, -0.3817179775808137165, 0.8714913259687104841 ) ) ;
#759 = CARTESIAN_POINT ( 'NONE',  ( -0.02280292187398331311, 0.4344157223800571566, 1.438439359936251938 ) ) ;
#760 = CARTESIAN_POINT ( 'NONE',  ( -0.06887584392640344610, 0.4324734727585134442, 0.5956400212884005452 ) ) ;
#761 = ORIENTED_EDGE ( 'NONE', *, *, #273, .T. ) ;
#762 = DIRECTION ( 'NONE',  ( 0.000000000000000000, 0.000000000000000000, 1.000000000000000000 ) ) ;
#763 = TOROIDAL_SURFACE ( 'NONE', #325, 0.3500119999999994347, 0.1000000000000000056 ) ;
#764 = B_SPLINE_CURVE_WITH_KNOTS ( 'NONE', 3,
 ( #789, #643, #712, #880 ),
 .UNSPECIFIED., .F., .F.,
 ( 4, 4 ),
 ( 0.0002176350576437249568, 0.0009402361040956808613 ),
 .UNSPECIFIED. ) ;
#765 = CARTESIAN_POINT ( 'NONE',  ( 0.02717409719712407176, 0.3640891737095150460, 0.5935260578150689526 ) ) ;
#766 = ADVANCED_FACE ( 'NONE', ( #896, #752 ), #914, .T. ) ;
#767 = CARTESIAN_POINT ( 'NONE',  ( 0.03030034290016556803, 0.4339983514658642405, 0.6001776929582157694 ) ) ;
#768 = CARTESIAN_POINT ( 'NONE',  ( 0.3080207881214807042, -0.3903907527918025755, 1.393120264800850494 ) ) ;
#769 = ORIENTED_EDGE ( 'NONE', *, *, #435, .F. ) ;
#770 = CARTESIAN_POINT ( 'NONE',  ( -0.01408441083203673151, 0.3573800089285205095, 0.5742752392857386479 ) ) ;
#771 = CARTESIAN_POINT ( 'NONE',  ( -0.2840892012884332352, -0.2302801928255267527, 1.112258220222826166 ) ) ;
#772 = CARTESIAN_POINT ( 'NONE',  ( 0.03593619268033562686, 0.4380102983872586897, 1.143076172137886370 ) ) ;
#773 = FACE_OUTER_BOUND ( 'NONE', #995, .T. ) ;
#774 = ORIENTED_EDGE ( 'NONE', *, *, #843, .T. ) ;
#775 = CARTESIAN_POINT ( 'NONE',  ( -0.02282964252837357821, 0.4349246072653283890, 1.438439359936251938 ) ) ;
#776 = CARTESIAN_POINT ( 'NONE',  ( -0.3344993600988721560, 0.04942420656904727982, 1.255465620127943049 ) ) ;
#777 = CARTESIAN_POINT ( 'NONE',  ( -0.3450661804456239823, -0.2648745569858401150, 1.438439359936233952 ) ) ;
#778 = ORIENTED_EDGE ( 'NONE', *, *, #221, .T. ) ;
#779 = EDGE_CURVE ( 'NONE', #298, #615, #410, .T. ) ;
#780 = VECTOR ( 'NONE', #879, 100.0000000000000000 ) ;
#781 = CARTESIAN_POINT ( 'NONE',  ( 0.07357735499448955774, 0.4399867699197294590, 0.8445143365747834752 ) ) ;
#782 = CARTESIAN_POINT ( 'NONE',  ( 0.2393543032361810374, -0.1549955631085431773, 0.9214620077814903443 ) ) ;
#783 = FILL_AREA_STYLE ('',( #329 ) ) ;
#784 = VERTEX_POINT ( 'NONE', #366 ) ;
#785 = CARTESIAN_POINT ( 'NONE',  ( -0.3615899011400322549, 0.04981353362068301205, 1.438439359936232176 ) ) ;
#786 = CARTESIAN_POINT ( 'NONE',  ( 0.2861302405907007462, -0.1587828703879861914, 1.114515310850297425 ) ) ;
#787 = CARTESIAN_POINT ( 'NONE',  ( 0.01942826485740947740, -0.3645567024412961210, 0.5838923799588198182 ) ) ;
#788 = VERTEX_POINT ( 'NONE', #681 ) ;
#789 = CARTESIAN_POINT ( 'NONE',  ( -0.09727266627737064797, -0.4239931487273550514, 0.6659953971233730785 ) ) ;
#790 = CARTESIAN_POINT ( 'NONE',  ( -0.05976470212321895181, -0.4309650949525796193, 0.5951091325220073669 ) ) ;
#791 = CARTESIAN_POINT ( 'NONE',  ( -0.3333611245218962016, -0.2798364283384834339, 1.341004054656055988 ) ) ;
#792 = ORIENTED_EDGE ( 'NONE', *, *, #373, .F. ) ;
#793 = CARTESIAN_POINT ( 'NONE',  ( 0.2989684844113106310, -0.2101358340953103643, 1.198140387567701248 ) ) ;
#794 = EDGE_CURVE ( 'NONE', #628, #474, #831, .T. ) ;
#795 = COLOUR_RGB ( '',0.7921568627450980005, 0.8196078431372548767, 0.9333333333333333481 ) ;
#796 = ORIENTED_EDGE ( 'NONE', *, *, #250, .F. ) ;
#797 = CARTESIAN_POINT ( 'NONE',  ( -0.01634416532498497721, -0.4347700066448375034, 0.5742950865263760640 ) ) ;
#798 = CARTESIAN_POINT ( 'NONE',  ( 0.3263990642598667002, -0.1634059770913388332, 1.438439359936223516 ) ) ;
#799 = CARTESIAN_POINT ( 'NONE',  ( 7.372972002789946574E-06, 2.174486993823430198E-06, -0.7492608548719227324 ) ) ;
#800 = CARTESIAN_POINT ( 'NONE',  ( -0.1999483319813128157, -0.3055411724063431533, 0.8303755670215795526 ) ) ;
#801 = CARTESIAN_POINT ( 'NONE',  ( -0.07006895011551218799, -0.3555162528271493816, 0.6145278106649456618 ) ) ;
#802 = CARTESIAN_POINT ( 'NONE',  ( -0.1579447474150293407, -0.4279813524954932391, 0.7551366283434194360 ) ) ;
#803 = ADVANCED_FACE ( 'NONE', ( #736 ), #139, .F. ) ;
#804 = CARTESIAN_POINT ( 'NONE',  ( 0.1954644973003345498, -0.3887785368533197561, 0.8231693874914345344 ) ) ;
#805 = CARTESIAN_POINT ( 'NONE',  ( -0.05139314393891868116, -0.3570283768097433086, 0.5931476001058317848 ) ) ;
#806 = CARTESIAN_POINT ( 'NONE',  ( -0.1977609868412742722, -0.2947306938566004453, 0.8230799767742478235 ) ) ;
#807 = AXIS2_PLACEMENT_3D ( 'NONE', #432, #748, #361 ) ;
#808 = VECTOR ( 'NONE', #591, 100.0000000000000000 ) ;
#809 = EDGE_CURVE ( 'NONE', #172, #964, #642, .T. ) ;
#810 = CARTESIAN_POINT ( 'NONE',  ( -0.1083081562791926022, 0.3486905688673966330, 0.6326225603019984822 ) ) ;
#811 = CARTESIAN_POINT ( 'NONE',  ( -0.1242680258606314175, -0.2908717071440485302, 0.6911363459168737844 ) ) ;
#812 = ORIENTED_EDGE ( 'NONE', *, *, #648, .T. ) ;
#813 = DIRECTION ( 'NONE',  ( -0.000000000000000000, -0.000000000000000000, 1.000000000000000000 ) ) ;
#814 = CARTESIAN_POINT ( 'NONE',  ( -0.1966635260361021265, 0.3078575802474198264, 0.7552762080588442117 ) ) ;
#815 = CARTESIAN_POINT ( 'NONE',  ( -0.01795837146922062144, -0.3597354900034626102, 0.5763378611589389244 ) ) ;
#816 = ADVANCED_FACE ( 'NONE', ( #668 ), #281, .F. ) ;
#817 = CARTESIAN_POINT ( 'NONE',  ( -0.1769707515931054354, -0.2936390350024329354, 0.7773814295723854295 ) ) ;
#818 = CARTESIAN_POINT ( 'NONE',  ( 0.1011974427321569725, -0.4354389766422188668, 0.6611468894741300284 ) ) ;
#819 = CARTESIAN_POINT ( 'NONE',  ( -0.04942621592256711549, -0.3617224771452924315, 0.5913282468805899361 ) ) ;
#820 = B_SPLINE_CURVE_WITH_KNOTS ( 'NONE', 3,
 ( #149, #395, #227, #790, #153, #404, #707, #315 ),
 .UNSPECIFIED., .F., .F.,
 ( 4, 2, 2, 4 ),
 ( 0.000000000000000000, 0.0003040531820580015792, 0.0006081063641160031584, 0.001216212728232004148 ),
 .UNSPECIFIED. ) ;
#821 = CARTESIAN_POINT ( 'NONE',  ( -0.2036120190108216266, -0.3844547777693257951, 0.8522972057466733364 ) ) ;
#822 = CARTESIAN_POINT ( 'NONE',  ( -0.1379700224389079355, 0.4234341196991353029, 0.6611468894741239222 ) ) ;
#823 = CARTESIAN_POINT ( 'NONE',  ( 7.372972002789946574E-06, 2.174486993823430198E-06, -0.7965825861076580860 ) ) ;
#824 = ORIENTED_EDGE ( 'NONE', *, *, #3, .T. ) ;
#825 = DIRECTION ( 'NONE',  ( -0.08070290107801876556, -0.9967382012131328350, -0.000000000000000000 ) ) ;
#826 = B_SPLINE_SURFACE_WITH_KNOTS ( 'NONE', 3, 1, ( 
 ( #638, #386 ),
 ( #782, #88 ),
 ( #620, #709 ),
 ( #864, #166 ),
 ( #786, #92 ),
 ( #714, #944 ),
 ( #244, #563 ),
 ( #868, #468 ),
 ( #464, #768 ),
 ( #922, #71 ) ),
 .UNSPECIFIED., .F., .F., .F.,
 ( 4, 2, 2, 2, 4 ),
 ( 2, 2 ),
 ( 0.000000000000000000, 0.2500000000000000000, 0.5000000000000000000, 0.7500000000000000000, 1.000000000000000000 ),
 ( 0.000000000000000000, 1.000000000000000000 ),
 .UNSPECIFIED. ) ;
#827 = CARTESIAN_POINT ( 'NONE',  ( -0.3529890621665242034, 0.09360866035691992049, 1.344614143131531048 ) ) ;
#828 = CARTESIAN_POINT ( 'NONE',  ( -0.1031916264061083499, 0.4252602723861906298, 0.6235752708504772590 ) ) ;
#829 = CARTESIAN_POINT ( 'NONE',  ( 0.1081595895523790457, -0.3487148756839767993, 0.6610707060464006135 ) ) ;
#830 = ORIENTED_EDGE ( 'NONE', *, *, #56, .F. ) ;
#831 = LINE ( 'NONE', #353, #808 ) ;
#832 = CARTESIAN_POINT ( 'NONE',  ( -0.3104393041555175148, 0.3052093530018456513, 1.105881524785066405 ) ) ;
#833 = CARTESIAN_POINT ( 'NONE',  ( -0.09321190871916215648, 0.4257842898898410167, 0.6152230060746342044 ) ) ;
#834 = CARTESIAN_POINT ( 'NONE',  ( -0.3285837792698723114, -0.3898288966043267911, 1.347582151190733324 ) ) ;
#835 = CARTESIAN_POINT ( 'NONE',  ( -0.08943663811261291785, 0.3538856708881326085, 0.6152230060746346485 ) ) ;
#836 = VERTEX_POINT ( 'NONE', #673 ) ;
#837 = CARTESIAN_POINT ( 'NONE',  ( 0.1845261380842972421, -0.2900679336378139683, 0.7773814295723925349 ) ) ;
#838 = EDGE_CURVE ( 'NONE', #508, #720, #189, .T. ) ;
#839 = CARTESIAN_POINT ( 'NONE',  ( -0.003600434050096590084, 0.3653275787516527262, 1.364883797695375600 ) ) ;
#840 = CARTESIAN_POINT ( 'NONE',  ( -0.001102421362196933817, 0.4351123082545040321, 0.5788180523788811760 ) ) ;
#841 = CARTESIAN_POINT ( 'NONE',  ( -0.02262502735633235840, 0.3643895028078947274, 0.5756942749933154913 ) ) ;
#842 = ORIENTED_EDGE ( 'NONE', *, *, #809, .F. ) ;
#843 = EDGE_CURVE ( 'NONE', #298, #53, #196, .T. ) ;
#844 = VECTOR ( 'NONE', #626, 100.0000000000000142 ) ;
#845 = CARTESIAN_POINT ( 'NONE',  ( 0.05055674926842317063, 0.3527094323279797439, 0.6227541184294963506 ) ) ;
#846 = CARTESIAN_POINT ( 'NONE',  ( -0.04580865336608472282, -0.4769930077584445538, 0.6152230060746397555 ) ) ;
#847 = DIRECTION ( 'NONE',  ( 1.000000000000000000, 0.000000000000000000, 0.000000000000000000 ) ) ;
#848 = ORIENTED_EDGE ( 'NONE', *, *, #794, .F. ) ;
#849 = B_SPLINE_CURVE_WITH_KNOTS ( 'NONE', 3,
 ( #567, #312, #484, #787, #428, #734, #333, #658 ),
 .UNSPECIFIED., .F., .F.,
 ( 4, 2, 2, 4 ),
 ( 1.388456241783856658E-18, 0.0004715623327187866811, 0.0007073434990781799674, 0.0009431246654375732537 ),
 .UNSPECIFIED. ) ;
#850 = CARTESIAN_POINT ( 'NONE',  ( 7.372972002789946574E-06, 2.174486993823430198E-06, 13.55682552695350829 ) ) ;
#851 = CARTESIAN_POINT ( 'NONE',  ( -0.2591051054463939796, 0.3497120939486920155, 0.9191613376160433502 ) ) ;
#852 = ADVANCED_FACE ( 'NONE', ( #679, #526 ), #297, .F. ) ;
#853 = CARTESIAN_POINT ( 'NONE',  ( 7.372972002789946574E-06, 2.174486993823430198E-06, -0.7954511857740851344 ) ) ;
#854 = SURFACE_STYLE_USAGE ( .BOTH. , #387 ) ;
#855 = ORIENTED_EDGE ( 'NONE', *, *, #675, .F. ) ;
#856 = CARTESIAN_POINT ( 'NONE',  ( -0.01832275882122203631, 0.3490926899496892277, 1.438439359936252382 ) ) ;
#857 = CARTESIAN_POINT ( 'NONE',  ( 0.01320740166589429165, -0.3546954140900749897, 0.5804340310355035060 ) ) ;
#858 = B_SPLINE_CURVE_WITH_KNOTS ( 'NONE', 3,
 ( #975, #264, #582, #121, #37, #34, #183, #800, #670, #577 ),
 .UNSPECIFIED., .F., .F.,
 ( 4, 2, 2, 2, 4 ),
 ( 6.659526377528313221E-05, 0.0007276230607765175494, 0.001388650857777751994, 0.002049678654778986763, 0.002710706451780221099 ),
 .UNSPECIFIED. ) ;
#859 = CARTESIAN_POINT ( 'NONE',  ( 7.372972002789946574E-06, 2.174486993823430198E-06, 13.60301585785567191 ) ) ;
#860 = CARTESIAN_POINT ( 'NONE',  ( 0.2690560681851776326, -0.3420942511361725891, 1.104601501250738860 ) ) ;
#861 = EDGE_LOOP ( 'NONE', ( #946, #168, #895, #967, #104 ) ) ;
#862 = AXIS2_PLACEMENT_3D ( 'NONE', #666, #579, #729 ) ;
#863 = CARTESIAN_POINT ( 'NONE',  ( 0.06803455137742379921, 0.3536271611172875917, 0.9570053213759381894 ) ) ;
#864 = CARTESIAN_POINT ( 'NONE',  ( 0.2750789666864743577, -0.1578880819033135208, 1.066857402300990021 ) ) ;
#865 = CARTESIAN_POINT ( 'NONE',  ( -0.04830655083303847519, 0.4323775182951057339, 0.5839292022893910472 ) ) ;
#866 = ORIENTED_EDGE ( 'NONE', *, *, #27, .F. ) ;
#867 = CARTESIAN_POINT ( 'NONE',  ( 0.07295012633353656351, 0.4399538352408690622, 0.7315678656395876445 ) ) ;
#868 = CARTESIAN_POINT ( 'NONE',  ( 0.3235053538557692288, -0.1618090211514860433, 1.347582151190746425 ) ) ;
#869 = CARTESIAN_POINT ( 'NONE',  ( -0.02627534009715839711, 0.4342844899223883837, 0.5756909116626462986 ) ) ;
#870 = VERTEX_POINT ( 'NONE', #271 ) ;
#871 = B_SPLINE_CURVE_WITH_KNOTS ( 'NONE', 3,
 ( #663, #966, #889, #190, #507, #417, #357, #672, #28, #960, #448, #218 ),
 .UNSPECIFIED., .F., .F.,
 ( 4, 2, 2, 2, 2, 4 ),
 ( 1.371583884108578879E-16, 0.0007756277707943433700, 0.001551255541588551648, 0.002326883312382759927, 0.002714697197779864825, 0.003102511083176970157 ),
 .UNSPECIFIED. ) ;
#872 = EDGE_CURVE ( 'NONE', #210, #788, #414, .T. ) ;
#873 = PRESENTATION_STYLE_ASSIGNMENT (( #854 ) ) ;
#874 = ORIENTED_EDGE ( 'NONE', *, *, #632, .F. ) ;
#875 = CARTESIAN_POINT ( 'NONE',  ( 0.006653009753552276660, -0.4350228796617075511, 0.5804140404393240971 ) ) ;
#876 = CIRCLE ( 'NONE', #941, 0.4350119999999994547 ) ;
#877 = DIRECTION ( 'NONE',  ( 1.000000000000000000, 0.000000000000000000, -2.472411232576622505E-14 ) ) ;
#878 = VECTOR ( 'NONE', #203, 100.0000000000000142 ) ;
#879 = DIRECTION ( 'NONE',  ( -0.000000000000000000, -0.000000000000000000, 1.000000000000000000 ) ) ;
#880 = CARTESIAN_POINT ( 'NONE',  ( -0.08634886062864750855, -0.3546474569273213584, 0.6488673901897413776 ) ) ;
#881 = CARTESIAN_POINT ( 'NONE',  ( -0.09007172671262674013, -0.3538966880316616326, 0.6605015661159280294 ) ) ;
#882 = LINE ( 'NONE', #575, #780 ) ;
#883 = ADVANCED_FACE ( 'NONE', ( #129 ), #251, .F. ) ;
#884 = EDGE_LOOP ( 'NONE', ( #263, #961, #933, #989 ) ) ;
#885 = CARTESIAN_POINT ( 'NONE',  ( 7.372972002789946574E-06, 2.174486993823430198E-06, -0.7954511857740851344 ) ) ;
#886 = CARTESIAN_POINT ( 'NONE',  ( -0.07497642156523101620, -0.3551189095905122883, 0.6227541184295513066 ) ) ;
#887 = CARTESIAN_POINT ( 'NONE',  ( -0.08943663811261291785, 0.3538856708881326085, 0.6152230060746346485 ) ) ;
#888 = CARTESIAN_POINT ( 'NONE',  ( -0.1335973193361978950, 0.3397885566538063062, 0.6611691799761512112 ) ) ;
#889 = CARTESIAN_POINT ( 'NONE',  ( -0.2325182829889420877, 0.3678452040246904531, 0.8229699701609805018 ) ) ;
#890 = CARTESIAN_POINT ( 'NONE',  ( 0.2169608648065528278, -0.2926940761283625680, 0.8714913259686984937 ) ) ;
#891 = CARTESIAN_POINT ( 'NONE',  ( -0.05592589072871537864, -0.3607446225555119290, 0.5971202290289427950 ) ) ;
#892 = CARTESIAN_POINT ( 'NONE',  ( -0.1650317445356527524, -0.2930121386441829068, 0.7551366283434186588 ) ) ;
#893 = B_SPLINE_CURVE_WITH_KNOTS ( 'NONE', 3,
 ( #180, #497, #804, #109, #420, #29, #112, #657, #962, #424, #732, #345 ),
 .UNSPECIFIED., .F., .F.,
 ( 4, 2, 2, 2, 2, 4 ),
 ( 8.591917436267624199E-17, 0.0007606621046169950284, 0.001521324209233904188, 0.002281986313850813131, 0.002662317366159267819, 0.003042648418467722507 ),
 .UNSPECIFIED. ) ;
#894 = CARTESIAN_POINT ( 'NONE',  ( -0.3349591971753623221, -0.3901636586367167592, 1.393120264800852270 ) ) ;
#895 = ORIENTED_EDGE ( 'NONE', *, *, #117, .T. ) ;
#896 = FACE_OUTER_BOUND ( 'NONE', #711, .T. ) ;
#897 = CARTESIAN_POINT ( 'NONE',  ( -0.01834802704091235970, -0.3645480133258303668, 0.5763378611589389244 ) ) ;
#898 = CARTESIAN_POINT ( 'NONE',  ( -0.09727266627737064797, -0.4239931487273550514, 0.6659953971233730785 ) ) ;
#899 = CARTESIAN_POINT ( 'NONE',  ( -0.1297220522837012058, 0.4238672061717684292, 0.6514059583171403212 ) ) ;
#900 = CARTESIAN_POINT ( 'NONE',  ( 0.08299320462328448056, -0.3555606939195702365, 0.6325801120778321573 ) ) ;
#901 = ORIENTED_EDGE ( 'NONE', *, *, #169, .T. ) ;
#902 = FACE_OUTER_BOUND ( 'NONE', #884, .T. ) ;
#903 = DIRECTION ( 'NONE',  ( -0.05243601290533553977, 0.9986242859807643590, -6.167741219262809573E-15 ) ) ;
#904 = CARTESIAN_POINT ( 'NONE',  ( -0.2429658062358111270, 0.2723948952591303541, 0.8714913259687064873 ) ) ;
#905 = CARTESIAN_POINT ( 'NONE',  ( 0.1313967218002899950, -0.3409340229271954903, 0.6911015018160917567 ) ) ;
#906 = ORIENTED_EDGE ( 'NONE', *, *, #664, .F. ) ;
#907 = CARTESIAN_POINT ( 'NONE',  ( 0.1358558856152628225, -0.2861272493481277213, 0.6911363459168755607 ) ) ;
#908 = B_SPLINE_SURFACE_WITH_KNOTS ( 'NONE', 3, 1, ( 
 ( #103, #412 ),
 ( #259, #416 ),
 ( #881, #955 ),
 ( #578, #181 ),
 ( #342, #498 ),
 ( #886, #177 ),
 ( #801, #421 ),
 ( #728, #32 ),
 ( #805, #184 ),
 ( #502, #512 ),
 ( #380, #517 ),
 ( #815, #997 ) ),
 .UNSPECIFIED., .F., .F., .F.,
 ( 4, 2, 2, 2, 2, 4 ),
 ( 2, 2 ),
 ( 0.8643245554811501696, 0.8750000000000009992, 0.9062500000000007772, 0.9375000000000005551, 0.9687500000000002220, 1.000000000000000000 ),
 ( 0.000000000000000000, 1.000000000000000000 ),
 .UNSPECIFIED. ) ;
#909 = CARTESIAN_POINT ( 'NONE',  ( -0.3673670999458644171, 0.2330630708857455158, 1.389053142231413851 ) ) ;
#910 = CARTESIAN_POINT ( 'NONE',  ( -0.1684882115928232060, 0.2754376345762145628, 0.7120796211116360297 ) ) ;
#911 = DIRECTION ( 'NONE',  ( 1.000000000000000000, 0.000000000000000000, 0.000000000000000000 ) ) ;
#912 = ORIENTED_EDGE ( 'NONE', *, *, #948, .F. ) ;
#913 = EDGE_CURVE ( 'NONE', #191, #480, #574, .T. ) ;
#914 = CYLINDRICAL_SURFACE ( 'NONE', #269, 0.4350119999999994547 ) ;
#915 = CARTESIAN_POINT ( 'NONE',  ( 0.07307554714893417513, 0.3576329074112202799, 0.6954982651467628285 ) ) ;
#916 = CARTESIAN_POINT ( 'NONE',  ( 0.07470656970946344677, 0.4285527881782378867, 0.7520281915086026725 ) ) ;
#917 = CARTESIAN_POINT ( 'NONE',  ( 0.1454179663421792112, -0.3350953764808439761, 0.7120125791496870749 ) ) ;
#918 = CARTESIAN_POINT ( 'NONE',  ( -0.01913240097060982248, 0.3645120223614035093, 1.438439359936252160 ) ) ;
#919 = ORIENTED_EDGE ( 'NONE', *, *, #528, .T. ) ;
#920 = EDGE_CURVE ( 'NONE', #330, #628, #254, .T. ) ;
#921 = CARTESIAN_POINT ( 'NONE',  ( -0.4350046270279966376, 2.174486993876703912E-06, -0.7492608548719227324 ) ) ;
#922 = CARTESIAN_POINT ( 'NONE',  ( 0.3265086762447874658, -0.1620521911527675052, 1.438439359936233730 ) ) ;
#923 = ORIENTED_EDGE ( 'NONE', *, *, #511, .T. ) ;
#924 = VECTOR ( 'NONE', #903, 100.0000000000000142 ) ;
#925 = ADVANCED_FACE ( 'NONE', ( #773 ), #133, .F. ) ;
#926 = CARTESIAN_POINT ( 'NONE',  ( 0.03422964372350015272, 0.3518521246006599545, 0.5997988708761594623 ) ) ;
#927 = FACE_OUTER_BOUND ( 'NONE', #398, .T. ) ;
#928 = EDGE_LOOP ( 'NONE', ( #393, #318, #347, #983, #520 ) ) ;
#929 = CARTESIAN_POINT ( 'NONE',  ( -0.01044099126202860557, 0.4355417845665135457, 0.5763378611589463629 ) ) ;
#930 = FACE_BOUND ( 'NONE', #928, .T. ) ;
#931 = FACE_OUTER_BOUND ( 'NONE', #489, .T. ) ;
#932 = CARTESIAN_POINT ( 'NONE',  ( -0.3409382037576433877, -0.2702523626399118140, 1.389044357088339732 ) ) ;
#933 = ORIENTED_EDGE ( 'NONE', *, *, #266, .F. ) ;
#934 = DIRECTION ( 'NONE',  ( 0.000000000000000000, 0.000000000000000000, 1.000000000000000000 ) ) ;
#935 = CARTESIAN_POINT ( 'NONE',  ( 0.04044307638748716877, 0.3521783810716195284, 1.143076172137886815 ) ) ;
#936 = CARTESIAN_POINT ( 'NONE',  ( -0.008315371242923417713, -0.4361098114262504932, 0.5756769458841025644 ) ) ;
#937 = CARTESIAN_POINT ( 'NONE',  ( -0.3397388712536869027, 0.3547400189882278232, 1.208776106430183184 ) ) ;
#938 = CARTESIAN_POINT ( 'NONE',  ( -0.01813071439108875429, 0.4347045369233557000, 0.5742789324175071597 ) ) ;
#939 = VERTEX_POINT ( 'NONE', #311 ) ;
#940 = CARTESIAN_POINT ( 'NONE',  ( -0.008249592820140882327, -0.4349952792310941563, 0.5756730669803430400 ) ) ;
#941 = AXIS2_PLACEMENT_3D ( 'NONE', #799, #260, #253 ) ;
#942 = CARTESIAN_POINT ( 'NONE',  ( 0.07403143270986374536, 0.4400106127455821192, 0.7504183140383265949 ) ) ;
#943 = AXIS2_PLACEMENT_3D ( 'NONE', #350, #959, #194 ) ;
#944 = CARTESIAN_POINT ( 'NONE',  ( 0.2864668789845786767, -0.3886455974493035481, 1.208776106430206942 ) ) ;
#945 = CARTESIAN_POINT ( 'NONE',  ( 0.3153690028348375973, -0.2996350771261124257, 1.438439359936223516 ) ) ;
#946 = ORIENTED_EDGE ( 'NONE', *, *, #675, .T. ) ;
#947 = CARTESIAN_POINT ( 'NONE',  ( 0.03405876177904047092, -0.4338883808612670756, 0.5955771606364523851 ) ) ;
#948 = EDGE_CURVE ( 'NONE', #72, #186, #237, .T. ) ;
#949 = B_SPLINE_CURVE_WITH_KNOTS ( 'NONE', 3,
 ( #573, #655, #947, #319, #875, #940, #797, #560 ),
 .UNSPECIFIED., .F., .F.,
 ( 4, 2, 2, 4 ),
 ( 1.388456241783856658E-18, 0.0004702765488914117009, 0.0007054148233371161690, 0.0009405530977828206914 ),
 .UNSPECIFIED. ) ;
#950 = B_SPLINE_CURVE_WITH_KNOTS ( 'NONE', 3,
 ( #401, #317, #550, #865, #245, #869, #938, #621 ),
 .UNSPECIFIED., .F., .F.,
 ( 4, 2, 2, 4 ),
 ( 1.099329678522504869E-17, 0.0004740291409556808815, 0.0007110437114335157929, 0.0009480582819113507042 ),
 .UNSPECIFIED. ) ;
#951 = CARTESIAN_POINT ( 'NONE',  ( 0.3153690028348348773, -0.2996350771261152013, 1.389584125415963101 ) ) ;
#952 = ORIENTED_EDGE ( 'NONE', *, *, #632, .T. ) ;
#953 = CARTESIAN_POINT ( 'NONE',  ( -0.3331360170240292851, -0.4920800645828458109, 1.438439359936233286 ) ) ;
#954 = CARTESIAN_POINT ( 'NONE',  ( 0.2168883174889630894, -0.2935900870755867031, 0.8714913259687071534 ) ) ;
#955 = CARTESIAN_POINT ( 'NONE',  ( -0.09616813728298574671, -0.4291916926050651782, 0.6605015661159280294 ) ) ;
#956 = EDGE_LOOP ( 'NONE', ( #413, #19, #445, #370 ) ) ;
#957 = FACE_OUTER_BOUND ( 'NONE', #972, .T. ) ;
#958 = EDGE_CURVE ( 'NONE', #964, #474, #601, .T. ) ;
#959 = DIRECTION ( 'NONE',  ( 0.000000000000000000, 0.000000000000000000, 1.000000000000000000 ) ) ;
#960 = CARTESIAN_POINT ( 'NONE',  ( -0.1119831139033943546, 0.4204457078973624640, 0.6325316546528233497 ) ) ;
#961 = ORIENTED_EDGE ( 'NONE', *, *, #62, .T. ) ;
#962 = CARTESIAN_POINT ( 'NONE',  ( 0.09396859399402987534, -0.4248288967275037908, 0.6511647564282484479 ) ) ;
#963 = ORIENTED_EDGE ( 'NONE', *, *, #486, .F. ) ;
#964 = VERTEX_POINT ( 'NONE', #556 ) ;
#965 = CARTESIAN_POINT ( 'NONE',  ( -0.2131026022179253188, -0.2963386742304041643, 0.8714913259686991598 ) ) ;
#966 = CARTESIAN_POINT ( 'NONE',  ( -0.2413549128908030195, 0.3619891771854099605, 0.8465687919335936895 ) ) ;
#967 = ORIENTED_EDGE ( 'NONE', *, *, #331, .T. ) ;
#968 = CARTESIAN_POINT ( 'NONE',  ( 0.1991333091610420769, -0.4433685498549048143, 0.8464806800282130839 ) ) ;
#969 = DIRECTION ( 'NONE',  ( 1.000000000000000000, 0.000000000000000000, 0.000000000000000000 ) ) ;
#970 = CARTESIAN_POINT ( 'NONE',  ( -0.08875756193247297254, -0.2890071148534831269, 0.6477070589135432988 ) ) ;
#971 = CARTESIAN_POINT ( 'NONE',  ( 0.2168883174889630894, -0.2935900870755867031, 0.8714913259687071534 ) ) ;
#972 = EDGE_LOOP ( 'NONE', ( #527, #605, #248, #303 ) ) ;
#973 = DIRECTION ( 'NONE',  ( 0.000000000000000000, -1.000000000000000000, 0.000000000000000000 ) ) ;
#974 = APPLICATION_PROTOCOL_DEFINITION ( 'draft international standard', 'automotive_design', 1998, #440 ) ;
#975 = CARTESIAN_POINT ( 'NONE',  ( -0.08634886062864750855, -0.3546474569273213584, 0.6488673901897413776 ) ) ;
#976 = CARTESIAN_POINT ( 'NONE',  ( -0.2442658817841377727, 0.4178527102234634305, 0.8464806800282211885 ) ) ;
#977 = CARTESIAN_POINT ( 'NONE',  ( -0.04429657400873635714, 0.3557936211343606936, 0.5839356799792490005 ) ) ;
#978 = CARTESIAN_POINT ( 'NONE',  ( 0.2047245505728459980, -0.4438212558934723773, 0.8714913259686984937 ) ) ;
#979 = CARTESIAN_POINT ( 'NONE',  ( -0.07291792840204110171, -0.3578354230989347906, 0.6167498048415729350 ) ) ;
#980 = CARTESIAN_POINT ( 'NONE',  ( -0.3608358372294834249, 0.2433875641346195107, 1.341009631676013614 ) ) ;
#981 = CARTESIAN_POINT ( 'NONE',  ( 0.007989001942151985683, 0.4351679225973739684, 1.291309607303170015 ) ) ;
#982 = CARTESIAN_POINT ( 'NONE',  ( -0.2371542157640169901, -0.07943716031909900388, 0.9214620077814733579 ) ) ;
#983 = ORIENTED_EDGE ( 'NONE', *, *, #511, .F. ) ;
#984 = CARTESIAN_POINT ( 'NONE',  ( 0.07056845009850763739, -0.2808411216129477195, 0.6152230060746360918 ) ) ;
#985 = CARTESIAN_POINT ( 'NONE',  ( 0.07848698319916791455, 0.3564778043334329571, 0.7519332414868897807 ) ) ;
#986 = ADVANCED_FACE ( 'NONE', ( #931 ), #826, .F. ) ;
#987 = CARTESIAN_POINT ( 'NONE',  ( -0.2067464886789748546, 0.2734287594274846800, 0.7773814295723819878 ) ) ;
#988 = CARTESIAN_POINT ( 'NONE',  ( -0.2211522902161030812, -0.3841878572008761705, 0.9214620077814752452 ) ) ;
#989 = ORIENTED_EDGE ( 'NONE', *, *, #40, .F. ) ;
#990 = CARTESIAN_POINT ( 'NONE',  ( 0.1134337569658638162, -0.2843117968771091131, 0.6611468894741300284 ) ) ;
#991 = B_SPLINE_SURFACE_WITH_KNOTS ( 'NONE', 3, 1, ( 
 ( #984, #294 ),
 ( #437, #600 ),
 ( #515, #267 ),
 ( #747, #446 ),
 ( #990, #818 ),
 ( #907, #359 ),
 ( #197, #665 ),
 ( #529, #584 ),
 ( #837, #606 ),
 ( #521, #674 ),
 ( #61, #968 ),
 ( #890, #978 ) ),
 .UNSPECIFIED., .F., .F., .F.,
 ( 4, 2, 2, 2, 2, 4 ),
 ( 2, 2 ),
 ( 0.000000000000000000, 0.1249999999999990008, 0.2499999999999980016, 0.4999999999999986677, 0.7499999999999993339, 1.000000000000000000 ),
 ( 0.000000000000000000, 1.000000000000000000 ),
 .UNSPECIFIED. ) ;
#992 = CARTESIAN_POINT ( 'NONE',  ( -0.2474489239760591930, 0.3577741986095517301, 0.8714913259686951630 ) ) ;
#993 = CARTESIAN_POINT ( 'NONE',  ( -0.1303042636942299271, 0.2774426068294384984, 0.6611468894741248103 ) ) ;
#994 = CARTESIAN_POINT ( 'NONE',  ( -0.3274840255435694236, -0.08418022048479810449, 1.255465620127943938 ) ) ;
#995 = EDGE_LOOP ( 'NONE', ( #730, #923, #919, #204 ) ) ;
#996 = APPLICATION_PROTOCOL_DEFINITION ( 'draft international standard', 'automotive_design', 1998, #55 ) ;
#997 = CARTESIAN_POINT ( 'NONE',  ( -0.02405478203957961761, -0.4350304945768662113, 0.5763378611589389244 ) ) ;
#998 = CARTESIAN_POINT ( 'NONE',  ( 0.05539604100995429437, 0.4315074902210565000, 0.6407236453770472906 ) ) ;
ENDSEC;
END-ISO-10303-21;
